<svg width="421" height="421" viewBox="0 0 421 421" fill="none" xmlns="http://www.w3.org/2000/svg">
<g filter="url(#filter0_d_2954_35057)">
<path d="M62.5269 343.855C62.5269 343.855 63.1568 343.962 64.2705 344.136C64.9005 344.243 65.4957 343.776 65.6013 343.146C65.6795 342.854 65.5666 342.573 65.4594 342.388C65.875 342.123 66.3804 341.758 66.8858 341.392C67.3912 341.027 67.5418 340.347 67.1696 339.745C66.8031 339.239 66.0718 339.043 65.5215 339.459C64.0502 340.504 62.938 341.145 62.3819 341.466C62.1966 341.573 62.1517 341.623 62.0561 341.629L59.658 343.209L62.5269 343.855ZM70.0749 344.945C71.959 345.17 73.9836 345.339 75.9126 345.513C76.5875 345.569 77.132 345.057 77.1421 344.433C77.1522 343.809 76.6844 343.214 76.0602 343.202C74.1312 343.028 72.2022 342.854 70.2732 342.68C69.6432 342.573 69.0481 343.04 68.9931 343.714C68.9989 343.81 68.9597 343.956 69.0104 344.001C69.135 344.473 69.5463 344.928 70.0749 344.945ZM69.9717 337.71C70.383 338.165 71.1086 338.267 71.6082 337.806C73.1577 336.468 74.6116 335.135 75.9192 333.763C76.3232 333.308 76.3724 332.538 75.9162 332.133C75.46 331.728 74.6896 331.678 74.2856 332.133C73.0228 333.454 71.6138 334.736 70.1092 336.024C69.7892 336.282 69.6719 336.721 69.6951 337.103C69.7125 337.39 69.8196 337.575 69.9717 337.71ZM78.2057 329.553C78.7068 329.907 79.4714 329.862 79.8697 329.311C81.115 327.703 82.2083 325.96 83.0656 324.279C83.3682 323.734 83.1813 323.025 82.5847 322.677C82.0387 322.373 81.2856 322.609 80.983 323.155C80.12 324.74 79.1164 326.382 77.9609 327.888C77.7364 328.141 77.7089 328.479 77.7263 328.765C77.7944 329.097 77.9522 329.328 78.2057 329.553ZM81.7836 345.839C83.7068 345.917 85.7256 345.99 87.643 345.973C88.2672 345.985 88.8117 345.473 88.7711 344.804C88.7812 344.18 88.2685 343.635 87.5994 343.674C85.682 343.691 83.7588 343.612 81.8356 343.534C81.2115 343.523 80.6669 344.034 80.6568 344.658C80.6626 344.754 80.6684 344.849 80.6742 344.945C80.7481 345.372 81.2043 345.777 81.7836 345.839ZM83.8777 319.484C84.5135 319.686 85.1145 319.315 85.3664 318.725C85.808 317.308 86.1092 315.947 86.309 314.497C86.3698 313.918 86.4813 313.384 86.5479 312.9C86.6535 312.271 86.2813 311.669 85.6007 311.518C84.9707 311.411 84.3697 311.782 84.2191 312.462C84.1077 312.996 84.0468 313.575 83.9861 314.154C83.8254 315.458 83.5184 316.723 83.1159 317.994C83.0319 318.191 83.0435 318.382 83.1 318.522C83.1739 318.95 83.4838 319.315 83.8777 319.484ZM82.0648 296.715C82.5427 296.687 82.9077 296.378 83.0756 295.985C84.0024 295.451 84.8163 294.635 85.562 293.488C85.9154 292.988 85.7734 292.229 85.2723 291.875C84.7712 291.521 84.0124 291.661 83.659 292.162C82.7337 293.511 81.7678 294.191 80.6324 294.45L80.9627 296.732L82.0648 296.715ZM86.4998 308.156C87.1356 308.358 87.7872 308.032 87.9943 307.492C88.6488 305.631 89.506 303.95 90.4314 302.601C90.7847 302.101 90.6427 301.342 90.1416 300.988C89.6405 300.634 88.8817 300.774 88.5284 301.275C87.4235 302.826 86.5271 304.653 85.7887 306.711C85.7047 306.908 85.7163 307.099 85.7279 307.29C85.8466 307.667 86.1059 307.987 86.4998 308.156ZM93.485 345.821C95.4473 345.754 97.4545 345.636 99.3154 345.478C99.9845 345.439 100.428 344.837 100.342 344.219C100.302 343.55 99.6991 343.106 99.0807 343.19C97.2198 343.348 95.2126 343.466 93.3459 343.528C92.6768 343.567 92.2279 344.073 92.2178 344.697C92.2236 344.793 92.2236 344.793 92.2294 344.888C92.4046 345.405 92.9115 345.855 93.485 345.821ZM87.8952 296.372C90.1443 296.288 92.1066 296.22 93.6866 296.175C94.3107 296.187 94.8045 295.63 94.8146 295.006C94.8247 294.382 94.2672 293.887 93.643 293.876C92.0123 293.876 90.05 293.944 87.801 294.028C87.1319 294.067 86.683 294.573 86.7236 295.242C86.7294 295.338 86.7294 295.338 86.7801 295.383C86.77 296.007 87.2769 296.457 87.8952 296.372ZM86.9535 288.755C87.4995 289.058 88.2525 288.822 88.5552 288.277C89.3284 286.793 90.2364 285.157 91.4194 283.313C91.7728 282.812 91.6308 282.054 91.0341 281.705C90.533 281.351 89.7742 281.491 89.4266 282.087C88.1987 283.982 87.2908 285.618 86.4277 287.203C86.2988 287.451 86.2655 287.692 86.3278 287.929C86.4466 288.305 86.6103 288.631 86.9535 288.755ZM92.628 298.492C92.9496 299.048 93.7258 299.194 94.2312 298.829C95.8488 297.822 97.2593 297.356 98.2035 297.108C98.58 296.99 98.9566 296.872 99.1926 296.81C99.3331 296.754 99.4287 296.749 99.5185 296.647C100.075 296.327 100.225 295.647 99.9036 295.09C99.5821 294.534 98.8507 294.337 98.2946 294.657C98.1093 294.764 97.8732 294.826 97.5416 294.893C96.5525 295.191 94.7596 295.681 92.9625 296.889C92.5469 297.154 92.3847 297.643 92.4586 298.07C92.5151 298.21 92.5715 298.351 92.628 298.492ZM105.179 344.893C106.894 344.697 108.653 344.449 110.311 344.112L110.975 343.977C111.593 343.892 112.036 343.291 111.9 342.628C111.815 342.009 111.212 341.565 110.549 341.7L109.886 341.835C108.272 342.122 106.513 342.369 104.849 342.611C104.23 342.695 103.737 343.252 103.873 343.915C103.873 343.915 103.873 343.915 103.924 343.96C104.009 344.579 104.561 344.978 105.179 344.893ZM93.0701 278.9C93.5263 279.304 94.291 279.259 94.6892 278.708C95.8506 277.297 97.1525 275.83 98.5108 274.503C98.9655 274.093 98.964 273.278 98.5078 272.873C98.0965 272.418 97.2811 272.418 96.8771 272.873C95.429 274.301 94.1272 275.768 92.876 277.281C92.6515 277.534 92.5792 277.921 92.5965 278.208C92.7095 278.489 92.8225 278.77 93.0701 278.9ZM101.101 270.562C101.513 271.018 102.238 271.119 102.744 270.753C103.064 270.495 103.384 270.236 103.704 269.977C104.894 269.044 106.04 268.162 107.286 267.369C107.843 267.048 107.987 266.273 107.621 265.767C107.299 265.21 106.523 265.064 106.018 265.429C104.726 266.273 103.44 267.212 102.205 268.195C101.885 268.454 101.565 268.713 101.2 269.022C100.88 269.28 100.762 269.719 100.786 270.101C100.887 270.191 100.949 270.427 101.101 270.562ZM115.363 341.992C115.544 342.605 116.096 343.004 116.759 342.869C118.698 342.419 120.586 341.924 122.469 341.334C123.081 341.154 123.423 340.463 123.242 339.85C123.061 339.237 122.369 338.894 121.756 339.074C119.969 339.659 118.126 340.103 116.187 340.553C115.619 340.682 115.271 341.278 115.363 341.992C115.357 341.897 115.357 341.897 115.363 341.992ZM110.733 264.097C111.01 264.704 111.696 264.951 112.258 264.726C113.938 263.956 115.77 263.321 117.563 262.832C118.175 262.652 118.568 262.005 118.387 261.392C118.205 260.78 117.558 260.386 116.946 260.566C115.012 261.111 113.085 261.752 111.309 262.528C110.843 262.748 110.54 263.293 110.62 263.816C110.626 263.911 110.676 263.956 110.733 264.097ZM126.53 338.697C126.755 339.259 127.448 339.602 128.01 339.378C129.886 338.692 131.707 337.865 133.432 337.044C134.038 336.769 134.284 336.083 134.008 335.476C133.731 334.869 133.045 334.621 132.438 334.897C130.758 335.667 128.983 336.443 127.201 337.123C126.684 337.298 126.382 337.843 126.461 338.366C126.473 338.557 126.479 338.652 126.53 338.697ZM123.06 261.741C124.915 261.488 126.782 261.426 128.705 261.504C129.329 261.516 129.874 261.004 129.884 260.38C129.894 259.756 129.381 259.211 128.757 259.2C126.738 259.127 124.731 259.245 122.78 259.503C122.162 259.588 121.668 260.144 121.754 260.763C121.754 260.763 121.754 260.763 121.759 260.858C121.935 261.375 122.441 261.825 123.06 261.741ZM137.126 333.902C137.447 334.458 138.179 334.655 138.735 334.334C140.448 333.322 142.11 332.265 143.671 331.119C144.177 330.753 144.277 330.028 143.955 329.471C143.589 328.965 142.863 328.864 142.307 329.185C140.791 330.281 139.173 331.287 137.505 332.249C137.089 332.513 136.877 332.957 136.956 333.48C136.968 333.671 137.024 333.812 137.126 333.902ZM134.346 261.988C137.152 262.398 139.015 263.056 139.459 263.269L141.61 264.725C142.111 265.079 142.87 264.939 143.223 264.438C143.577 263.938 143.435 263.179 142.934 262.825L140.834 261.414C139.387 260.492 134.831 259.705 134.786 259.756C134.156 259.649 133.561 260.116 133.455 260.745C133.416 260.891 133.422 260.987 133.478 261.128C133.501 261.51 133.862 261.92 134.346 261.988ZM146.656 327.346C147.067 327.802 147.838 327.852 148.292 327.442C149.746 326.109 151.194 324.681 152.502 323.309C152.906 322.854 152.86 322.09 152.403 321.685C151.947 321.28 151.183 321.325 150.779 321.78C149.522 323.197 148.163 324.524 146.704 325.761C146.384 326.019 146.266 326.458 146.334 326.79C146.442 326.975 146.549 327.161 146.656 327.346ZM154.636 318.964C155.138 319.318 155.852 319.228 156.25 318.677C157.4 317.075 158.499 315.428 159.496 313.69C159.799 313.145 159.612 312.437 159.066 312.133C158.52 311.83 157.812 312.015 157.509 312.56C156.601 314.196 155.547 315.793 154.442 317.345C154.218 317.598 154.19 317.935 154.208 318.222C154.225 318.508 154.383 318.739 154.636 318.964ZM146.502 267.89L151.349 271.106C151.85 271.46 152.609 271.319 152.963 270.819C153.316 270.318 153.174 269.56 152.673 269.205L147.826 265.99C147.325 265.636 146.566 265.776 146.212 266.277C146.084 266.524 146.005 266.816 146.023 267.103C146.04 267.39 146.249 267.665 146.502 267.89ZM160.601 308.974C161.192 309.227 161.894 308.945 162.146 308.355C162.902 306.584 163.652 304.718 164.256 302.812C164.457 302.177 164.13 301.525 163.494 301.322C162.858 301.12 162.207 301.446 162.005 302.081C161.396 303.892 160.691 305.707 159.98 307.428C159.896 307.624 159.862 307.866 159.925 308.102C159.948 308.485 160.207 308.805 160.601 308.974ZM156.242 274.27L161.089 277.486C161.59 277.84 162.349 277.7 162.702 277.199C163.055 276.699 162.913 275.94 162.412 275.586L157.565 272.37C157.064 272.016 156.305 272.157 155.952 272.657C155.823 272.904 155.745 273.197 155.762 273.483C155.78 273.77 155.943 274.096 156.242 274.27ZM164.444 298.005C165.074 298.112 165.675 297.741 165.831 297.156C166.244 295.262 166.657 293.367 166.917 291.338C167.023 290.708 166.555 290.112 165.925 290.005C165.295 289.899 164.7 290.365 164.594 290.995C164.328 292.929 163.96 294.773 163.497 296.622C163.458 296.769 163.469 296.96 163.475 297.055C163.6 297.528 163.96 297.938 164.444 298.005ZM166.34 286.576C167.015 286.632 167.515 286.171 167.57 285.497C167.696 283.619 167.822 281.741 167.846 279.774L167.856 279.15L167.209 278.756C166.708 278.402 165.949 278.543 165.596 279.043C165.377 279.392 165.355 279.824 165.519 280.151C165.483 281.927 165.396 283.659 165.259 285.345C165.264 285.441 165.27 285.536 165.276 285.632C165.356 286.155 165.812 286.559 166.34 286.576Z" fill="url(#paint0_linear_2954_35057)"/>
<path d="M150.115 270.554C150.115 270.554 125.081 264.259 118.49 282.103C111.899 299.947 109.685 319.595 101.618 323.379C101.618 323.379 151.954 326.171 157.087 276.378L150.115 270.554Z" fill="url(#paint1_linear_2954_35057)"/>
<path d="M168.394 174.175C168.394 174.175 133.629 150.124 120.819 156.722C108.703 162.879 51.9602 239.788 46.4075 247.24C46.1078 247.578 46.2118 247.972 46.5502 248.272C49.1734 250.599 52.6667 251.435 56.0633 250.674C72.408 246.91 120.944 235.328 134.455 227.088C150.826 217.158 168.394 174.175 168.394 174.175Z" fill="url(#paint2_linear_2954_35057)"/>
<path d="M71.2178 223.366C71.1235 223.132 71.2638 222.803 71.4137 222.634C71.7884 222.212 103.533 180.637 117.928 163.218C120.542 160.102 124.632 158.901 128.539 159.952C134.568 161.679 146.402 165.385 157.16 171.156C157.658 171.447 157.772 172.001 157.557 172.414C157.267 172.911 156.713 173.024 156.3 172.808C145.711 167.187 134.111 163.387 128.166 161.735C125.067 160.797 121.69 161.876 119.601 164.401C105.281 181.735 73.4516 223.235 73.1615 223.732C72.7869 224.154 72.2332 224.267 71.8101 223.892C71.4064 223.835 71.1526 223.61 71.2178 223.366Z" fill="#CAFDFF"/>
<path d="M242.741 238.325C242.741 238.325 271.521 269.294 266.9 282.855C262.558 295.759 194.666 363.077 188.013 369.553C187.714 369.891 187.31 369.834 186.897 369.619C184.273 367.291 182.869 363.932 183.144 360.553C184.456 343.905 188.964 294.166 195.123 279.554C202.704 261.976 242.741 238.325 242.741 238.325Z" fill="url(#paint3_linear_2954_35057)"/>
<path d="M207.173 340.967C207.154 340.648 207.219 340.404 207.444 340.151C207.818 339.729 244.302 302.357 259.374 285.54C261.547 283.09 262.057 279.618 260.757 276.652C258.249 270.956 252.86 259.985 245.708 250.319C245.36 249.86 245.481 249.212 245.866 248.949C246.325 248.602 246.973 248.724 247.236 249.109C254.124 258.39 259.315 268.732 262.463 275.751C264.047 279.421 263.426 283.7 260.728 286.741C245.571 303.484 209.097 341.014 208.798 341.352C208.423 341.774 207.86 341.728 207.437 341.352C207.277 341.362 207.183 341.127 207.173 340.967Z" fill="#CAFDFF"/>
<path d="M261.502 70.6959C243.893 81.3388 225.859 95.529 209.392 114.43C158.202 173.321 130.785 225.529 123.294 240.62C121.938 243.341 122.216 246.607 123.966 249.066C137.725 268.67 155.232 284.051 176.4 295.133C180.449 297.216 185.236 296.935 188.92 294.316C204.895 283.129 250.62 248.977 299.299 192.235C315.522 173.268 326.975 153.541 334.882 134.743C312.593 101.232 280.388 81.1121 261.502 70.6959Z" fill="url(#paint4_linear_2954_35057)"/>
<path d="M334.884 134.745C352.38 93.2078 353.11 56.42 352.769 44.1918C352.699 41.7143 350.593 39.9969 348.209 40.2973C336.047 41.7336 299.985 47.7786 261.514 70.8569C280.39 81.1136 312.595 101.233 334.884 134.745Z" fill="url(#paint5_linear_2954_35057)"/>
<path d="M286.04 110.24C303.807 125.597 306.64 151.432 292.368 167.944C278.097 184.456 252.125 185.393 234.359 170.036C216.592 154.679 213.759 128.844 228.031 112.332C242.302 95.8196 268.274 94.8832 286.04 110.24Z" fill="#ECEFF1"/>
<path d="M287.544 164.149C275.322 178.32 253.1 179.071 237.924 165.956C222.747 152.842 220.292 130.722 232.514 116.551C244.736 102.38 266.958 101.629 282.134 114.744C297.322 128.043 299.679 150.076 287.544 164.149Z" fill="url(#paint6_linear_2954_35057)"/>
<g clip-path="url(#clip0_2954_35057)">
<path d="M237.138 155.058L231.005 157.93L226.57 162.201L231.14 166.302L232.479 166.599L234.974 169.001L233.92 170.255L238.708 174.552L240.146 173.642L243.763 176.888C243.763 176.888 250.746 167.068 250.086 164.325C239.519 162.895 237.133 155.061 237.133 155.061" fill="white"/>
<path d="M244.337 170.91L241.557 174.545L240.288 173.406L244.337 170.91Z" fill="#2494D1"/>
<path d="M235.311 155.729C235.311 155.729 237.154 161.668 244.048 163.569C249.555 165.093 237.139 155.059 237.139 155.059L235.311 155.729Z" fill="#2494D1"/>
<path d="M242.106 178.792L238.223 175.307L240.15 173.635L243.768 176.882C243.768 176.882 242.666 178.186 242.109 178.795" fill="#EB2126"/>
<path d="M241.562 179.401L237.678 175.916C237.591 175.839 237.522 175.744 237.474 175.638C237.426 175.532 237.402 175.417 237.402 175.301C237.402 175.184 237.428 175.069 237.476 174.964C237.524 174.858 237.594 174.763 237.682 174.687L239.608 173.024C239.759 172.893 239.954 172.822 240.154 172.824C240.355 172.827 240.548 172.903 240.696 173.038L244.309 176.281C244.467 176.423 244.564 176.621 244.579 176.833C244.594 177.045 244.526 177.254 244.389 177.417C244.389 177.417 243.272 178.739 242.708 179.355C242.561 179.511 242.359 179.604 242.144 179.612C241.93 179.621 241.721 179.545 241.562 179.401ZM239.456 175.311L242.046 177.635C242.25 177.408 242.447 177.17 242.631 176.956L240.145 174.725L239.456 175.311Z" fill="#144A8F"/>
<path d="M251.119 166.088C251.119 166.088 256.998 164.946 260.327 169.722C263.657 174.498 267.003 172.985 267.003 172.985C267.003 172.985 258.022 178.775 254.553 171.842C254.553 171.842 254.756 173.273 254.919 174.621C252.271 174.332 250.194 173.708 248.865 169.375" fill="#2494D1"/>
<path d="M250.798 166.234C250.798 166.234 256.517 164.823 259.246 168.73C261.974 172.636 264.821 173.65 264.821 173.65C264.821 173.65 257.999 176.417 256.199 170.693C255.96 169.614 254.968 168.917 253.984 169.134C253 169.351 252.395 170.403 252.634 171.481C251.255 170.983 250.377 169.252 250.087 168.123" fill="white"/>
<path d="M237.792 156.574C237.792 156.574 239.189 155.867 237.141 155.06C235.093 154.253 226.33 162.022 226.33 162.022L227.019 162.64C227.397 162.979 228.22 163.588 228.531 163.189C228.531 163.189 230.875 160.672 232.335 159.404C233.868 158.413 237.792 156.574 237.792 156.574Z" fill="#2494D1"/>
<path d="M274.626 152.687C267.204 160.957 248.982 168.001 240.852 160.705C232.722 153.408 237.765 134.538 245.187 126.268C252.609 117.997 262.168 120.606 270.298 127.902C278.428 135.198 282.047 144.427 274.63 152.691" fill="white"/>
<path d="M240.306 161.312C231.844 153.718 236.838 134.345 244.577 125.721C251.53 117.973 261.101 118.549 270.845 127.292C280.588 136.036 282.185 145.495 275.237 153.236C267.494 161.856 248.768 168.907 240.306 161.312ZM269.753 128.499C265.509 124.691 254.682 116.9 245.79 126.809C238.651 134.764 233.742 153.227 241.397 160.097C249.052 166.966 266.878 160.096 274.017 152.141C282.907 142.235 273.996 132.307 269.753 128.499Z" fill="#144A8F"/>
<path d="M248.53 126.779C248.53 126.779 246.875 125.712 246.429 124.778C245.829 123.522 248.454 123.722 248.454 123.722L248.53 126.779Z" fill="#2494D1"/>
<path d="M266.066 139.731C264.412 141.574 262.641 141.096 259.577 139.914C256.987 137.59 253.095 131.418 254.749 129.575C256.404 127.732 263.45 131.354 266.039 133.678C268.629 136.002 267.717 137.882 266.062 139.727" fill="#2494D1"/>
<path d="M249.853 155.147C249.853 155.147 252.056 151.073 255.586 152.209C253.953 153.07 250.46 154.985 250.19 156.524C249.919 158.064 249.853 155.147 249.853 155.147Z" fill="#2494D1"/>
<path d="M240.306 161.312C231.844 153.718 236.838 134.345 244.577 125.721C251.53 117.973 261.101 118.549 270.845 127.292C280.588 136.036 282.185 145.495 275.237 153.236C267.494 161.856 248.768 168.907 240.306 161.312ZM269.753 128.499C265.509 124.691 254.682 116.9 245.79 126.809C238.651 134.764 233.742 153.227 241.397 160.097C249.052 166.966 266.878 160.096 274.017 152.141C282.907 142.235 273.996 132.307 269.753 128.499Z" fill="#144A8F"/>
<path d="M252.596 138.142C252.596 138.142 250.274 142.384 255.302 147.845C255.639 148.211 256.263 147.954 256.345 147.464C256.454 146.821 256.224 145.416 256.7 144.861C257.792 146.097 259.242 148.465 260.79 148.837C260.896 148.861 261.008 148.856 261.112 148.821C261.215 148.786 261.308 148.723 261.377 148.639C261.447 148.555 261.493 148.452 261.508 148.344C261.523 148.235 261.507 148.125 261.463 148.025C261.062 147.114 262.115 146.008 262.325 145.146" fill="#2494D1"/>
<path d="M253.758 137.172C253.758 137.172 250.766 141.459 258.062 147.108C258.128 146.215 258.203 145.262 258.873 144.478C260.095 145.85 261.775 147.432 263.55 147.195C262.87 146.329 262.521 144.897 262.777 143.858" fill="white"/>
<path d="M256.284 146.694C250.104 141.148 252.954 136.893 253.085 136.705C253.214 136.542 253.4 136.435 253.606 136.404C253.811 136.374 254.021 136.423 254.192 136.541C254.363 136.66 254.482 136.838 254.526 137.042C254.57 137.245 254.535 137.457 254.428 137.635C254.326 137.789 252.336 140.956 257.377 145.48L257.447 145.543C257.584 144.955 257.859 144.408 258.249 143.947C258.325 143.86 258.419 143.79 258.523 143.742C258.628 143.694 258.742 143.669 258.857 143.668C258.974 143.667 259.089 143.692 259.196 143.74C259.302 143.788 259.397 143.858 259.474 143.946C260.456 145.058 261.326 145.787 262.103 146.146C261.845 145.348 261.799 144.496 261.97 143.675C262.037 143.484 262.173 143.326 262.351 143.229C262.529 143.133 262.736 143.106 262.933 143.153C263.129 143.201 263.301 143.319 263.416 143.486C263.53 143.652 263.579 143.855 263.553 144.056C263.363 144.831 263.641 146.017 264.174 146.695C264.262 146.809 264.318 146.943 264.338 147.086C264.358 147.228 264.339 147.373 264.285 147.506C264.231 147.639 264.143 147.756 264.029 147.844C263.916 147.932 263.781 147.989 263.639 148.008C261.853 148.248 260.252 147.084 259.036 145.871C258.936 146.298 258.876 146.734 258.858 147.172C258.847 147.319 258.796 147.46 258.711 147.581C258.626 147.701 258.51 147.797 258.375 147.857C258.24 147.916 258.092 147.939 257.946 147.922C257.799 147.904 257.66 147.848 257.543 147.758C257.093 147.4 256.673 147.045 256.284 146.694Z" fill="#144A8F"/>
<path d="M267.682 139.955C266.602 141.159 262.58 141.546 260.068 139.291C257.556 137.037 257.506 132.996 258.586 131.792C259.666 130.589 275.238 116.899 277.751 119.155C280.265 121.41 268.76 138.753 267.682 139.955Z" fill="white"/>
<path d="M259.522 139.903C256.725 137.393 256.585 132.803 257.979 131.249C258.136 131.074 274.894 115.492 278.299 118.548C281.745 121.64 268.445 140.333 268.292 140.504C266.898 142.058 262.324 142.417 259.522 139.903ZM277.207 119.765C275.645 118.363 261.345 129.946 259.196 132.341C258.465 133.156 258.38 136.68 260.615 138.685C262.849 140.691 266.344 140.227 267.075 139.412C267.562 138.869 270.689 134.256 273.351 129.55C278.179 121.008 277.218 119.774 277.207 119.765Z" fill="#144A8F"/>
<path d="M246.522 159.885C246.296 160.265 246.071 159.45 245.426 159.066C244.78 158.682 243.951 158.87 244.18 158.498C244.41 158.126 245.338 157.741 245.985 158.124C246.632 158.506 246.747 159.506 246.519 159.888" fill="#144A8F"/>
<path d="M241.106 155.024C240.752 155.29 241.587 155.426 242.039 156.026C242.49 156.626 242.392 157.471 242.737 157.203C243.082 156.935 243.365 155.97 242.915 155.368C242.465 154.766 241.459 154.76 241.103 155.027" fill="#144A8F"/>
<path d="M259.124 123.302C259.124 123.302 257.126 118.297 253.61 115.527C249.363 117.884 247.65 122.515 249.025 126.153" fill="white"/>
<path d="M248.47 126.756C248.373 126.668 248.298 126.558 248.252 126.436C246.678 122.254 248.811 117.257 253.214 114.811C253.355 114.733 253.515 114.698 253.676 114.711C253.837 114.724 253.99 114.784 254.116 114.884C257.776 117.756 259.799 122.786 259.883 122.999C259.95 123.198 259.938 123.414 259.85 123.604C259.762 123.793 259.605 123.942 259.411 124.02C259.217 124.098 259 124.098 258.806 124.021C258.611 123.944 258.454 123.796 258.365 123.606C258.347 123.562 256.561 119.181 253.534 116.52C250.153 118.657 248.548 122.582 249.782 125.859C249.845 126.03 249.849 126.217 249.794 126.391C249.739 126.565 249.627 126.716 249.476 126.819C249.326 126.922 249.145 126.972 248.962 126.96C248.78 126.949 248.607 126.877 248.47 126.756Z" fill="#144A8F"/>
<path d="M252.733 118.856C252.196 119.292 250.388 121.515 250.945 124.707C250.945 124.736 250.957 124.765 250.976 124.787C250.996 124.809 251.023 124.823 251.052 124.828C251.081 124.832 251.111 124.825 251.136 124.81C251.161 124.794 251.18 124.77 251.189 124.741C251.365 124.304 251.595 123.891 251.873 123.51C251.89 123.488 251.913 123.471 251.938 123.462C251.964 123.452 251.993 123.45 252.02 123.456C252.047 123.462 252.072 123.475 252.092 123.494C252.111 123.513 252.126 123.537 252.132 123.564C252.201 123.837 252.34 124.111 252.831 124.395C252.868 124.416 252.909 124.428 252.951 124.43C252.994 124.432 253.036 124.424 253.075 124.407C253.113 124.39 253.147 124.364 253.174 124.331C253.201 124.298 253.22 124.259 253.229 124.218C253.26 123.996 253.334 123.783 253.448 123.59C253.469 123.559 253.497 123.532 253.529 123.513C253.561 123.493 253.597 123.481 253.635 123.477C253.672 123.473 253.71 123.478 253.746 123.49C253.781 123.502 253.814 123.522 253.84 123.549C254.539 124.223 255.022 124.818 255.763 124.9" fill="#2494D1"/>
<path d="M255.913 124.21C255.189 122.508 254.249 120.906 253.114 119.446L255.913 124.21Z" fill="white"/>
<path d="M255.367 124.817C255.274 124.732 255.201 124.628 255.154 124.512C254.459 122.884 253.558 121.352 252.473 119.954C252.349 119.783 252.296 119.57 252.324 119.361C252.352 119.152 252.461 118.962 252.626 118.83C252.792 118.699 253.002 118.637 253.212 118.656C253.422 118.676 253.617 118.776 253.755 118.936C254.94 120.458 255.921 122.129 256.672 123.905C256.738 124.076 256.745 124.265 256.692 124.44C256.639 124.616 256.528 124.769 256.378 124.874C256.227 124.979 256.046 125.03 255.862 125.02C255.679 125.01 255.505 124.938 255.367 124.817Z" fill="#144A8F"/>
<path d="M276.066 138.506C276.066 138.506 281.259 139.954 284.392 143.151C282.506 147.627 278.087 149.83 274.322 148.855" fill="white"/>
<path d="M273.783 149.471C273.648 149.349 273.557 149.184 273.525 149.004C273.494 148.824 273.524 148.639 273.61 148.478C273.696 148.316 273.834 148.189 274.001 148.115C274.168 148.041 274.355 148.025 274.532 148.07C277.92 148.94 281.654 146.925 283.411 143.337C280.437 140.58 275.894 139.308 275.849 139.296C275.651 139.228 275.487 139.088 275.389 138.903C275.292 138.718 275.269 138.502 275.325 138.301C275.381 138.099 275.512 137.927 275.692 137.819C275.871 137.712 276.085 137.676 276.289 137.721C276.508 137.783 281.731 139.266 284.98 142.581C285.093 142.696 285.169 142.842 285.199 143C285.23 143.158 285.212 143.322 285.15 143.47C283.189 148.107 278.455 150.771 274.127 149.655C273.999 149.623 273.881 149.559 273.783 149.471Z" fill="#144A8F"/>
<path d="M281.181 144.385C280.805 144.967 278.79 147.003 275.557 146.794C275.527 146.797 275.498 146.789 275.474 146.771C275.45 146.754 275.432 146.729 275.425 146.7C275.418 146.672 275.421 146.641 275.434 146.615C275.447 146.588 275.469 146.567 275.496 146.555C275.911 146.332 276.297 146.059 276.646 145.742C276.666 145.723 276.68 145.699 276.687 145.672C276.694 145.645 276.693 145.617 276.684 145.591C276.676 145.564 276.66 145.541 276.639 145.523C276.618 145.505 276.592 145.494 276.565 145.49C276.286 145.452 275.999 145.342 275.664 144.885C275.639 144.851 275.622 144.811 275.616 144.769C275.609 144.728 275.612 144.685 275.625 144.644C275.638 144.604 275.66 144.567 275.69 144.537C275.72 144.507 275.756 144.484 275.796 144.471C276.013 144.415 276.217 144.318 276.397 144.185C276.426 144.16 276.449 144.13 276.465 144.096C276.481 144.062 276.489 144.025 276.489 143.987C276.489 143.95 276.481 143.912 276.465 143.878C276.448 143.844 276.425 143.814 276.396 143.79C275.651 143.168 275.006 142.752 274.845 142.025" fill="#2494D1"/>
<path d="M275.51 141.798C277.281 142.333 278.975 143.096 280.549 144.067L275.51 141.798Z" fill="white"/>
<path d="M274.967 142.406C274.831 142.282 274.741 142.117 274.71 141.935C274.68 141.754 274.711 141.568 274.8 141.407C274.888 141.246 275.027 141.119 275.196 141.047C275.365 140.975 275.554 140.961 275.731 141.009C277.58 141.565 279.347 142.36 280.989 143.376C281.162 143.496 281.283 143.679 281.325 143.886C281.368 144.093 281.328 144.308 281.216 144.487C281.103 144.665 280.926 144.793 280.72 144.844C280.515 144.895 280.299 144.865 280.115 144.76C278.608 143.831 276.987 143.101 275.293 142.585C275.172 142.55 275.061 142.489 274.967 142.406Z" fill="#144A8F"/>
<path d="M260.673 162.848C256.116 164.809 251.374 163.958 250.078 160.949C248.782 157.941 251.428 153.91 255.983 151.948C260.539 149.986 265.284 150.836 266.579 153.846C267.873 156.857 265.23 160.887 260.673 162.848Z" fill="white"/>
<path d="M250.577 163.003C250.039 162.525 249.612 161.934 249.327 161.273C248.588 159.557 248.88 157.545 250.151 155.608C251.352 153.776 253.31 152.211 255.658 151.2C260.627 149.058 265.857 150.11 267.325 153.523C268.792 156.935 265.955 161.46 260.993 163.597C258.643 164.606 256.161 164.951 254.005 164.564C252.608 164.317 251.441 163.778 250.577 163.003ZM264.996 153.034C263.249 151.466 259.675 151.251 256.305 152.701C254.247 153.588 252.546 154.938 251.517 156.504C250.557 157.966 250.311 159.432 250.827 160.626C251.342 161.82 252.58 162.656 254.295 162.957C256.139 163.287 258.288 162.982 260.346 162.095C264.41 160.346 266.919 156.718 265.825 154.171C265.635 153.736 265.352 153.348 264.996 153.034Z" fill="#144A8F"/>
<path d="M259.229 158.195C258.763 158.714 258.154 159.084 257.478 159.257C256.803 159.43 256.091 159.399 255.433 159.168C254.775 158.936 254.2 158.515 253.782 157.957C253.363 157.399 253.119 156.73 253.081 156.033C253.043 155.337 253.213 154.645 253.568 154.044C253.923 153.444 254.448 152.963 255.077 152.661C255.706 152.359 256.41 152.251 257.101 152.35C257.792 152.448 258.437 152.749 258.957 153.215C259.652 153.839 260.071 154.715 260.122 155.648C260.173 156.582 259.851 157.497 259.227 158.193" fill="#144A8F"/>
<path d="M236.583 141.233C235.123 145.973 236.481 150.596 239.611 151.56C242.742 152.524 246.465 149.46 247.924 144.718C249.382 139.977 248.029 135.358 244.893 134.391C241.756 133.424 238.04 136.492 236.582 141.234" fill="white"/>
<path d="M237.518 151.283C236.654 150.508 235.993 149.406 235.594 148.042C234.978 145.94 235.055 143.433 235.803 140.99C237.398 135.821 241.577 132.515 245.136 133.61C248.694 134.705 250.294 139.795 248.703 144.957C247.951 147.401 246.604 149.515 244.913 150.906C243.124 152.379 241.155 152.887 239.37 152.338C238.683 152.126 238.051 151.766 237.518 151.283ZM245.875 135.874C245.525 135.554 245.108 135.314 244.655 135.172C242.005 134.359 238.669 137.245 237.365 141.471C236.706 143.613 236.635 145.782 237.162 147.582C237.649 149.267 238.606 150.401 239.854 150.778C241.102 151.156 242.526 150.759 243.878 149.648C245.324 148.456 246.484 146.621 247.142 144.478C248.219 140.97 247.623 137.442 245.875 135.874Z" fill="#144A8F"/>
<path d="M236.583 141.233C235.123 145.973 236.481 150.596 239.611 151.56C242.742 152.524 246.465 149.46 247.924 144.718C249.382 139.977 248.029 135.358 244.893 134.391C241.756 133.424 238.04 136.492 236.582 141.234" fill="white"/>
<path d="M237.518 151.283C236.654 150.508 235.993 149.406 235.594 148.042C234.978 145.94 235.055 143.433 235.803 140.99C237.398 135.821 241.577 132.515 245.136 133.61C248.694 134.705 250.294 139.795 248.703 144.957C247.951 147.401 246.604 149.515 244.913 150.906C243.124 152.379 241.155 152.887 239.37 152.338C238.683 152.126 238.051 151.766 237.518 151.283ZM245.875 135.874C245.525 135.554 245.108 135.314 244.655 135.172C242.005 134.359 238.669 137.245 237.365 141.471C236.706 143.613 236.635 145.782 237.162 147.582C237.649 149.267 238.606 150.401 239.854 150.778C241.102 151.156 242.526 150.759 243.878 149.648C245.324 148.456 246.484 146.621 247.142 144.478C248.219 140.97 247.623 137.442 245.875 135.874Z" fill="#144A8F"/>
<path d="M241.37 142.168C240.904 142.687 240.602 143.332 240.503 144.023C240.403 144.713 240.511 145.418 240.812 146.047C241.113 146.676 241.594 147.202 242.194 147.558C242.794 147.914 243.486 148.084 244.183 148.046C244.879 148.009 245.549 147.766 246.108 147.348C246.666 146.929 247.088 146.355 247.32 145.697C247.551 145.039 247.583 144.327 247.41 143.651C247.237 142.975 246.868 142.366 246.349 141.9C245.653 141.276 244.738 140.953 243.804 141.003C242.87 141.053 241.995 141.472 241.37 142.168Z" fill="#144A8F"/>
<path d="M246.627 146.886C246.161 147.405 245.552 147.775 244.876 147.948C244.2 148.122 243.488 148.09 242.83 147.859C242.172 147.627 241.597 147.205 241.179 146.647C240.76 146.089 240.517 145.419 240.479 144.722C240.441 144.026 240.611 143.334 240.967 142.733C241.323 142.133 241.849 141.652 242.478 141.351C243.107 141.05 243.812 140.942 244.503 141.041C245.193 141.14 245.839 141.442 246.358 141.909C247.053 142.533 247.472 143.408 247.522 144.342C247.573 145.275 247.251 146.19 246.627 146.886Z" fill="#144A8F"/>
<path d="M247.849 145.493C247.578 145.794 247.225 146.008 246.832 146.109C246.44 146.209 246.027 146.191 245.645 146.056C245.263 145.922 244.93 145.677 244.687 145.353C244.444 145.029 244.303 144.64 244.281 144.236C244.26 143.832 244.358 143.43 244.564 143.082C244.771 142.734 245.076 142.454 245.441 142.28C245.806 142.105 246.215 142.042 246.616 142.099C247.016 142.157 247.391 142.332 247.692 142.602C248.096 142.965 248.34 143.473 248.369 144.015C248.398 144.557 248.211 145.089 247.849 145.493Z" fill="white"/>
<path d="M241.875 153.171C241.071 153.302 240.345 153.729 239.841 154.368C239.336 155.008 239.09 155.813 239.149 156.625C239.242 157.808 240.318 159.426 240.98 160.132C240.98 160.132 236.057 155.093 236.612 150.932C238.079 150.83 241.019 151.538 242.287 151.314C243.555 151.09 246.124 150.75 246.3 152.233" fill="#2494D1"/>
<path d="M245.644 151.292C245.644 151.292 251.751 146.497 248.872 140.974C247.917 143.92 245.741 150.24 243.271 151.126C240.801 152.012 245.644 151.292 245.644 151.292Z" fill="#2494D1"/>
<path d="M240.305 161.31C237.388 158.692 235.855 154.498 235.869 149.18C235.87 149.087 235.887 148.994 235.918 148.905C235.027 146.747 234.922 143.886 235.803 140.992C237.398 135.822 241.58 132.516 245.137 133.61C246.922 134.158 248.265 135.686 248.916 137.909C249.534 140.012 249.455 142.518 248.707 144.96C247.969 147.358 246.67 149.358 245.133 150.702C246.461 150.678 247.746 151.17 248.719 152.074C249.692 152.979 250.276 154.225 250.35 155.551L250.583 159.649C250.581 159.857 250.5 160.056 250.357 160.207C250.213 160.357 250.018 160.448 249.81 160.459C249.603 160.471 249.398 160.404 249.239 160.27C249.079 160.137 248.977 159.948 248.951 159.741L248.718 155.64C248.667 154.716 248.251 153.85 247.562 153.231C246.873 152.613 245.967 152.293 245.042 152.341L241.03 152.55C240.994 152.551 240.958 152.55 240.922 152.547C240.398 152.565 239.875 152.495 239.373 152.342C238.716 152.137 238.11 151.794 237.594 151.337C237.871 154.335 238.807 157.772 241.396 160.095C241.557 160.24 241.655 160.443 241.666 160.66C241.678 160.877 241.603 161.089 241.458 161.251C241.313 161.412 241.11 161.51 240.893 161.521C240.676 161.533 240.464 161.458 240.302 161.313L240.305 161.31ZM237.367 141.471C236.039 145.78 237.155 149.947 239.856 150.778C242.504 151.593 245.84 148.707 247.153 144.486C247.811 142.346 247.883 140.175 247.356 138.376C246.863 136.696 245.906 135.562 244.664 135.179C242.015 134.364 238.678 137.252 237.374 141.478L237.367 141.471Z" fill="#144A8F"/>
<path d="M250.613 173.665C249.699 172.845 248.961 171.737 248.381 170.331C248.308 170.132 248.315 169.914 248.4 169.72C248.484 169.527 248.641 169.374 248.836 169.293C249.031 169.212 249.25 169.21 249.446 169.286C249.643 169.363 249.803 169.512 249.892 169.704C250.993 172.359 252.509 173.285 253.981 173.649C253.865 172.72 253.754 171.974 253.753 171.972C253.728 171.782 253.771 171.589 253.875 171.428C253.978 171.266 254.135 171.146 254.318 171.088C254.501 171.03 254.698 171.038 254.876 171.111C255.053 171.184 255.199 171.317 255.289 171.486C256.02 172.967 257.054 173.862 258.431 174.24C260.171 174.718 262.153 174.263 263.726 173.675C262.49 173.213 261.059 172.206 259.653 170.194C256.681 165.932 251.489 166.855 251.269 166.897C251.06 166.929 250.846 166.879 250.673 166.757C250.5 166.635 250.381 166.451 250.341 166.243C250.301 166.035 250.343 165.82 250.458 165.642C250.573 165.465 250.753 165.339 250.959 165.291C251.216 165.246 257.4 164.108 260.995 169.259C263.859 173.364 266.559 172.286 266.673 172.239C266.861 172.159 267.073 172.152 267.267 172.22C267.46 172.288 267.621 172.426 267.718 172.607C267.813 172.788 267.837 172.997 267.786 173.194C267.735 173.392 267.612 173.563 267.442 173.675C267.232 173.811 262.243 176.985 258.001 175.816C257.174 175.594 256.402 175.202 255.735 174.664C255.729 174.775 255.701 174.885 255.652 174.985C255.603 175.085 255.534 175.174 255.449 175.247C255.365 175.319 255.266 175.374 255.16 175.407C255.053 175.44 254.941 175.451 254.83 175.439C253.126 175.254 251.738 174.674 250.613 173.665Z" fill="#144A8F"/>
<path d="M231.161 167.108L226.178 162.637L224.327 164.699L229.31 169.171L231.161 167.108Z" fill="#EB2126"/>
<path d="M238.05 174.96L233.068 170.49L231.217 172.552L236.199 177.023L238.05 174.96Z" fill="#EB2126"/>
<path d="M233.386 174.983C233.224 174.838 233.127 174.635 233.115 174.418C233.104 174.201 233.178 173.989 233.324 173.827L234.078 172.986C234.223 172.825 234.426 172.727 234.643 172.716C234.86 172.704 235.073 172.779 235.234 172.924C235.396 173.069 235.493 173.272 235.505 173.489C235.517 173.706 235.442 173.918 235.297 174.08L234.542 174.921C234.397 175.082 234.194 175.18 233.977 175.192C233.76 175.203 233.548 175.128 233.386 174.983Z" fill="#144A8F"/>
<path d="M226.466 162.492C226.466 162.492 227.155 163.11 227.712 163.555C227.887 163.698 227.805 164.031 227.555 164.181C226.59 164.762 226.221 165.599 225.811 165.683C225.325 165.777 224.492 164.207 224.492 164.207L226.466 162.492Z" fill="#A62126"/>
<path d="M233.122 170.288C233.122 170.288 233.885 170.81 234.491 171.186C234.682 171.305 234.634 171.639 234.413 171.825C233.53 172.524 233.272 173.403 232.876 173.537C232.403 173.693 231.381 172.24 231.381 172.24L233.122 170.288Z" fill="#A62126"/>
<path d="M261.551 133.066C261.551 133.066 262.176 137.499 264.341 138.596C265.651 139.257 262.505 140.523 258.928 136.287C255.208 131.876 261.304 129.517 261.304 129.517L261.551 133.066Z" fill="#EB2126"/>
<path d="M266.098 129.123C265.77 130.077 267.054 133.116 268.68 134.416C268.789 134.5 268.866 134.619 268.899 134.752C268.932 134.886 268.92 135.027 268.863 135.152C268.159 136.682 266.934 138.071 266.125 138.347C265.345 138.604 259.681 131.265 262.219 128.379C264.758 125.492 265.954 126.463 265.954 126.463L266.098 129.123Z" fill="#EB2126"/>
<path d="M270.435 124.382C270.073 125.248 270.87 127.856 271.946 129.011C272.072 129.147 272.155 129.317 272.186 129.5C272.217 129.683 272.194 129.872 272.12 130.042C271.621 131.211 270.843 132.259 270.211 133.254C269.816 133.878 264.463 126.924 267 124.047C269.538 121.17 270.532 121.95 270.532 121.95L270.435 124.382Z" fill="#EB2126"/>
<path d="M264.872 138.259C262.93 136.516 261.919 134.137 261.582 133.228C260.962 131.538 260.558 129.368 261.259 128.32C261.385 128.151 261.572 128.038 261.78 128.003C261.988 127.968 262.201 128.015 262.375 128.133C262.549 128.252 262.671 128.433 262.715 128.639C262.76 128.845 262.722 129.061 262.612 129.24C262.438 129.516 262.433 130.914 263.205 132.891C263.627 133.971 265.252 137.563 268.446 138.439C268.555 138.462 268.658 138.507 268.749 138.572C268.84 138.636 268.917 138.718 268.974 138.814C269.032 138.909 269.07 139.015 269.086 139.125C269.101 139.235 269.094 139.348 269.065 139.455C269.036 139.563 268.985 139.663 268.915 139.75C268.846 139.837 268.759 139.909 268.661 139.962C268.563 140.014 268.455 140.046 268.344 140.055C268.233 140.065 268.121 140.051 268.015 140.016C266.845 139.684 265.768 139.083 264.872 138.259ZM268.618 133.371C267.353 132.187 266.393 130.715 265.819 129.08C265.281 127.614 264.929 125.723 265.554 124.804C265.679 124.633 265.865 124.517 266.074 124.48C266.283 124.444 266.498 124.49 266.673 124.609C266.849 124.727 266.971 124.91 267.015 125.117C267.059 125.324 267.021 125.541 266.909 125.72C266.782 125.975 266.796 127.296 267.583 129.1C268.045 130.158 269.379 132.689 271.79 133.346C271.988 133.412 272.154 133.552 272.252 133.736C272.351 133.921 272.375 134.136 272.32 134.338C272.265 134.54 272.134 134.713 271.956 134.821C271.777 134.93 271.564 134.967 271.359 134.923C270.337 134.626 269.399 134.094 268.618 133.371Z" fill="#144A8F"/>
<path d="M274.35 126.339C274.268 126.491 274.131 126.605 273.967 126.658C273.803 126.711 273.625 126.699 273.469 126.624C272.848 126.365 272.269 126.012 271.755 125.578C269.989 124.067 271.167 121.335 271.167 121.335C271.167 121.335 275.458 117.911 276.938 119.314C277.441 119.79 275.416 124.366 274.348 126.34" fill="#EB2126"/>
<path d="M259.522 139.902C256.725 137.392 256.585 132.802 257.979 131.248C258.072 131.145 264.383 125.271 270.045 121.426C270.101 121.375 270.164 121.334 270.231 121.301C273.757 118.929 277 117.381 278.299 118.547C281.745 121.639 268.445 140.333 268.292 140.504C266.898 142.057 262.324 142.416 259.522 139.902ZM269.722 123.674C265.31 126.865 260.384 131.014 259.195 132.339C258.463 133.154 258.378 136.678 260.613 138.684C262.848 140.689 266.342 140.225 267.073 139.41C267.56 138.868 270.688 134.255 273.35 129.548C273.409 129.445 273.466 129.342 273.523 129.241C272.061 128.48 270.813 126.975 270.095 125.02C269.934 124.582 269.81 124.132 269.722 123.674ZM271.264 122.583C271.226 122.978 271.359 124.043 271.989 125.288C272.356 126.019 273.114 127.227 274.307 127.813C278.049 120.833 277.215 119.774 277.205 119.766C276.613 119.231 274.175 120.578 271.266 122.581L271.264 122.583Z" fill="#144A8F"/>
<path d="M260.45 156.802C260.18 157.103 259.826 157.317 259.434 157.418C259.042 157.518 258.629 157.5 258.247 157.365C257.865 157.231 257.532 156.986 257.289 156.662C257.046 156.338 256.905 155.949 256.883 155.545C256.861 155.141 256.96 154.739 257.166 154.391C257.372 154.043 257.677 153.764 258.043 153.589C258.408 153.414 258.816 153.351 259.217 153.409C259.618 153.466 259.993 153.641 260.294 153.911C260.698 154.274 260.941 154.782 260.971 155.324C261 155.866 260.813 156.398 260.45 156.802Z" fill="white"/>
<path d="M238.982 162.838L239.153 162.755C239.78 163.133 240.244 164.19 240.01 164.883L238.906 167.489C238.757 167.841 238.508 168.143 238.191 168.357L234.553 170.821L237.501 166.938L238.982 162.838Z" fill="#2494D1"/>
<path d="M226.237 167.351C226.075 167.206 225.978 167.003 225.966 166.786C225.954 166.569 226.029 166.357 226.174 166.195L226.845 165.447C226.99 165.286 227.194 165.188 227.41 165.177C227.627 165.165 227.84 165.24 228.001 165.385C228.163 165.53 228.26 165.733 228.272 165.95C228.284 166.167 228.209 166.379 228.064 166.541L227.393 167.289C227.248 167.45 227.044 167.548 226.828 167.56C226.611 167.571 226.398 167.496 226.237 167.351ZM230.592 166.912L226.022 162.81C225.86 162.665 225.763 162.462 225.751 162.245C225.739 162.028 225.814 161.816 225.959 161.654C226.104 161.493 226.307 161.395 226.524 161.383C226.741 161.372 226.954 161.447 227.115 161.592L231.685 165.693C231.847 165.838 231.944 166.041 231.956 166.258C231.968 166.475 231.893 166.687 231.748 166.849C231.603 167.011 231.399 167.108 231.183 167.12C230.966 167.132 230.753 167.057 230.592 166.912Z" fill="#144A8F"/>
<path d="M237.71 174.744L233.377 170.856C233.216 170.711 233.119 170.507 233.107 170.29C233.095 170.074 233.17 169.861 233.315 169.699C233.46 169.538 233.663 169.44 233.88 169.429C234.097 169.417 234.31 169.492 234.471 169.637L238.804 173.525C238.965 173.67 239.063 173.873 239.074 174.09C239.086 174.307 239.011 174.52 238.866 174.681C238.721 174.843 238.518 174.94 238.301 174.952C238.084 174.964 237.872 174.889 237.71 174.744Z" fill="#144A8F"/>
<path d="M238.67 163.95C238.728 165.011 238.315 167.429 237.553 167.468C236.791 167.508 235.842 166.004 235.789 164.948C235.736 163.891 236.229 162.971 236.99 162.932C237.51 164.011 238.613 162.889 238.67 163.95Z" fill="#2494D1"/>
<path d="M228.297 169.355L223.647 165.183C223.564 165.108 223.497 165.017 223.45 164.915C223.403 164.814 223.377 164.703 223.375 164.591C223.373 164.479 223.393 164.368 223.436 164.264C223.478 164.16 223.542 164.066 223.622 163.988L230.436 157.339C230.493 157.284 230.559 157.237 230.63 157.2L236.897 153.933C237.088 153.845 237.306 153.834 237.505 153.902C237.704 153.97 237.869 154.112 237.966 154.299C238.063 154.485 238.084 154.702 238.026 154.904C237.968 155.106 237.834 155.278 237.653 155.384L231.496 158.591L225.389 164.551L228.792 167.605L232.406 163.752C232.48 163.674 232.57 163.611 232.668 163.567L235.871 162.143C235.97 162.093 236.078 162.064 236.189 162.057C236.3 162.05 236.41 162.065 236.515 162.102C236.619 162.139 236.715 162.197 236.797 162.272C236.878 162.347 236.943 162.438 236.989 162.539C237.034 162.641 237.058 162.75 237.06 162.861C237.062 162.972 237.041 163.082 236.999 163.184C236.957 163.287 236.894 163.38 236.815 163.457C236.736 163.535 236.642 163.596 236.539 163.636L233.494 164.998L229.445 169.313C229.298 169.47 229.094 169.562 228.88 169.569C228.665 169.577 228.455 169.5 228.297 169.355Z" fill="#144A8F"/>
<path d="M234.978 168.992L231.835 166.171L230.145 168.054L233.288 170.874L234.978 168.992Z" fill="#EB2126"/>
<path d="M232.743 171.486L229.6 168.666C229.439 168.521 229.341 168.318 229.33 168.101C229.318 167.884 229.393 167.672 229.538 167.51L231.228 165.627C231.373 165.465 231.576 165.368 231.793 165.356C232.01 165.345 232.222 165.42 232.384 165.565L235.526 168.385C235.688 168.53 235.785 168.733 235.797 168.95C235.809 169.167 235.734 169.379 235.589 169.541L233.898 171.425C233.753 171.586 233.55 171.683 233.333 171.695C233.117 171.706 232.904 171.631 232.743 171.486ZM231.302 167.993L233.227 169.721L233.826 169.054L231.901 167.326L231.302 167.993Z" fill="#144A8F"/>
<path d="M235.77 177.118L231.121 172.946C231.036 172.87 230.968 172.777 230.92 172.674C230.873 172.57 230.848 172.457 230.847 172.343C230.846 172.229 230.868 172.116 230.913 172.012C230.958 171.907 231.024 171.813 231.108 171.735L236.791 166.472L237.897 163.094C237.971 162.896 238.119 162.735 238.31 162.644C238.501 162.552 238.72 162.539 238.921 162.605C239.122 162.672 239.289 162.814 239.388 163.002C239.486 163.189 239.508 163.407 239.449 163.611L238.268 167.179C238.225 167.313 238.147 167.433 238.042 167.526L232.863 172.326L236.321 175.429L243.204 169.779C243.286 169.705 243.382 169.649 243.487 169.613C243.592 169.578 243.702 169.564 243.813 169.572C243.923 169.58 244.03 169.611 244.128 169.662C244.226 169.713 244.313 169.783 244.383 169.869C244.454 169.954 244.506 170.053 244.537 170.159C244.568 170.266 244.577 170.377 244.563 170.487C244.55 170.596 244.515 170.702 244.459 170.798C244.404 170.894 244.33 170.977 244.242 171.044L239.268 175.155C239.298 175.18 239.328 175.206 239.356 175.234L240.131 175.93C240.281 175.841 240.456 175.801 240.63 175.818C240.804 175.835 240.968 175.907 241.098 176.024C241.228 176.141 241.317 176.296 241.353 176.467C241.388 176.638 241.368 176.816 241.295 176.975L242.042 177.645C249.93 168.627 249.512 163.912 249.505 163.864C249.48 163.65 249.541 163.434 249.674 163.264C249.807 163.094 250.002 162.984 250.217 162.957C250.429 162.931 250.643 162.989 250.813 163.119C250.983 163.248 251.095 163.439 251.127 163.65C251.156 163.875 251.779 169.249 242.716 179.347C242.571 179.509 242.368 179.606 242.151 179.618C241.934 179.63 241.722 179.555 241.56 179.41L238.258 176.446C238.166 176.364 238.093 176.262 238.046 176.149L236.83 177.148C236.679 177.269 236.489 177.333 236.295 177.328C236.101 177.322 235.915 177.248 235.77 177.118ZM231.277 169.637C231.115 169.492 231.018 169.289 231.006 169.072C230.995 168.855 231.07 168.642 231.215 168.481L231.333 168.348C231.478 168.187 231.682 168.089 231.899 168.078C232.115 168.066 232.328 168.141 232.49 168.286C232.651 168.431 232.749 168.634 232.76 168.851C232.772 169.068 232.697 169.28 232.552 169.442L232.43 169.578C232.285 169.738 232.082 169.834 231.866 169.845C231.65 169.857 231.438 169.782 231.277 169.637Z" fill="#144A8F"/>
<path d="M237.138 155.058L231.005 157.93L226.57 162.201L231.14 166.302L232.479 166.599L234.974 169.001L233.92 170.255L238.708 174.552L240.146 173.642L243.763 176.888C243.763 176.888 250.746 167.068 250.086 164.325C239.519 162.895 237.133 155.061 237.133 155.061" fill="white"/>
<path d="M244.337 170.91L241.557 174.545L240.288 173.406L244.337 170.91Z" fill="#2494D1"/>
<path d="M231.161 167.108L226.178 162.637L224.327 164.699L229.31 169.171L231.161 167.108Z" fill="#EB2126"/>
<path d="M238.05 174.96L233.068 170.49L231.217 172.552L236.199 177.023L238.05 174.96Z" fill="#EB2126"/>
<path d="M233.386 174.983C233.224 174.838 233.127 174.635 233.115 174.418C233.104 174.201 233.178 173.989 233.324 173.827L234.078 172.986C234.223 172.825 234.426 172.727 234.643 172.716C234.86 172.704 235.073 172.779 235.234 172.924C235.396 173.069 235.493 173.272 235.505 173.489C235.517 173.706 235.442 173.918 235.297 174.08L234.542 174.921C234.397 175.082 234.194 175.18 233.977 175.192C233.76 175.203 233.548 175.128 233.386 174.983Z" fill="#144A8F"/>
<path d="M226.466 162.492C226.466 162.492 227.155 163.11 227.712 163.555C227.887 163.698 227.805 164.031 227.555 164.181C226.59 164.762 226.221 165.599 225.811 165.683C225.325 165.777 224.492 164.207 224.492 164.207L226.466 162.492Z" fill="#A62126"/>
<path d="M233.122 170.288C233.122 170.288 233.885 170.81 234.491 171.186C234.682 171.305 234.634 171.639 234.413 171.825C233.53 172.524 233.272 173.403 232.876 173.537C232.403 173.693 231.381 172.24 231.381 172.24L233.122 170.288Z" fill="#A62126"/>
<path d="M261.551 133.066C261.551 133.066 262.176 137.499 264.341 138.596C265.651 139.257 262.505 140.523 258.928 136.287C255.208 131.876 261.304 129.517 261.304 129.517L261.551 133.066Z" fill="#EB2126"/>
<path d="M266.098 129.123C265.77 130.077 267.054 133.116 268.68 134.416C268.789 134.5 268.866 134.619 268.899 134.752C268.932 134.886 268.92 135.027 268.863 135.152C268.159 136.682 266.934 138.071 266.125 138.347C265.345 138.604 259.681 131.265 262.219 128.379C264.758 125.492 265.954 126.463 265.954 126.463L266.098 129.123Z" fill="#EB2126"/>
<path d="M270.435 124.382C270.073 125.248 270.87 127.856 271.946 129.011C272.072 129.147 272.155 129.317 272.186 129.5C272.217 129.683 272.194 129.872 272.12 130.042C271.621 131.211 270.843 132.259 270.211 133.254C269.816 133.878 264.463 126.924 267 124.047C269.538 121.17 270.532 121.95 270.532 121.95L270.435 124.382Z" fill="#EB2126"/>
<path d="M264.872 138.259C262.93 136.516 261.919 134.137 261.582 133.228C260.962 131.538 260.558 129.368 261.259 128.32C261.385 128.151 261.572 128.038 261.78 128.003C261.988 127.968 262.201 128.015 262.375 128.133C262.549 128.252 262.671 128.433 262.715 128.639C262.76 128.845 262.722 129.061 262.612 129.24C262.438 129.516 262.433 130.914 263.205 132.891C263.627 133.971 265.252 137.563 268.446 138.439C268.555 138.462 268.658 138.507 268.749 138.572C268.84 138.636 268.917 138.718 268.974 138.814C269.032 138.909 269.07 139.015 269.086 139.125C269.101 139.235 269.094 139.348 269.065 139.455C269.036 139.563 268.985 139.663 268.915 139.75C268.846 139.837 268.759 139.909 268.661 139.962C268.563 140.014 268.455 140.046 268.344 140.055C268.233 140.065 268.121 140.051 268.015 140.016C266.845 139.684 265.768 139.083 264.872 138.259ZM268.618 133.371C267.353 132.187 266.393 130.715 265.819 129.08C265.281 127.614 264.929 125.723 265.554 124.804C265.679 124.633 265.865 124.517 266.074 124.48C266.283 124.444 266.498 124.49 266.673 124.609C266.849 124.727 266.971 124.91 267.015 125.117C267.059 125.324 267.021 125.541 266.909 125.72C266.782 125.975 266.796 127.296 267.583 129.1C268.045 130.158 269.379 132.689 271.79 133.346C271.988 133.412 272.154 133.552 272.252 133.736C272.351 133.921 272.375 134.136 272.32 134.338C272.265 134.54 272.134 134.713 271.956 134.821C271.777 134.93 271.564 134.967 271.359 134.923C270.337 134.626 269.399 134.094 268.618 133.371Z" fill="#144A8F"/>
<path d="M274.35 126.339C274.268 126.491 274.131 126.605 273.967 126.658C273.803 126.711 273.625 126.699 273.469 126.624C272.848 126.365 272.269 126.012 271.755 125.578C269.989 124.067 271.167 121.335 271.167 121.335C271.167 121.335 275.458 117.911 276.938 119.314C277.441 119.79 275.416 124.366 274.348 126.34" fill="#EB2126"/>
<path d="M259.522 139.902C256.725 137.392 256.585 132.802 257.979 131.248C258.072 131.145 264.383 125.271 270.045 121.426C270.101 121.375 270.164 121.334 270.231 121.301C273.757 118.929 277 117.381 278.299 118.547C281.745 121.639 268.445 140.333 268.292 140.504C266.898 142.057 262.324 142.416 259.522 139.902ZM269.722 123.674C265.31 126.865 260.384 131.014 259.195 132.339C258.463 133.154 258.378 136.678 260.613 138.684C262.848 140.689 266.342 140.225 267.073 139.41C267.56 138.868 270.688 134.255 273.35 129.548C273.409 129.445 273.466 129.342 273.523 129.241C272.061 128.48 270.813 126.975 270.095 125.02C269.934 124.582 269.81 124.132 269.722 123.674ZM271.264 122.583C271.226 122.978 271.359 124.043 271.989 125.288C272.356 126.019 273.114 127.227 274.307 127.813C278.049 120.833 277.215 119.774 277.205 119.766C276.613 119.231 274.175 120.578 271.266 122.581L271.264 122.583Z" fill="#144A8F"/>
<path d="M259.803 157.283C259.519 157.415 259.208 157.48 258.894 157.473C258.58 157.466 258.272 157.387 257.994 157.242C257.716 157.097 257.475 156.89 257.289 156.637C257.104 156.384 256.979 156.092 256.924 155.783C256.87 155.474 256.887 155.156 256.975 154.855C257.062 154.554 257.218 154.277 257.43 154.045C257.642 153.814 257.904 153.634 258.196 153.52C258.489 153.406 258.803 153.361 259.116 153.388C259.058 153.336 259.018 153.27 258.959 153.216C258.44 152.75 257.794 152.449 257.103 152.35C256.413 152.251 255.708 152.359 255.079 152.661C254.45 152.962 253.925 153.443 253.569 154.044C253.213 154.644 253.044 155.336 253.082 156.032C253.12 156.729 253.363 157.399 253.782 157.957C254.2 158.515 254.775 158.936 255.433 159.168C256.091 159.399 256.803 159.431 257.479 159.257C258.154 159.084 258.764 158.714 259.229 158.195C259.467 157.923 259.661 157.615 259.803 157.283Z" fill="#144A8F"/>
<path d="M238.982 162.838L239.153 162.755C239.78 163.133 240.244 164.19 240.01 164.883L238.906 167.489C238.757 167.841 238.508 168.143 238.191 168.357L234.553 170.821L237.501 166.938L238.982 162.838Z" fill="#2494D1"/>
<path d="M226.237 167.351C226.075 167.206 225.978 167.003 225.966 166.786C225.954 166.569 226.029 166.357 226.174 166.195L226.845 165.447C226.99 165.286 227.194 165.188 227.41 165.177C227.627 165.165 227.84 165.24 228.001 165.385C228.163 165.53 228.26 165.733 228.272 165.95C228.284 166.167 228.209 166.379 228.064 166.541L227.393 167.289C227.248 167.45 227.044 167.548 226.828 167.56C226.611 167.571 226.398 167.496 226.237 167.351ZM230.592 166.912L226.022 162.81C225.86 162.665 225.763 162.462 225.751 162.245C225.739 162.028 225.814 161.816 225.959 161.654C226.104 161.493 226.307 161.395 226.524 161.383C226.741 161.372 226.954 161.447 227.115 161.592L231.685 165.693C231.847 165.838 231.944 166.041 231.956 166.258C231.968 166.475 231.893 166.687 231.748 166.849C231.603 167.011 231.399 167.108 231.183 167.12C230.966 167.132 230.753 167.057 230.592 166.912Z" fill="#144A8F"/>
<path d="M237.71 174.744L233.377 170.856C233.216 170.711 233.119 170.507 233.107 170.29C233.095 170.074 233.17 169.861 233.315 169.699C233.46 169.538 233.663 169.44 233.88 169.429C234.097 169.417 234.31 169.492 234.471 169.637L238.804 173.525C238.965 173.67 239.063 173.873 239.074 174.09C239.086 174.307 239.011 174.52 238.866 174.681C238.721 174.843 238.518 174.94 238.301 174.952C238.084 174.964 237.872 174.889 237.71 174.744Z" fill="#144A8F"/>
<path d="M238.67 163.95C238.728 165.011 238.315 167.429 237.553 167.468C236.791 167.508 235.842 166.004 235.789 164.948C235.736 163.891 236.229 162.971 236.99 162.932C237.51 164.011 238.613 162.889 238.67 163.95Z" fill="#2494D1"/>
<path d="M228.297 169.355L223.647 165.183C223.564 165.108 223.497 165.017 223.45 164.915C223.403 164.814 223.377 164.703 223.375 164.591C223.373 164.479 223.393 164.368 223.436 164.264C223.478 164.16 223.542 164.066 223.622 163.988L230.436 157.339C230.493 157.284 230.559 157.237 230.63 157.2L236.897 153.933C237.088 153.845 237.306 153.834 237.505 153.902C237.704 153.97 237.869 154.112 237.966 154.299C238.063 154.485 238.084 154.702 238.026 154.904C237.968 155.106 237.834 155.278 237.653 155.384L231.496 158.591L225.389 164.551L228.792 167.605L232.406 163.752C232.48 163.674 232.57 163.611 232.668 163.567L235.871 162.143C235.97 162.093 236.078 162.064 236.189 162.057C236.3 162.05 236.41 162.065 236.515 162.102C236.619 162.139 236.715 162.197 236.797 162.272C236.878 162.347 236.943 162.438 236.989 162.539C237.034 162.641 237.058 162.75 237.06 162.861C237.062 162.972 237.041 163.082 236.999 163.184C236.957 163.287 236.894 163.38 236.815 163.457C236.736 163.535 236.642 163.596 236.539 163.636L233.494 164.998L229.445 169.313C229.298 169.47 229.094 169.562 228.88 169.569C228.665 169.577 228.455 169.5 228.297 169.355Z" fill="#144A8F"/>
<path d="M234.978 168.992L231.835 166.171L230.145 168.054L233.288 170.874L234.978 168.992Z" fill="#EB2126"/>
<path d="M232.744 171.485L229.601 168.665C229.439 168.52 229.342 168.317 229.33 168.1C229.318 167.883 229.393 167.671 229.538 167.509L231.228 165.626C231.373 165.464 231.576 165.367 231.793 165.355C232.01 165.344 232.223 165.419 232.384 165.564L235.527 168.384C235.689 168.529 235.786 168.732 235.798 168.949C235.809 169.166 235.734 169.378 235.589 169.54L233.898 171.424C233.753 171.585 233.55 171.682 233.334 171.694C233.117 171.705 232.905 171.63 232.744 171.485ZM231.302 167.992L233.228 169.72L233.827 169.053L231.901 167.325L231.302 167.992Z" fill="#144A8F"/>
<path d="M235.771 177.118L231.122 172.945C231.037 172.869 230.969 172.777 230.921 172.673C230.874 172.569 230.849 172.457 230.848 172.343C230.846 172.229 230.869 172.116 230.914 172.011C230.959 171.906 231.025 171.812 231.109 171.734L236.792 166.471L237.898 163.094C237.972 162.896 238.12 162.734 238.311 162.643C238.502 162.552 238.721 162.538 238.922 162.605C239.123 162.672 239.29 162.814 239.389 163.001C239.487 163.188 239.509 163.407 239.45 163.61L238.269 167.178C238.226 167.312 238.148 167.432 238.043 167.525L232.864 172.325L236.322 175.428L243.204 169.779C243.287 169.705 243.383 169.648 243.488 169.613C243.592 169.577 243.703 169.563 243.814 169.571C243.924 169.58 244.031 169.61 244.129 169.661C244.227 169.712 244.314 169.783 244.384 169.868C244.455 169.954 244.507 170.052 244.538 170.159C244.569 170.265 244.578 170.376 244.564 170.486C244.551 170.596 244.516 170.702 244.46 170.797C244.405 170.893 244.331 170.977 244.243 171.043L239.269 175.154C239.299 175.179 239.329 175.206 239.357 175.234L240.132 175.929C240.282 175.84 240.457 175.801 240.631 175.818C240.805 175.834 240.969 175.906 241.099 176.023C241.229 176.14 241.318 176.295 241.354 176.466C241.389 176.637 241.369 176.815 241.296 176.974L242.043 177.644C249.931 168.626 249.513 163.911 249.506 163.863C249.481 163.649 249.542 163.433 249.675 163.264C249.808 163.094 250.003 162.983 250.218 162.957C250.43 162.931 250.644 162.988 250.814 163.118C250.984 163.247 251.096 163.438 251.128 163.65C251.157 163.874 251.78 169.248 242.717 179.347C242.572 179.508 242.369 179.606 242.152 179.617C241.935 179.629 241.723 179.554 241.561 179.409L238.258 176.445C238.167 176.363 238.094 176.262 238.047 176.148L236.831 177.147C236.68 177.269 236.49 177.332 236.296 177.327C236.102 177.322 235.916 177.247 235.771 177.118ZM231.278 169.636C231.116 169.491 231.019 169.288 231.007 169.071C230.996 168.854 231.07 168.642 231.216 168.48L231.334 168.348C231.479 168.186 231.683 168.089 231.9 168.077C232.116 168.065 232.329 168.14 232.491 168.285C232.652 168.43 232.75 168.633 232.761 168.85C232.773 169.067 232.698 169.28 232.553 169.441L232.431 169.577C232.286 169.737 232.083 169.834 231.867 169.845C231.651 169.856 231.439 169.781 231.278 169.636Z" fill="#144A8F"/>
</g>
<path d="M236.383 171.093C255.001 185.441 280.93 183.013 294.297 165.669C307.664 148.324 303.407 122.632 284.789 108.284C266.171 93.9349 240.243 96.3633 226.875 113.708C213.508 131.052 217.765 156.744 236.383 171.093ZM280.781 113.485C296.315 125.457 299.867 146.894 288.714 161.366C277.561 175.837 255.926 177.864 240.392 165.891C224.857 153.919 221.305 132.482 232.459 118.01C243.612 103.539 265.246 101.513 280.781 113.485Z" fill="#ECEFF1"/>
<path d="M244.116 119.01C244.004 118.585 244.236 118.138 244.571 117.946C254.07 112.026 266.939 113.171 275.703 120.783C277.897 122.729 279.847 124.949 281.383 127.453C281.759 127.95 281.537 128.568 281.041 128.943C280.545 129.318 279.926 129.095 279.55 128.599C278.197 126.257 276.429 124.199 274.337 122.506C266.213 115.462 254.47 114.337 245.72 119.781C245.224 120.156 244.605 119.933 244.229 119.436C244.218 119.264 244.208 119.091 244.116 119.01Z" fill="#BDD0FB" fill-opacity="0.5"/>
<path d="M229.214 218.629C220.541 228.746 204.566 229.366 193.744 219.916C182.848 210.55 181.167 194.718 189.841 184.601C198.514 174.485 214.489 173.864 225.31 183.314C236.207 192.68 237.888 208.512 229.214 218.629Z" fill="#ECEFF1"/>
<path d="M226.12 215.13C219.16 223.144 206.461 223.652 197.84 216.154C189.219 208.656 187.816 196.09 194.775 188.075C201.735 180.06 214.434 179.553 223.056 187.051C231.752 194.464 233.155 207.03 226.12 215.13Z" fill="url(#paint7_linear_2954_35057)"/>
<path d="M201.581 189.43C201.477 189.036 201.692 188.623 202.002 188.444C207.862 184.737 215.907 185.385 221.407 190.264C222.761 191.466 223.965 192.836 224.944 194.459C225.292 194.919 225.087 195.491 224.628 195.839C224.168 196.186 223.595 195.98 223.247 195.52C222.362 194.131 221.328 192.911 220.143 191.86C215.245 187.665 208.241 187.037 202.991 190.227C202.531 190.575 201.958 190.368 201.61 189.908C201.591 189.589 201.506 189.514 201.581 189.43Z" fill="#BDD0FB"/>
</g>
<defs>
<filter id="filter0_d_2954_35057" x="36.231" y="40.2633" width="326.593" height="351.53" filterUnits="userSpaceOnUse" color-interpolation-filters="sRGB">
<feFlood flood-opacity="0" result="BackgroundImageFix"/>
<feColorMatrix in="SourceAlpha" type="matrix" values="0 0 0 0 0 0 0 0 0 0 0 0 0 0 0 0 0 0 127 0" result="hardAlpha"/>
<feOffset dy="12"/>
<feGaussianBlur stdDeviation="5"/>
<feComposite in2="hardAlpha" operator="out"/>
<feColorMatrix type="matrix" values="0 0 0 0 0.568627 0 0 0 0 0.701961 0 0 0 0 0.980392 0 0 0 0.2 0"/>
<feBlend mode="normal" in2="BackgroundImageFix" result="effect1_dropShadow_2954_35057"/>
<feBlend mode="normal" in="SourceGraphic" in2="effect1_dropShadow_2954_35057" result="shape"/>
</filter>
<linearGradient id="paint0_linear_2954_35057" x1="73.6062" y1="355.584" x2="77.66" y2="261.032" gradientUnits="userSpaceOnUse">
<stop stop-color="#E9605A"/>
<stop offset="0.463542" stop-color="#5B599B"/>
<stop offset="0.994792" stop-color="#68C4FF"/>
</linearGradient>
<linearGradient id="paint1_linear_2954_35057" x1="103.483" y1="325.034" x2="100.631" y2="273.002" gradientUnits="userSpaceOnUse">
<stop stop-color="#E9605A"/>
<stop offset="0.463542" stop-color="#5B599B"/>
<stop offset="0.994792" stop-color="#68C4FF"/>
</linearGradient>
<linearGradient id="paint2_linear_2954_35057" x1="63.8297" y1="263.603" x2="51.5421" y2="174.056" gradientUnits="userSpaceOnUse">
<stop stop-color="#E9605A"/>
<stop offset="0.463542" stop-color="#5B599B"/>
<stop offset="0.994792" stop-color="#68C4FF"/>
</linearGradient>
<linearGradient id="paint3_linear_2954_35057" x1="167.944" y1="352.804" x2="155.913" y2="263.671" gradientUnits="userSpaceOnUse">
<stop stop-color="#E9605A"/>
<stop offset="0.463542" stop-color="#5B599B"/>
<stop offset="0.994792" stop-color="#68C4FF"/>
</linearGradient>
<linearGradient id="paint4_linear_2954_35057" x1="146.73" y1="274.699" x2="302.75" y2="98.8461" gradientUnits="userSpaceOnUse">
<stop offset="0.21" stop-color="#DAE0F5"/>
<stop offset="0.37" stop-color="#CFD5EC"/>
<stop offset="1" stop-color="#A5ABCC"/>
</linearGradient>
<linearGradient id="paint5_linear_2954_35057" x1="297.899" y1="103.139" x2="321.988" y2="30.4361" gradientUnits="userSpaceOnUse">
<stop stop-color="#E9605A"/>
<stop offset="0.463542" stop-color="#5B599B"/>
<stop offset="0.994792" stop-color="#68C4FF"/>
</linearGradient>
<linearGradient id="paint6_linear_2954_35057" x1="232.809" y1="116.214" x2="287.23" y2="164.498" gradientUnits="userSpaceOnUse">
<stop stop-color="#163E7B"/>
<stop offset="0.34" stop-color="#1A3873"/>
<stop offset="0.76" stop-color="#252960"/>
<stop offset="1" stop-color="#2A2153"/>
</linearGradient>
<linearGradient id="paint7_linear_2954_35057" x1="194.96" y1="187.866" x2="225.928" y2="215.342" gradientUnits="userSpaceOnUse">
<stop stop-color="#163E7B"/>
<stop offset="0.34" stop-color="#1A3873"/>
<stop offset="0.76" stop-color="#252960"/>
<stop offset="1" stop-color="#2A2153"/>
</linearGradient>
<clipPath id="clip0_2954_35057">
<rect x="254.269" y="95.8831" width="64.232" height="63.8843" rx="16" transform="rotate(38.1107 254.269 95.8831)" fill="white"/>
</clipPath>
</defs>
</svg>
