<svg width="263" height="56" viewBox="0 0 263 56" fill="none" xmlns="http://www.w3.org/2000/svg">
<g clip-path="url(#clip0_1754_15701)">
<path d="M12.082 42.5187L10.0235 47.368L9.67482 52.1441H14.4509L15.3807 51.6204L18.0728 51.7143L18.1142 52.9879H23.118L23.4778 51.7143H27.2573C27.2573 51.7143 26.1986 42.4024 24.3916 41.1575C17.5315 45.819 12.0804 42.5234 12.0804 42.5234" fill="white"/>
<path d="M24.484 47.9554L24.7626 51.5041H23.4364L24.484 47.9554Z" fill="#2494D1"/>
<path d="M11.3719 43.8559C11.3719 43.8559 15.524 46.3363 20.5023 43.8559C24.4824 41.877 12.082 42.5186 12.082 42.5186L11.3719 43.8559Z" fill="#2494D1"/>
<path d="M27.2876 53.6772H23.2295L23.4762 51.7079H27.2573C27.2573 51.7079 27.2971 53.0356 27.2908 53.6772" fill="#EB2126"/>
<path d="M27.2876 54.3124H23.2295C23.139 54.3131 23.0494 54.2944 22.9667 54.2578C22.884 54.2211 22.8101 54.1672 22.7498 54.0997C22.6896 54.0323 22.6444 53.9527 22.6173 53.8664C22.5902 53.7801 22.5818 53.689 22.5926 53.5992L22.8442 51.6362C22.8637 51.4815 22.9393 51.3392 23.0567 51.2365C23.174 51.1338 23.325 51.0778 23.481 51.079H27.2573C27.4227 51.0789 27.5816 51.1432 27.7004 51.2581C27.8193 51.3731 27.8888 51.5298 27.8941 51.6951C27.8941 51.6951 27.9339 53.0404 27.9276 53.6899C27.9238 53.8569 27.8546 54.0157 27.7349 54.1321C27.6152 54.2485 27.4546 54.3133 27.2876 54.3124ZM23.9443 53.0388H26.6507C26.6507 52.8016 26.6412 52.5612 26.6364 52.3415H24.0382L23.9443 53.0388Z" fill="#144A8F"/>
<path d="M25.9041 41.6398C25.9041 41.6398 28.714 37.9256 33.1224 38.9604C37.5307 39.9952 38.6818 37.3811 38.6818 37.3811C38.6818 37.3811 36.4911 45.3986 30.8808 43.1873C30.8808 43.1873 31.7421 43.91 32.5365 44.6058C30.8537 45.8141 29.327 46.5321 26.3069 44.714" fill="#2494D1"/>
<path d="M25.7942 41.8914C25.7942 41.8914 28.3717 38.1039 31.9809 38.9477C35.59 39.7915 37.7648 38.8999 37.7648 38.8999C37.7648 38.8999 35.2525 44.0454 31.2374 41.6669C30.5385 41.167 29.6024 41.2784 29.1455 41.9153C28.6886 42.5521 28.8844 43.4755 29.5833 43.9754C28.5262 44.4036 27.1188 43.8576 26.3642 43.3545" fill="white"/>
<path d="M13.2474 43.0567C13.2474 43.0567 13.6884 41.9216 12.0836 42.5186C10.4788 43.1156 9.44238 52.1648 9.44238 52.1648H10.162C10.5568 52.1648 11.3496 52.09 11.3226 51.6967C11.3226 51.6967 11.3719 49.0221 11.5582 47.5304C11.9307 46.1596 13.2474 43.0567 13.2474 43.0567Z" fill="#2494D1"/>
<path d="M32.5508 21.6708C32.5508 30.314 25.6621 43.8575 17.1654 43.8575C8.66866 43.8575 1.78468 30.314 1.78468 21.6708C1.78468 13.0276 8.67344 9.57129 17.1702 9.57129C25.6669 9.57129 32.5556 13.034 32.5556 21.6708" fill="white"/>
<path d="M17.1654 44.4928C8.32159 44.4928 1.14786 30.6834 1.14786 21.6709C1.14786 13.5738 6.98746 8.93457 17.1701 8.93457C27.3528 8.93457 33.1908 13.5801 33.1908 21.6709C33.1861 30.6834 26.0091 44.4928 17.1654 44.4928ZM17.1654 10.2002C12.7299 10.2002 2.41512 11.3147 2.41512 21.6709C2.41512 29.9845 9.16537 43.2223 17.1654 43.2223C25.1654 43.2223 31.9156 29.9845 31.9156 21.6709C31.9156 11.3179 21.5992 10.2002 17.1654 10.2002Z" fill="#144A8F"/>
<path d="M3.98488 20.2301C3.98488 20.2301 2.47244 20.4721 1.72896 20.1632C0.729161 19.7477 2.35304 18.4995 2.35304 18.4995L3.98488 20.2301Z" fill="#2494D1"/>
<path d="M20.8653 18.6173C20.8653 20.5437 19.5916 21.1869 17.2036 22.0943C14.4971 22.0943 9.03801 20.5437 9.03801 18.6173C9.03801 16.6909 14.9986 15.1276 17.7051 15.1276C20.4115 15.1276 20.8605 16.6894 20.8605 18.6173" fill="#2494D1"/>
<path d="M19.4882 35.9641C19.4882 35.9641 18.6476 32.4617 21.2808 31.2852C20.7825 32.632 19.7556 35.555 20.3988 36.5866C21.042 37.6183 19.4882 35.9641 19.4882 35.9641Z" fill="#2494D1"/>
<path d="M17.1654 44.4928C8.32159 44.4928 1.14786 30.6834 1.14786 21.6709C1.14786 13.5738 6.98746 8.93457 17.1701 8.93457C27.3528 8.93457 33.1908 13.5801 33.1908 21.6709C33.1861 30.6834 26.0091 44.4928 17.1654 44.4928ZM17.1654 10.2002C12.7299 10.2002 2.41512 11.3147 2.41512 21.6709C2.41512 29.9845 9.16537 43.2223 17.1654 43.2223C25.1654 43.2223 31.9156 29.9845 31.9156 21.6709C31.9156 11.3179 21.5992 10.2002 17.1654 10.2002Z" fill="#144A8F"/>
<path d="M12.2412 24.6957C12.2412 24.6957 13.1009 28.3574 18.8482 28.9067C19.2334 28.9433 19.4611 28.4704 19.2541 28.1441C18.9835 27.7158 18.1206 27.0217 18.1079 26.4533C19.3815 26.6014 21.4511 27.2191 22.5401 26.63C22.6148 26.5891 22.6766 26.5281 22.7186 26.4539C22.7606 26.3798 22.7811 26.2954 22.7778 26.2103C22.7744 26.1251 22.7475 26.0426 22.6999 25.9719C22.6523 25.9012 22.5859 25.8452 22.5083 25.8101C21.803 25.4917 21.838 24.3041 21.5116 23.6959" fill="#2494D1"/>
<path d="M12.4115 23.5319C12.4115 23.5319 12.9067 27.5677 20.0645 27.0471C19.6394 26.4963 19.1873 25.9057 19.1682 25.1033C20.5883 25.2625 22.3825 25.3055 23.2868 24.2467C22.443 24.0987 21.4973 23.4507 21.1057 22.7168" fill="white"/>
<path d="M18.8195 27.7302C12.3606 27.7302 11.8002 23.7867 11.7779 23.61C11.7682 23.4486 11.8202 23.2895 11.9235 23.1651C12.0267 23.0407 12.1734 22.9602 12.3338 22.9399C12.4942 22.9196 12.6563 22.9612 12.7873 23.056C12.9182 23.1509 13.0081 23.292 13.0388 23.4508C13.0595 23.5925 13.553 26.4597 18.8211 26.4597H18.8943C18.6681 26.0482 18.5431 25.5887 18.5298 25.1192C18.5287 25.0295 18.5465 24.9406 18.5822 24.8583C18.6179 24.776 18.6705 24.7022 18.7367 24.6416C18.8041 24.5809 18.8838 24.5353 18.9703 24.5078C19.0567 24.4804 19.1481 24.4717 19.2382 24.4824C20.3845 24.6162 21.2665 24.5859 21.9033 24.3901C21.339 24.0624 20.8698 23.5932 20.5421 23.0289C20.4824 22.8834 20.4786 22.721 20.5315 22.5729C20.5844 22.4248 20.6902 22.3015 20.8286 22.2267C20.967 22.152 21.1281 22.1311 21.281 22.1681C21.4339 22.2051 21.5676 22.2974 21.6565 22.4271C21.9495 22.9748 22.7264 23.5161 23.3871 23.6323C23.497 23.6522 23.5998 23.7007 23.6851 23.773C23.7704 23.8452 23.8351 23.9386 23.8729 24.0438C23.9106 24.149 23.92 24.2622 23.9002 24.3722C23.8803 24.4822 23.8318 24.585 23.7596 24.6703C22.8505 25.737 21.319 25.8946 19.9849 25.8245C20.1487 26.1238 20.3406 26.4069 20.558 26.6699C20.6277 26.7609 20.6716 26.8691 20.6849 26.983C20.6982 27.0969 20.6805 27.2122 20.6338 27.3169C20.587 27.4216 20.5128 27.5117 20.419 27.5777C20.3253 27.6437 20.2154 27.6832 20.1011 27.692C19.6543 27.7185 19.2271 27.7312 18.8195 27.7302Z" fill="#144A8F"/>
<path d="M21.9176 17.9089C21.9176 19.1666 19.7907 21.4798 17.1654 21.4798C14.5401 21.4798 12.4115 19.1666 12.4115 17.9089C12.4115 16.6512 14.314 0.636841 16.9409 0.636841C19.5678 0.636841 21.9176 16.6528 21.9176 17.9089Z" fill="white"/>
<path d="M17.1654 22.1166C14.2424 22.1166 11.7763 19.5327 11.7763 17.9089C11.7763 17.7258 13.3827 0 16.9409 0C20.5421 0 22.5544 17.7305 22.5544 17.9089C22.5544 19.5327 20.0931 22.1166 17.1654 22.1166ZM16.9409 1.27204C15.3091 1.27204 13.0484 15.4062 13.0484 17.9089C13.0484 18.7606 14.8299 20.8446 17.1654 20.8446C19.5009 20.8446 21.2824 18.7606 21.2824 17.9089C21.2824 17.3421 20.6965 13.0468 19.7922 8.9393C18.1493 1.48697 16.952 1.27204 16.9409 1.27204Z" fill="#144A8F"/>
<path d="M20.0215 40.4378C20.0884 40.7753 19.5343 40.4203 18.9612 40.5333C18.3881 40.6464 18.006 41.1861 17.9455 40.8517C17.885 40.5174 18.2225 39.8121 18.7956 39.6975C19.3688 39.5829 19.9546 40.1019 20.0215 40.441" fill="#144A8F"/>
<path d="M14.3618 40.4378C14.2949 40.7753 14.849 40.4203 15.4221 40.5333C15.9952 40.6464 16.3773 41.1861 16.4378 40.8517C16.4983 40.5174 16.1608 39.8121 15.5877 39.6975C15.0145 39.5829 14.4287 40.1019 14.3618 40.441" fill="#144A8F"/>
<path d="M8.31204 12.714C8.31204 12.714 4.55482 10.8545 1.08099 11.0774C-0.152839 14.6483 1.26089 18.2193 3.94666 19.6107" fill="white"/>
<path d="M3.9387 20.2475C3.83678 20.2471 3.7364 20.2225 3.64577 20.1759C0.561989 18.5727 -0.799204 14.5719 0.479203 10.8688C0.520284 10.7505 0.595365 10.6469 0.695046 10.571C0.794727 10.4951 0.914579 10.4503 1.0396 10.4422C4.65035 10.2034 8.43462 12.0645 8.59383 12.1441C8.73538 12.2243 8.84086 12.3556 8.88864 12.5111C8.93642 12.6666 8.92286 12.8345 8.85076 12.9804C8.77865 13.1262 8.65347 13.2389 8.50089 13.2954C8.34831 13.3518 8.17991 13.3477 8.03025 13.284C7.99681 13.268 4.68696 11.6601 1.55224 11.6919C0.705273 14.685 1.81492 17.791 4.23164 19.0471C4.35734 19.1133 4.45732 19.2195 4.5157 19.349C4.57407 19.4785 4.58749 19.6237 4.55382 19.7617C4.52015 19.8997 4.44132 20.0224 4.32987 20.1105C4.21841 20.1985 4.08073 20.2468 3.9387 20.2475Z" fill="#144A8F"/>
<path d="M2.30209 13.4607C2.21771 13.9924 2.32597 16.2181 4.30647 17.7767C4.32222 17.7935 4.34342 17.8041 4.36629 17.8067C4.38916 17.8093 4.4122 17.8037 4.43132 17.7909C4.45044 17.7781 4.46439 17.7589 4.47068 17.7368C4.47697 17.7147 4.4752 17.691 4.46567 17.6701C4.34086 17.3253 4.25905 16.9665 4.22209 16.6018C4.22052 16.5803 4.22501 16.5589 4.23505 16.5399C4.24509 16.5209 4.26028 16.5051 4.27887 16.4943C4.29747 16.4835 4.31873 16.4781 4.34022 16.4788C4.36171 16.4796 4.38256 16.4863 4.4004 16.4983C4.58189 16.6209 4.80478 16.7069 5.23622 16.6161C5.26842 16.6092 5.29853 16.5947 5.32413 16.574C5.34972 16.5532 5.37008 16.5268 5.38356 16.4967C5.39704 16.4666 5.40326 16.4338 5.40173 16.4009C5.4002 16.368 5.39095 16.3359 5.37473 16.3073C5.27749 16.1628 5.20986 16.0004 5.17572 15.8296C5.17148 15.8007 5.17368 15.7711 5.18218 15.7431C5.19067 15.7151 5.20525 15.6893 5.22486 15.6675C5.24448 15.6458 5.26865 15.6286 5.29566 15.6173C5.32266 15.606 5.35184 15.6007 5.3811 15.602C6.13572 15.6291 6.72478 15.723 7.19602 15.3855" fill="#2494D1"/>
<path d="M6.92378 14.9079C5.6209 14.2983 4.24454 13.86 2.82906 13.604L6.92378 14.9079Z" fill="white"/>
<path d="M6.92378 15.5431C6.82617 15.5425 6.72991 15.5202 6.64199 15.4778C5.39427 14.896 4.07694 14.4771 2.72239 14.2312C2.56167 14.197 2.42041 14.1019 2.32814 13.966C2.23587 13.83 2.19973 13.6636 2.22728 13.5016C2.25482 13.3396 2.34393 13.1945 2.47596 13.0967C2.60798 12.9989 2.77272 12.9559 2.93572 12.9767C4.41242 13.2417 5.84796 13.6993 7.20557 14.3379C7.33299 14.4023 7.43508 14.5076 7.49546 14.637C7.55583 14.7663 7.57098 14.9122 7.53847 15.0513C7.50597 15.1903 7.4277 15.3143 7.31622 15.4035C7.20475 15.4927 7.06654 15.5418 6.92378 15.5431Z" fill="#144A8F"/>
<path d="M26.0171 12.714C26.0171 12.714 29.7759 10.8545 33.2498 11.0774C34.4836 14.6483 33.0699 18.2193 30.3841 19.6107" fill="white"/>
<path d="M30.392 20.2476C30.2499 20.2472 30.112 20.1992 30.0002 20.1113C29.8885 20.0234 29.8094 19.9006 29.7755 19.7625C29.7417 19.6245 29.755 19.4791 29.8133 19.3494C29.8717 19.2198 29.9717 19.1134 30.0975 19.0472C32.511 17.7911 33.6255 14.685 32.7785 11.6952C29.6247 11.6442 26.3339 13.2681 26.3021 13.284C26.1524 13.3478 25.984 13.3519 25.8314 13.2954C25.6789 13.239 25.5537 13.1263 25.4816 12.9804C25.4095 12.8346 25.3959 12.6667 25.4437 12.5112C25.4915 12.3557 25.597 12.2243 25.7385 12.1441C25.8977 12.0661 29.6915 10.2114 33.2943 10.4422C33.4194 10.4503 33.5392 10.4951 33.6389 10.571C33.7386 10.6469 33.8136 10.7505 33.8547 10.8689C35.1284 14.572 33.7719 18.5728 30.6866 20.176C30.5956 20.2232 30.4946 20.2478 30.392 20.2476Z" fill="#144A8F"/>
<path d="M32.0334 13.4607C32.1178 13.9924 32.0095 16.2181 30.029 17.7767C30.0133 17.7935 29.9921 17.8041 29.9692 17.8067C29.9464 17.8093 29.9233 17.8037 29.9042 17.7909C29.8851 17.7781 29.8711 17.7589 29.8648 17.7368C29.8585 17.7147 29.8603 17.691 29.8698 17.6701C29.9939 17.3251 30.0757 16.9664 30.1134 16.6018C30.115 16.5803 30.1105 16.5589 30.1005 16.5399C30.0904 16.5209 30.0752 16.5051 30.0566 16.4943C30.038 16.4835 30.0168 16.4781 29.9953 16.4788C29.9738 16.4796 29.953 16.4863 29.9351 16.4983C29.7536 16.6209 29.5307 16.7069 29.0993 16.6161C29.0671 16.6092 29.037 16.5947 29.0114 16.574C28.9858 16.5532 28.9654 16.5268 28.952 16.4967C28.9385 16.4666 28.9323 16.4338 28.9338 16.4009C28.9353 16.368 28.9446 16.3359 28.9608 16.3073C29.0574 16.1624 29.125 16.0002 29.1598 15.8296C29.164 15.8007 29.1618 15.7711 29.1533 15.7431C29.1448 15.7151 29.1303 15.6893 29.1107 15.6675C29.091 15.6458 29.0669 15.6286 29.0399 15.6173C29.0129 15.606 28.9837 15.6007 28.9544 15.602C28.1998 15.6291 27.6107 15.723 27.1395 15.3855" fill="#2494D1"/>
<path d="M27.4054 14.9079C28.7088 14.2981 30.0857 13.8598 31.5017 13.604L27.4054 14.9079Z" fill="white"/>
<path d="M27.407 15.5431C27.2641 15.5422 27.1256 15.4933 27.0139 15.4042C26.9021 15.3152 26.8236 15.1911 26.7909 15.052C26.7582 14.9129 26.7732 14.7669 26.8335 14.6373C26.8939 14.5078 26.996 14.4023 27.1236 14.3379C28.4822 13.699 29.9188 13.2414 31.3966 12.9767C31.5596 12.9559 31.7243 12.9989 31.8564 13.0967C31.9884 13.1945 32.0775 13.3396 32.1051 13.5016C32.1326 13.6636 32.0965 13.83 32.0042 13.966C31.9119 14.1019 31.7707 14.197 31.6099 14.2312C30.2549 14.4772 28.9371 14.8962 27.6888 15.4778C27.6008 15.5202 27.5046 15.5425 27.407 15.5431Z" fill="#144A8F"/>
<path d="M29.752 34.802C28.1329 38.3045 24.9457 40.2754 22.6324 39.2072C20.3192 38.1389 19.7572 34.4311 21.3747 30.9286C22.9922 27.4261 26.1811 25.4535 28.4943 26.5234C30.8076 27.5932 31.3711 31.2995 29.752 34.802Z" fill="white"/>
<path d="M23.9888 40.1354C23.4289 40.1379 22.8752 40.0179 22.3666 39.7835C21.0468 39.1738 20.1711 37.8572 19.9005 36.0757C19.6442 34.3913 19.9642 32.4681 20.7984 30.6627C22.5624 26.8418 26.1365 24.734 28.7586 25.9471C31.3807 27.1603 32.0891 31.2534 30.3268 35.0679C29.4909 36.8733 28.2332 38.3619 26.7845 39.2582C25.8468 39.8409 24.8915 40.1354 23.9888 40.1354ZM27.157 26.8737C25.3309 26.8737 23.1498 28.6058 21.9526 31.1961C21.2219 32.7786 20.9385 34.4438 21.1566 35.8846C21.3604 37.2299 21.9797 38.2058 22.8983 38.6293C23.8169 39.0528 24.968 38.8936 26.1174 38.1772C27.356 37.4098 28.4418 36.1171 29.1725 34.5346C30.6165 31.411 30.1835 28.0072 28.2269 27.1014C27.8911 26.9485 27.5259 26.8708 27.157 26.8737Z" fill="#144A8F"/>
<path d="M26.4995 32.8581C26.4998 33.4006 26.3392 33.931 26.0381 34.3823C25.7369 34.8336 25.3087 35.1854 24.8076 35.3933C24.3065 35.6012 23.755 35.6559 23.2228 35.5503C22.6907 35.4448 22.2017 35.1838 21.8179 34.8004C21.434 34.417 21.1725 33.9284 21.0664 33.3964C20.9602 32.8643 21.0142 32.3128 21.2215 31.8114C21.4289 31.31 21.7802 30.8814 22.2311 30.5798C22.682 30.2781 23.2123 30.1169 23.7548 30.1166C24.4819 30.117 25.1792 30.4059 25.6934 30.9199C26.2077 31.4339 26.4971 32.131 26.4979 32.8581" fill="#144A8F"/>
<path d="M4.57871 34.802C6.19622 38.3045 9.38349 40.2755 11.6967 39.2072C14.01 38.1389 14.5735 34.4311 12.9544 30.9286C11.3353 27.4261 8.15284 25.4551 5.83483 26.525C3.51682 27.5949 2.95961 31.3011 4.57871 34.8036" fill="white"/>
<path d="M10.3403 40.1353C9.43762 40.1353 8.48239 39.8408 7.54309 39.2581C6.09433 38.3618 4.83662 36.87 4.0008 35.0678C2.23841 31.2469 2.9405 27.1618 5.56896 25.947C8.19742 24.7323 11.7684 26.8481 13.5292 30.6627C14.3634 32.468 14.6818 34.3912 14.4255 36.0756C14.1548 37.8571 13.2792 39.1737 11.961 39.7835C11.4529 40.0175 10.8997 40.1376 10.3403 40.1353ZM7.17374 26.8736C6.80425 26.8703 6.43853 26.948 6.10229 27.1013C4.14568 28.0071 3.71423 31.4109 5.15503 34.5345C5.88578 36.117 6.97155 37.4097 8.21175 38.1771C9.36916 38.8999 10.5122 39.0591 11.4309 38.6292C12.3495 38.1994 12.9672 37.2298 13.1725 35.8845C13.3907 34.4437 13.1089 32.7785 12.3765 31.196C11.1777 28.6057 8.99981 26.8736 7.17374 26.8736Z" fill="#144A8F"/>
<path d="M4.57871 34.802C6.19622 38.3045 9.38349 40.2755 11.6967 39.2072C14.01 38.1389 14.5735 34.4311 12.9544 30.9286C11.3353 27.4261 8.15284 25.4551 5.83483 26.525C3.51682 27.5949 2.95961 31.3011 4.57871 34.8036" fill="white"/>
<path d="M10.3403 40.1353C9.43762 40.1353 8.48239 39.8408 7.54309 39.2581C6.09433 38.3618 4.83662 36.87 4.0008 35.0678C2.23841 31.2469 2.9405 27.1618 5.56896 25.947C8.19742 24.7323 11.7684 26.8481 13.5292 30.6627C14.3634 32.468 14.6818 34.3912 14.4255 36.0756C14.1548 37.8571 13.2792 39.1737 11.961 39.7835C11.4529 40.0175 10.8997 40.1376 10.3403 40.1353ZM7.17374 26.8736C6.80425 26.8703 6.43853 26.948 6.10229 27.1013C4.14568 28.0071 3.71423 31.4109 5.15503 34.5345C5.88578 36.117 6.97155 37.4097 8.21175 38.1771C9.36916 38.8999 10.5122 39.0591 11.4309 38.6292C12.3495 38.1994 12.9672 37.2298 13.1725 35.8845C13.3907 34.4437 13.1089 32.7785 12.3765 31.196C11.1777 28.6057 8.99981 26.8736 7.17374 26.8736Z" fill="#144A8F"/>
<path d="M7.83443 32.8581C7.83411 33.4007 7.99472 33.9312 8.29595 34.3825C8.59717 34.8338 9.02547 35.1856 9.52668 35.3935C10.0279 35.6013 10.5795 35.6559 11.1117 35.5502C11.6439 35.4446 12.1328 35.1834 12.5166 34.7999C12.9004 34.4163 13.1618 33.9275 13.2678 33.3954C13.3737 32.8632 13.3195 32.3116 13.1119 31.8103C12.9044 31.309 12.5528 30.8805 12.1017 30.579C11.6505 30.2775 11.1201 30.1166 10.5775 30.1166C9.85028 30.1166 9.1528 30.4054 8.63842 30.9194C8.12404 31.4335 7.83485 32.1308 7.83443 32.8581Z" fill="#144A8F"/>
<path d="M13.3286 32.8581C13.3289 33.4007 13.1682 33.9313 12.8669 34.3826C12.5656 34.834 12.1372 35.1858 11.6359 35.3936C11.1346 35.6014 10.583 35.6559 10.0507 35.5501C9.51845 35.4443 9.02953 35.183 8.64581 34.7993C8.26209 34.4156 8.0008 33.9267 7.89501 33.3944C7.78922 32.8622 7.84367 32.3105 8.05149 31.8092C8.2593 31.3079 8.61114 30.8795 9.06248 30.5782C9.51382 30.2769 10.0444 30.1163 10.5871 30.1166C11.314 30.117 12.0111 30.406 12.5251 30.92C13.0392 31.434 13.3281 32.1311 13.3286 32.8581Z" fill="#144A8F"/>
<path d="M13.3126 31.4174C13.3126 31.7322 13.2193 32.04 13.0443 32.3019C12.8694 32.5637 12.6208 32.7677 12.3298 32.8882C12.0389 33.0087 11.7188 33.0402 11.41 32.9788C11.1012 32.9174 10.8175 32.7658 10.5949 32.5431C10.3722 32.3205 10.2206 32.0368 10.1591 31.7279C10.0977 31.4191 10.1292 31.099 10.2497 30.8081C10.3702 30.5172 10.5743 30.2686 10.8361 30.0936C11.0979 29.9187 11.4057 29.8253 11.7206 29.8253C12.1428 29.8253 12.5478 29.993 12.8463 30.2916C13.1449 30.5902 13.3126 30.9951 13.3126 31.4174Z" fill="white"/>
<path d="M13.8428 38.9652C13.4454 39.4584 13.2471 40.0826 13.2872 40.7147C13.3273 41.3468 13.6028 41.941 14.0593 42.3801C14.728 43.0169 16.191 43.3942 16.9409 43.4595C16.9409 43.4595 11.4738 43.0997 9.63342 40.4028C10.4294 39.5813 12.4991 38.4637 13.1168 37.6756C13.7345 36.8875 15.0448 35.356 15.9172 36.1234" fill="#2494D1"/>
<path d="M15.048 35.9197C15.048 35.9197 16.0923 29.9718 11.5566 28.2699C12.5341 30.4717 14.5576 35.2606 13.5881 37.0564C12.6185 38.8522 15.048 35.9197 15.048 35.9197Z" fill="#2494D1"/>
<path d="M17.1622 44.4927C14.1134 44.4927 11.0472 42.8609 8.29294 39.7755C8.24514 39.7204 8.20644 39.6581 8.17831 39.5908C6.54169 38.8044 4.99423 37.2028 4.0008 35.0694C2.23841 31.2485 2.94209 27.1618 5.56896 25.9471C6.88717 25.3373 8.45851 25.5236 9.99005 26.4724C11.4404 27.3687 12.6965 28.8605 13.5323 30.6627C14.3506 32.4346 14.6372 34.2671 14.4462 35.8432C15.2026 35.1398 16.2023 34.7569 17.2351 34.775C18.2679 34.7931 19.2535 35.2108 19.9849 35.9403L22.2488 38.1914C22.3558 38.3127 22.4127 38.4702 22.4079 38.6318C22.4031 38.7935 22.337 38.9474 22.2229 39.062C22.1088 39.1767 21.9554 39.2437 21.7937 39.2494C21.632 39.255 21.4743 39.199 21.3524 39.0925L19.087 36.8398C18.577 36.3314 17.8863 36.046 17.1662 36.046C16.4461 36.046 15.7554 36.3314 15.2454 36.8398L13.0308 39.0448C13.0108 39.0641 12.9895 39.0822 12.9672 39.0989C12.6731 39.3815 12.3341 39.6133 11.9642 39.7851C11.4768 40.0077 10.9477 40.1243 10.4119 40.1274C12.1298 41.7194 14.4573 43.2223 17.1622 43.2223C17.3311 43.2223 17.4931 43.2894 17.6125 43.4088C17.7319 43.5282 17.799 43.6902 17.799 43.8591C17.799 44.028 17.7319 44.19 17.6125 44.3094C17.4931 44.4288 17.3311 44.4959 17.1622 44.4959V44.4927ZM5.15503 34.5345C6.62448 37.7186 9.43602 39.551 11.4308 38.6292C13.3875 37.725 13.8189 34.3212 12.3861 31.196C11.6553 29.6151 10.5696 28.3208 9.32935 27.5534C8.17194 26.837 7.02886 26.6778 6.11025 27.1013C4.15363 28.0056 3.72219 31.4109 5.16299 34.5345H5.15503Z" fill="#144A8F"/>
<path d="M29.5483 46.2902C28.593 46.2902 27.5901 46.0323 26.5234 45.5197C26.3783 45.4426 26.2687 45.3125 26.2173 45.1565C26.1659 45.0004 26.1769 44.8306 26.2478 44.6824C26.3187 44.5343 26.4441 44.4192 26.5978 44.3614C26.7515 44.3035 26.9216 44.3072 27.0726 44.3718C29.0898 45.3366 30.4478 45.085 31.489 44.531C30.9397 44.0534 30.4876 43.6793 30.486 43.6793C30.373 43.5818 30.2979 43.4477 30.2737 43.3005C30.2495 43.1532 30.2778 43.0022 30.3536 42.8736C30.4294 42.7451 30.548 42.6473 30.6886 42.5973C30.8291 42.5472 30.9828 42.5482 31.1228 42.5999C32.3152 43.0775 33.3787 43.0584 34.3721 42.5617C35.6283 41.9344 36.5389 40.6417 37.1439 39.4843C36.1887 39.8584 34.837 40.0192 32.9775 39.5846C29.0436 38.6612 26.517 41.893 26.4119 42.0315C26.3075 42.1588 26.1578 42.2407 25.9943 42.26C25.8307 42.2793 25.6661 42.2345 25.5349 42.135C25.4037 42.0355 25.3161 41.8891 25.2905 41.7264C25.265 41.5637 25.3034 41.3975 25.3978 41.2626C25.5236 41.1034 28.5118 37.2315 33.2689 38.3459C37.0595 39.2343 38.0625 37.2076 38.1039 37.1217C38.1712 36.977 38.2903 36.8629 38.4377 36.8018C38.5851 36.7408 38.7501 36.7373 38.8999 36.7921C39.0486 36.847 39.1715 36.9555 39.2446 37.0962C39.3176 37.237 39.3355 37.3999 39.2947 37.5531C39.2438 37.741 38.0052 42.17 34.9421 43.6968C34.3479 43.9986 33.6971 44.1726 33.0316 44.2078C33.0864 44.2751 33.1269 44.3528 33.1506 44.4363C33.1743 44.5198 33.1806 44.6072 33.1693 44.6932C33.158 44.7793 33.1292 44.8621 33.0847 44.9365C33.0402 45.011 32.981 45.0757 32.9106 45.1264C31.8281 45.9049 30.7232 46.2902 29.5483 46.2902Z" fill="#144A8F"/>
<path d="M14.8824 52.5994H9.67482V54.755H14.8824V52.5994Z" fill="#EB2126"/>
<path d="M22.9493 53.5658H17.7433V55.7214H22.9493V53.5658Z" fill="#EB2126"/>
<path d="M20.2603 56.0016C20.0914 56.0016 19.9294 55.9345 19.81 55.815C19.6906 55.6956 19.6235 55.5336 19.6235 55.3647V54.4859C19.6235 54.317 19.6906 54.1551 19.81 54.0356C19.9294 53.9162 20.0914 53.8491 20.2603 53.8491C20.4292 53.8491 20.5912 53.9162 20.7106 54.0356C20.83 54.1551 20.8971 54.317 20.8971 54.4859V55.3647C20.8971 55.5336 20.83 55.6956 20.7106 55.815C20.5912 55.9345 20.4292 56.0016 20.2603 56.0016Z" fill="#144A8F"/>
<path d="M9.76558 52.3654C9.76558 52.3654 10.4852 52.3654 11.0392 52.3336C11.2143 52.3256 11.3401 52.5612 11.2732 52.7778C11.0169 53.6152 11.2382 54.2918 11.044 54.5529C10.8116 54.8601 9.51404 54.3841 9.51404 54.3841L9.76558 52.3654Z" fill="#A62126"/>
<path d="M17.6685 53.4209C17.6685 53.4209 18.3817 53.327 18.9278 53.2299C19.0997 53.1996 19.2462 53.4177 19.2143 53.6406C19.0663 54.5035 19.3735 55.1467 19.2143 55.4301C19.0217 55.766 17.6748 55.4556 17.6748 55.4556L17.6685 53.4209Z" fill="#A62126"/>
<path d="M14.7885 17.1048C14.7885 17.1048 17.4535 19.3464 19.2764 18.8561C20.3781 18.5584 19.2143 20.9257 14.9429 20.3319C10.4979 19.711 12.8016 15.1785 12.8016 15.1785L14.7885 17.1048Z" fill="#EB2126"/>
<path d="M15.3727 12.4609C15.6784 13.1837 18.0012 14.2758 19.6171 14.1835C19.7239 14.1759 19.8302 14.2044 19.9188 14.2645C20.0074 14.3245 20.0733 14.4126 20.1059 14.5146C20.4928 15.766 20.5055 17.2068 20.1807 17.7863C19.8623 18.3403 12.7714 17.0348 12.7411 14.045C12.7109 11.0551 13.9081 10.9962 13.9081 10.9962L15.3727 12.4609Z" fill="#EB2126"/>
<path d="M15.4189 7.46344C15.6593 8.15279 17.4758 9.24811 18.6985 9.35796C18.8423 9.37154 18.9791 9.42663 19.0921 9.51651C19.2052 9.60639 19.2897 9.7272 19.3353 9.86423C19.6537 10.8004 19.7477 11.8113 19.8989 12.7156C19.9944 13.2823 13.2824 12.0374 13.2569 9.05388C13.2315 6.0704 14.2122 6.00513 14.2122 6.00513L15.4189 7.46344Z" fill="#EB2126"/>
<path d="M19.4086 18.3864C17.3787 18.3864 15.5574 17.5347 14.8904 17.1828C13.6533 16.5269 12.2921 15.4809 12.1536 14.5098C12.139 14.3465 12.1879 14.1838 12.2902 14.0557C12.3924 13.9276 12.5402 13.8438 12.7027 13.8218C12.8651 13.7999 13.0298 13.8414 13.1624 13.9379C13.295 14.0343 13.3853 14.1781 13.4145 14.3394C13.4575 14.5894 14.1803 15.4013 15.6545 16.1448C16.4601 16.5508 19.2669 17.7862 21.5705 16.6336C21.6457 16.5904 21.7289 16.5631 21.8149 16.5532C21.901 16.5433 21.9882 16.5511 22.0712 16.576C22.1542 16.601 22.2312 16.6427 22.2975 16.6984C22.3638 16.7542 22.4181 16.8229 22.4569 16.9004C22.4958 16.9779 22.5184 17.0624 22.5234 17.1489C22.5284 17.2354 22.5157 17.3221 22.4861 17.4035C22.4565 17.4849 22.4106 17.5595 22.3511 17.6225C22.2917 17.6856 22.22 17.7359 22.1405 17.7703C21.2906 18.1865 20.3549 18.3975 19.4086 18.3864ZM19.0376 13.6103C17.6901 13.5826 16.3693 13.2292 15.1881 12.5802C14.115 12.0119 12.929 11.0996 12.8127 10.2431C12.7962 10.0791 12.844 9.91505 12.946 9.78551C13.048 9.65597 13.1962 9.57103 13.3595 9.54855C13.5229 9.52607 13.6885 9.56781 13.8217 9.66499C13.9549 9.76216 14.0452 9.9072 14.0736 10.0696C14.1325 10.2829 14.8267 11.0407 16.2197 11.676C17.0364 12.0485 19.1236 12.8206 20.8605 11.9482C21.0098 11.8836 21.1782 11.8786 21.331 11.9342C21.4839 11.9898 21.6097 12.1018 21.6826 12.2472C21.7555 12.3927 21.77 12.5605 21.7231 12.7162C21.6762 12.872 21.5715 13.0039 21.4304 13.0849C20.6846 13.4439 19.8652 13.6238 19.0376 13.6103Z" fill="#144A8F"/>
<path d="M18.7033 6.56243C18.7348 6.69276 18.7148 6.83023 18.6475 6.94619C18.5802 7.06215 18.4707 7.14767 18.3419 7.18491C17.8474 7.35783 17.3292 7.45394 16.8056 7.46989C14.9986 7.51288 14.2615 5.31904 14.2615 5.31904C14.2615 5.31904 14.9668 1.1081 16.5525 1.15108C17.0906 1.16541 18.2957 4.8669 18.7033 6.56402" fill="#EB2126"/>
<path d="M17.1654 22.1166C14.2424 22.1166 11.7763 19.5327 11.7763 17.9089C11.7763 17.8006 12.3781 11.122 13.6581 5.95423C13.6644 5.89623 13.6789 5.83942 13.7011 5.78547C14.5099 2.5807 15.5829 0 16.9409 0C20.5421 0 22.5544 17.7305 22.5544 17.9089C22.5544 19.5327 20.0931 22.1166 17.1654 22.1166ZM14.6388 7.42368C13.7425 11.563 13.0468 16.5238 13.0468 17.9089C13.0468 18.7606 14.8283 20.8446 17.1638 20.8446C19.4993 20.8446 21.2808 18.7606 21.2808 17.9089C21.2808 17.3421 20.6949 13.0468 19.7906 8.9393C19.7715 8.84856 19.7508 8.7594 19.7317 8.67184C18.4899 8.99025 16.9855 8.76736 15.5542 8.00955C15.2339 7.83908 14.9278 7.64316 14.6388 7.42368ZM14.9652 5.99085C15.1483 6.2392 15.7787 6.78687 16.7897 7.1801C17.3819 7.41254 18.4486 7.71821 19.4436 7.43801C17.9837 1.45353 16.9504 1.27363 16.9409 1.27363C16.32 1.27204 15.6084 3.31781 14.9652 5.98925V5.99085Z" fill="#144A8F"/>
<path d="M26.482 31.4174C26.482 31.7322 26.3886 32.04 26.2137 32.3019C26.0387 32.5637 25.7901 32.7677 25.4992 32.8882C25.2083 33.0087 24.8882 33.0402 24.5794 32.9788C24.2705 32.9174 23.9869 32.7658 23.7642 32.5431C23.5416 32.3205 23.3899 32.0368 23.3285 31.7279C23.2671 31.4191 23.2986 31.099 23.4191 30.8081C23.5396 30.5172 23.7437 30.2686 24.0055 30.0936C24.2673 29.9187 24.5751 29.8253 24.89 29.8253C25.3122 29.8253 25.7171 29.993 26.0157 30.2916C26.3143 30.5902 26.482 30.9951 26.482 31.4174Z" fill="white"/>
<path d="M17.1909 46.0641L17.2466 45.9272C17.8054 45.8205 18.6237 46.1914 18.8482 46.7136L19.563 48.796C19.6594 49.0777 19.6721 49.3813 19.5996 49.67L18.7733 52.9863L18.4629 49.2068L17.1909 46.0641Z" fill="#2494D1"/>
<path d="M12.1568 55.298C11.9879 55.298 11.826 55.2309 11.7065 55.1115C11.5871 54.992 11.52 54.8301 11.52 54.6612V53.8795C11.52 53.7106 11.5871 53.5486 11.7065 53.4292C11.826 53.3097 11.9879 53.2426 12.1568 53.2426C12.3257 53.2426 12.4877 53.3097 12.6071 53.4292C12.7265 53.5486 12.7936 53.7106 12.7936 53.8795V54.6612C12.7936 54.8301 12.7265 54.992 12.6071 55.1115C12.4877 55.2309 12.3257 55.298 12.1568 55.298ZM14.4494 52.781H9.67324C9.50434 52.781 9.34237 52.7139 9.22294 52.5944C9.10352 52.475 9.03642 52.313 9.03642 52.1441C9.03642 51.9752 9.10352 51.8133 9.22294 51.6938C9.34237 51.5744 9.50434 51.5073 9.67324 51.5073H14.4494C14.6183 51.5073 14.7802 51.5744 14.8997 51.6938C15.0191 51.8133 15.0862 51.9752 15.0862 52.1441C15.0862 52.313 15.0191 52.475 14.8997 52.5944C14.7802 52.7139 14.6183 52.781 14.4494 52.781Z" fill="#144A8F"/>
<path d="M22.6404 53.6184H18.1126C17.9437 53.6184 17.7818 53.5513 17.6623 53.4318C17.5429 53.3124 17.4758 53.1504 17.4758 52.9815C17.4758 52.8126 17.5429 52.6507 17.6623 52.5312C17.7818 52.4118 17.9437 52.3447 18.1126 52.3447H22.6404C22.8093 52.3447 22.9713 52.4118 23.0907 52.5312C23.2101 52.6507 23.2772 52.8126 23.2772 52.9815C23.2772 53.1504 23.2101 53.3124 23.0907 53.4318C22.9713 53.5513 22.8093 53.6184 22.6404 53.6184Z" fill="#144A8F"/>
<path d="M17.5889 46.8727C18.1731 47.457 19.1904 49.0713 18.7701 49.49C18.3498 49.9087 17.0189 49.5314 16.4394 48.9472C15.8599 48.3629 15.6673 47.5748 16.0876 47.1561C16.9488 47.5111 17.0046 46.2885 17.5889 46.8727Z" fill="#2494D1"/>
<path d="M14.392 55.3902H9.53313C9.44605 55.3903 9.35986 55.3726 9.2799 55.3381C9.19994 55.3036 9.12791 55.2531 9.06826 55.1896C9.00867 55.1259 8.9628 55.0506 8.93349 54.9685C8.90419 54.8863 8.89208 54.799 8.89791 54.712L9.38826 47.3233C9.39276 47.2612 9.40616 47.2001 9.42806 47.1418L11.3592 41.9948C11.4241 41.8447 11.5443 41.7254 11.6948 41.6615C11.8453 41.5976 12.0146 41.594 12.1676 41.6515C12.3207 41.709 12.4457 41.8232 12.5169 41.9704C12.5881 42.1175 12.6 42.2865 12.55 42.4421L10.6523 47.4969L10.2129 54.1198H13.7695L13.8603 50.0123C13.8626 49.9282 13.8815 49.8454 13.916 49.7687L15.0304 47.2804C15.0617 47.2 15.1089 47.1268 15.1693 47.0653C15.2296 47.0037 15.3018 46.9551 15.3815 46.9223C15.4612 46.8895 15.5468 46.8732 15.633 46.8744C15.7192 46.8756 15.8042 46.8943 15.883 46.9294C15.9617 46.9644 16.0325 47.0151 16.0911 47.0783C16.1497 47.1416 16.1948 47.216 16.2238 47.2972C16.2527 47.3784 16.2649 47.4647 16.2596 47.5507C16.2542 47.6367 16.2314 47.7208 16.1926 47.7978L15.1371 50.1683L15.0352 54.7693C15.031 54.9365 14.9612 55.0954 14.8409 55.2116C14.7205 55.3278 14.5593 55.3919 14.392 55.3902Z" fill="#144A8F"/>
<path d="M18.0697 51.7079H14.7853V53.6756H18.0697V51.7079Z" fill="#EB2126"/>
<path d="M18.0713 54.3124H14.7869C14.618 54.3124 14.456 54.2453 14.3366 54.1259C14.2171 54.0065 14.1501 53.8445 14.1501 53.6756V51.7079C14.1501 51.539 14.2171 51.377 14.3366 51.2576C14.456 51.1381 14.618 51.071 14.7869 51.071H18.0713C18.2402 51.071 18.4021 51.1381 18.5216 51.2576C18.641 51.377 18.7081 51.539 18.7081 51.7079V53.6772C18.7077 53.8458 18.6404 54.0074 18.521 54.1265C18.4016 54.2456 18.2399 54.3124 18.0713 54.3124ZM15.4221 53.0388H17.4344V52.3415H15.4221V53.0388Z" fill="#144A8F"/>
<path d="M22.7503 56H17.8913C17.8027 56.0004 17.7149 55.9822 17.6336 55.9467C17.5524 55.9112 17.4795 55.8591 17.4195 55.7937C17.3596 55.7284 17.3139 55.6512 17.2855 55.5672C17.2571 55.4832 17.2465 55.3942 17.2545 55.3059L17.8101 49.3071L16.6957 46.7774C16.6359 46.624 16.6378 46.4534 16.701 46.3013C16.7643 46.1493 16.8839 46.0277 17.0349 45.962C17.1858 45.8963 17.3564 45.8916 17.5107 45.949C17.6651 46.0063 17.7912 46.1212 17.8627 46.2695L19.0328 48.9489C19.0772 49.0488 19.0943 49.1587 19.0822 49.2673L18.5775 54.736H22.1914L23.2406 47.8902C23.2498 47.8047 23.2763 47.7219 23.3184 47.6469C23.3605 47.5719 23.4173 47.5062 23.4855 47.4538C23.5537 47.4014 23.6318 47.3633 23.7151 47.3419C23.7984 47.3204 23.8851 47.3161 23.9701 47.3291C24.0552 47.3421 24.1367 47.3723 24.2097 47.4176C24.2828 47.463 24.3459 47.5227 24.3952 47.5931C24.4446 47.6636 24.4792 47.7433 24.4969 47.8274C24.5146 47.9116 24.5151 47.9985 24.4983 48.0828L23.7548 53.0468C23.7856 53.0452 23.8164 53.0452 23.8472 53.0468H24.6575C24.6978 52.917 24.7786 52.8035 24.888 52.7229C24.9974 52.6424 25.1298 52.5989 25.2657 52.5989C25.4016 52.5989 25.5339 52.6424 25.6433 52.7229C25.7528 52.8035 25.8335 52.917 25.8738 53.0468H26.6539C26.5361 43.7286 23.844 41.2164 23.8153 41.1925C23.6895 41.0812 23.6127 40.9248 23.6017 40.7573C23.5907 40.5897 23.6463 40.4245 23.7564 40.2978C23.8656 40.1724 24.0195 40.0948 24.1852 40.0814C24.3509 40.068 24.5153 40.12 24.6432 40.2261C24.7769 40.3407 27.9292 43.1284 27.9292 53.682C27.9292 53.8509 27.8621 54.0129 27.7426 54.1323C27.6232 54.2518 27.4612 54.3188 27.2923 54.3188H23.8408C23.745 54.3189 23.6504 54.2977 23.5638 54.2568L23.3791 55.4667C23.3546 55.6157 23.2778 55.7512 23.1627 55.8489C23.0475 55.9466 22.9013 56.0002 22.7503 56ZM16.2627 54.0036C16.0938 54.0036 15.9318 53.9365 15.8124 53.8171C15.693 53.6977 15.6259 53.5357 15.6259 53.3668V53.2283C15.6259 53.0594 15.693 52.8974 15.8124 52.778C15.9318 52.6586 16.0938 52.5915 16.2627 52.5915C16.4316 52.5915 16.5936 52.6586 16.713 52.778C16.8324 52.8974 16.8995 53.0594 16.8995 53.2283V53.37C16.8987 53.5383 16.8312 53.6995 16.7119 53.8182C16.5925 53.937 16.431 54.0036 16.2627 54.0036Z" fill="#144A8F"/>
<path d="M60.0533 43.3162C60.035 44.0399 60.1427 44.7613 60.3717 45.448H60.8334C62.1071 45.448 68.1568 41.6112 68.1568 33.2625C68.1568 25.3787 62.4366 21.2569 58.673 21.2569C54.2679 21.2569 50.3944 25.0221 50.3944 31.7357C50.3944 36.0343 52.3479 37.9447 53.3063 37.9447C54.2297 37.9447 54.1596 37.5196 54.4446 37.5196C55.1897 37.5196 54.5146 38.7264 53.4894 38.7264C50.3992 38.7264 45.284 37.1996 45.284 30.6643C45.284 25.2291 49.4042 19.4038 56.7212 19.4038C65.2816 19.4038 72.0318 26.0108 72.0318 34.2098C72.0318 42.2018 66.845 49.3771 63.1164 49.3771C61.803 49.3771 60.3829 48.6671 59.3879 47.7421C58.5345 47.7071 57.5411 47.4237 56.9727 46.8553C56.0478 45.9001 55.9411 43.4452 55.9411 41.9535C55.9411 37.0181 56.6878 28.7746 58.8896 28.7746C61.3763 28.7746 62.3347 29.9113 62.3347 30.3029C62.3347 31.2979 60.0629 32.2134 60.0629 43.3035" fill="#EB2126"/>
<path d="M79.6354 31.1673C78.2503 31.4523 76.9289 34.0457 76.9289 38.4493C76.9289 38.6977 76.9656 38.9826 76.9656 39.231C77.8173 39.1243 79.9905 37.0292 79.9905 33.1924C80.0125 32.5002 79.8917 31.8108 79.6354 31.1673ZM84.999 38.3076C85.0341 37.9892 85.1757 37.8459 85.3541 37.8459C85.7441 37.8459 86.3093 38.521 86.3093 39.266C86.3093 42.6093 83.8575 47.1514 80.3057 47.1514C75.7238 47.1514 73.7337 43.0312 73.7337 38.6977C73.7337 32.3757 76.0071 29.7823 79.0273 29.7823C79.0273 28.9305 79.6641 28.7872 80.0207 28.7872C82.0108 28.7872 82.7272 30.1739 82.7272 32.944C82.7272 37.3126 79.7437 40.6511 77.5403 40.6511H77.2219C77.7202 42.3562 78.8139 44.0262 80.9871 44.0262C83.5105 44.0262 84.7172 41.1494 85.0022 38.3076" fill="#EB2126"/>
<path d="M89.0778 30.2439C90.4629 24.035 92.9146 21.3635 96.2897 21.3635C97.7098 21.3635 98.9883 22.1802 98.9883 23.0336C98.9883 25.2354 94.9397 29.2425 94.4064 29.2425C94.3347 29.2425 94.2997 29.1725 94.2997 29.1008C94.2997 28.6041 96.5731 25.9741 96.5731 23.5287C96.5731 23.2103 96.4314 23.032 96.1481 23.032C95.2597 23.032 93.3763 24.4171 92.2762 30.314C94.7264 30.2057 97.6382 29.6039 97.8165 29.6039C98.0999 29.6039 98.3148 29.8873 98.3148 30.2774C98.3148 30.989 95.4364 31.8694 91.9562 32.2674C91.5748 35.5099 91.3946 38.773 91.4165 42.0378C91.4165 48.2181 92.6233 48.6081 92.6233 49.3898C92.6233 49.7082 92.2699 49.9231 91.7365 49.9231C90.0665 49.9231 87.8281 48.7514 87.8281 45.2696C87.8281 40.0827 88.113 35.8559 88.6448 32.4823H88.2547C87.2995 32.4823 86.408 30.954 86.408 30.4923C86.408 30.1373 86.9047 29.4272 87.2613 29.4272C87.302 29.4298 87.3417 29.4406 87.378 29.4589C87.4144 29.4773 87.4467 29.5028 87.473 29.5339C87.723 29.8173 87.3664 30.1022 89.0651 30.2439" fill="#EB2126"/>
<path d="M102.379 31.1673C100.994 31.4523 99.6728 34.0457 99.6728 38.4493C99.6728 38.6977 99.7095 38.9826 99.7095 39.231C100.561 39.1243 102.734 37.0292 102.734 33.1924C102.756 32.5002 102.636 31.8108 102.379 31.1673ZM107.743 38.3076C107.779 37.9892 107.921 37.8459 108.098 37.8459C108.488 37.8459 109.053 38.521 109.053 39.266C109.053 42.6093 106.601 47.1514 103.05 47.1514C98.4677 47.1514 96.4776 43.0312 96.4776 38.6977C96.4776 32.3757 98.751 29.7823 101.771 29.7823C101.771 28.9305 102.408 28.7872 102.766 28.7872C104.755 28.7872 105.465 30.1739 105.465 32.944C105.469 37.3078 102.486 40.6511 100.284 40.6511H99.9658C100.462 42.3562 101.558 44.0262 103.731 44.0262C106.253 44.0262 107.461 41.1494 107.744 38.3076" fill="#EB2126"/>
<path d="M116.73 39.3775C116.73 36.1806 117.685 32.7004 117.685 31.5987C117.685 31.3854 117.65 31.2437 117.543 31.2437C116.907 31.2437 114.488 35.754 113.423 40.6559C113.387 43.2493 113.21 45.2378 113.21 45.2378C113.317 45.346 113.387 45.6294 113.387 45.9144C113.387 46.3761 113.21 46.8696 112.535 46.8696C111.185 46.8696 108.84 45.4495 108.84 43.7078C108.84 41.9661 109.795 40.9377 109.795 32.9806C109.795 31.0622 108.41 29.9972 108.41 29.5705C108.41 29.1088 108.907 28.6821 109.297 28.6821C109.652 28.6821 110.363 28.7172 111.18 29.5355C112.495 30.8489 113.062 33.7257 113.312 36.6742C114.804 33.1223 116.757 29.4988 117.929 29.4988C121.091 29.4988 122.014 31.1339 122.014 31.8789C122.014 32.9456 121.269 37.6692 121.269 41.3277C121.269 43.8495 121.624 45.8746 122.831 45.8746C124.677 45.8746 125.566 38.7359 125.672 37.7042C125.709 37.3858 125.851 37.2425 126.027 37.2425C126.419 37.2425 126.983 37.9542 126.983 38.6292V38.7406C126.698 41.4471 126.094 48.3311 122.116 48.3311C118.855 48.3247 116.73 44.7012 116.73 39.3775Z" fill="#EB2126"/>
<path d="M136.312 37.881C136.702 37.881 137.307 38.5911 137.307 39.3027V39.3775C137.129 42.8227 134.429 48.0096 129.953 48.1163H129.882C127.29 48.1163 125.692 46.1628 125.692 43.8528C125.692 43.216 126.082 42.8227 126.295 42.8227C126.402 42.8227 126.472 42.8944 126.472 43.0727C126.472 44.0279 127.042 45.7011 128.213 45.7011C129.457 45.7011 130.345 44.4577 130.345 42.5027C130.345 40.1959 128.782 37.9575 127.467 36.0741L127.253 35.7557C127.077 38.4621 126.827 40.1974 126.827 40.1974C126.827 40.1974 126.827 40.3375 126.65 40.3375C126.223 40.2675 125.478 39.9125 125.478 39.4508V39.3775C125.478 39.3775 125.762 37.2824 125.94 33.6589C125.784 33.3758 125.698 33.0589 125.692 32.7356C125.692 29.7521 128.958 28.6504 129.812 28.6504C130.665 28.6504 131.019 29.0054 131.019 29.7871C131.019 29.9654 130.7 30.7821 130.7 31.8472C130.7 36.324 134.429 37.2824 134.429 42.6094C134.429 43.1239 134.37 43.6368 134.252 44.1377C135.565 42.5457 135.844 40.2309 135.992 38.3125C136.027 37.9941 136.134 37.8858 136.31 37.8858" fill="#EB2126"/>
<path d="M141.741 31.1673C140.356 31.4523 139.034 34.0457 139.034 38.4493C139.034 38.6977 139.071 38.9826 139.071 39.231C139.923 39.1243 142.096 37.0292 142.096 33.1924C142.119 32.5001 141.998 31.8106 141.741 31.1673ZM147.104 38.3076C147.14 37.9892 147.283 37.8459 147.46 37.8459C147.851 37.8459 148.415 38.521 148.415 39.266C148.415 42.6093 145.963 47.1514 142.411 47.1514C137.829 47.1514 135.841 43.0312 135.841 38.6977C135.841 32.3757 138.113 29.7823 141.133 29.7823C141.133 28.9305 141.77 28.7872 142.128 28.7872C144.116 28.7872 144.834 30.1739 144.834 32.944C144.834 37.3126 141.849 40.6511 139.647 40.6511H139.329C139.826 42.3562 140.921 44.0262 143.094 44.0262C145.616 44.0262 146.824 41.1494 147.108 38.3076" fill="#EB2126"/>
<path d="M172.582 23.688C172.582 26.3467 171.553 28.8271 170.562 31.2024C170.032 33.4321 169.758 35.715 169.746 38.0068C169.746 49.2052 172.12 50.4104 173.325 50.4104C173.704 50.4004 174.077 50.3166 174.424 50.1636C174.459 50.1636 174.53 50.2687 174.53 50.3053C174.53 50.6237 174.035 51.2605 173.29 51.2605C169.605 51.2605 166.445 48.035 166.059 40.3439C163.295 45.3063 160.462 49.3819 159.398 49.3819C157.838 49.3819 153.727 46.1978 153.727 42.5775C153.727 38.1469 156.136 23.8631 157.023 22.9779C157.166 22.8194 157.341 22.6932 157.537 22.6076C157.733 22.5219 157.944 22.4789 158.158 22.4812C159.61 22.4812 161.275 24.2898 161.275 25.2466C161.282 25.3181 161.273 25.3903 161.249 25.4578C161.224 25.5253 161.185 25.5865 161.133 25.6366C159.822 26.9103 157.313 37.7918 157.313 43.1077C157.313 44.8446 157.596 45.9733 158.268 45.9733C160.075 45.9733 163.407 40.1608 166.207 34.3833C166.632 28.2523 167.908 20.7745 169.219 20.7745C170.353 20.7745 172.303 21.483 172.587 23.68" fill="#144A8F"/>
<path d="M182.059 39.3648C182.059 36.1807 183.015 32.7021 183.015 31.6036C183.015 31.3919 182.979 31.2486 182.873 31.2486C182.236 31.2486 179.824 35.7493 178.761 40.6416C178.726 43.2303 178.549 45.214 178.549 45.214C178.654 45.3206 178.726 45.604 178.726 45.8874C178.726 46.3491 178.549 46.8426 177.875 46.8426C176.529 46.8426 174.19 45.4257 174.19 43.6888C174.19 41.9519 175.145 40.925 175.145 32.9855C175.145 31.075 173.763 30.0084 173.763 29.5833C173.763 29.1232 174.26 28.6981 174.65 28.6981C175.003 28.6981 175.713 28.7331 176.529 29.5483C177.839 30.8585 178.407 33.7306 178.654 36.6711C180.142 33.1272 182.093 29.5069 183.271 29.5069C186.425 29.5069 187.345 31.1387 187.345 31.8822C187.345 32.9457 186.601 37.6597 186.601 41.3103C186.601 43.8257 186.956 45.846 188.162 45.846C190.004 45.846 190.89 38.7232 190.995 37.6947C191.032 37.3763 191.174 37.2346 191.35 37.2346C191.74 37.2346 192.306 37.9431 192.306 38.6165V38.7232C192.022 41.4153 191.42 48.2914 187.45 48.2914C184.189 48.2914 182.064 44.6774 182.064 39.36" fill="#144A8F"/>
<path d="M193.286 21.9272C193.711 21.5021 194.775 21.1136 195.307 21.1136C196.547 21.1136 197.255 22.0689 197.255 23.204C197.251 23.3907 197.176 23.5686 197.044 23.7007C196.512 24.2309 196.335 26.6062 194.775 26.6062C194.101 26.6062 192.685 25.651 192.685 23.9475C192.685 22.7789 192.861 22.3554 193.286 21.9272ZM195.058 46.8792C194.492 46.8792 193.11 46.1692 192.116 45.1773C191.301 44.3622 190.983 41.4201 190.983 38.408C190.983 34.9341 191.408 31.3552 191.938 30.8601C192.209 30.6456 192.547 30.533 192.893 30.5417C193.632 30.5616 194.338 30.8516 194.878 31.3568C195.197 31.6752 195.375 32.1019 195.375 32.8104C195.375 33.3071 195.127 33.4472 195.127 33.4472C195.127 33.4472 194.523 38.408 194.523 41.6335C194.523 43.1937 194.665 44.3622 195.09 44.3622C197.11 44.3622 197.637 40.7117 197.82 39.3648C197.82 39.2597 197.962 39.1881 198.139 39.1881C198.529 39.1881 199.167 39.4715 199.167 39.8965C199.147 40.905 198.992 41.9063 198.706 42.8736C198.069 45.0356 196.58 46.8792 195.055 46.8792" fill="#144A8F"/>
<path d="M197.784 38.763C197.784 32.2053 200.938 29.5833 204.27 29.5833C206.29 29.5833 207.707 30.6117 207.707 32.2053C207.707 34.4342 206.325 37.2394 205.262 37.2394C205.214 37.2424 205.167 37.2353 205.122 37.2185C205.078 37.2018 205.038 37.1757 205.004 37.1421C204.97 37.1085 204.944 37.0682 204.927 37.0237C204.911 36.9793 204.904 36.9318 204.907 36.8844C204.907 36.8127 204.907 36.7076 204.978 36.671C205.333 36.2826 205.97 34.829 205.97 32.667C205.97 31.6752 205.545 30.8585 205.015 30.8585C203.881 30.8585 201.194 32.9154 201.194 39.2581C201.194 42.6619 202.966 45.0356 205.235 45.0356C208.53 45.0356 209.31 39.7548 209.452 38.5496C209.487 38.2312 209.594 38.0895 209.77 38.0895C210.16 38.0895 210.762 38.798 210.762 39.5064V39.5781C210.515 42.2002 209.31 47.7293 204.915 47.7293C200.519 47.7293 197.792 43.7954 197.792 38.763" fill="#144A8F"/>
<path d="M217.852 35.5375C217.852 35.5375 217.817 35.9626 217.817 36.3176C217.809 36.4602 217.821 36.6032 217.852 36.7427V35.5375ZM217.781 33.5522C217.745 32.8788 217.568 31.6752 216.683 31.6752C214.663 31.6752 213.351 36.671 213.351 40.4314C213.351 42.7001 213.811 44.507 214.911 44.507C215.903 44.507 216.966 41.92 217.498 39.5096C216.718 38.9429 216.151 37.8794 216.151 36.2491C216.151 34.9373 216.895 33.7019 217.781 33.5554V33.5522ZM228.306 44.0469C228.306 45.7823 228.98 45.9956 229.407 45.9956C230.858 45.9956 232.064 40.2897 232.17 39.1912C232.205 38.8728 232.347 38.7295 232.524 38.7295C232.915 38.7295 233.479 39.3329 233.479 40.0032V40.1735C233.196 42.7972 232.205 48.0414 228.873 48.0414C225.293 48.0414 224.514 44.9942 224.514 42.1938C224.514 39.3584 225.683 34.751 225.683 33.8292C225.683 33.1924 225.116 32.7307 224.409 32.3407C223.699 37.0611 221.327 39.5367 219.305 39.8551C218.597 44.1441 216.788 47.5462 214.529 47.5462C212.509 47.5462 209.425 44.9576 209.425 40.1385C209.425 35.2828 211.197 29.6836 215.414 29.6836C217.611 29.6836 218.995 30.8537 218.995 32.1289C218.995 32.9791 218.851 33.4026 218.64 33.6525C219.385 34.0075 219.631 34.9643 219.631 35.9212C219.631 36.7363 219.596 37.5132 219.526 38.2949C220.978 38.0115 222.857 35.7476 223.14 31.6688C222.185 31.1721 221.297 30.6053 221.297 29.7902C221.297 29.0101 222.538 28.4067 223.495 28.4067C224.132 28.4067 224.629 28.6551 224.629 29.2935C224.629 29.7536 224.629 30.1787 224.594 30.5671C226.472 31.2756 229.591 32.5874 229.591 34.8211C229.591 36.0247 228.318 42.1206 228.318 44.0358" fill="#144A8F"/>
<path d="M241.465 39.3648C241.465 36.1807 242.42 32.7021 242.42 31.6036C242.42 31.3919 242.383 31.2486 242.278 31.2486C241.641 31.2486 239.231 35.7493 238.168 40.6416C238.131 43.2303 237.954 45.214 237.954 45.214C238.061 45.3206 238.131 45.604 238.131 45.8874C238.131 46.3491 237.954 46.8426 237.281 46.8426C235.934 46.8426 233.595 45.4257 233.595 43.6888C233.595 41.9519 234.55 40.925 234.55 32.9855C234.55 31.075 233.169 30.0084 233.169 29.5833C233.169 29.1232 233.664 28.6981 234.054 28.6981C234.409 28.6981 235.117 28.7331 235.932 29.5483C237.244 30.8585 237.811 33.7306 238.059 36.6711C239.548 33.1272 241.497 29.5069 242.667 29.5069C245.82 29.5069 246.742 31.1387 246.742 31.8822C246.742 32.9457 245.997 37.6597 245.997 41.3103C245.997 43.8257 246.352 45.846 247.557 45.846C249.399 45.846 250.286 38.7232 250.393 37.6947C250.428 37.3763 250.57 37.2346 250.746 37.2346C251.136 37.2346 251.701 37.9431 251.701 38.6165V38.7232C251.418 41.4153 250.816 48.2914 246.846 48.2914C243.585 48.2914 241.46 44.6774 241.46 39.36" fill="#144A8F"/>
<path d="M261.012 37.8762C261.402 37.8762 262.005 38.5863 262.005 39.2947V39.3648C261.827 42.802 259.139 47.9777 254.667 48.0844H254.601C252.014 48.0844 250.418 46.1341 250.418 43.8304C250.418 43.1936 250.808 42.802 251.02 42.802C251.127 42.802 251.198 42.8736 251.198 43.0519C251.198 44.0071 251.765 45.674 252.935 45.674C254.176 45.674 255.061 44.4338 255.061 42.4899C255.061 40.1863 253.502 37.9542 252.195 36.0756L251.983 35.7572C251.805 38.4509 251.557 40.1863 251.557 40.1863C251.557 40.1863 251.557 40.3279 251.38 40.3279C250.955 40.2579 250.21 39.9029 250.21 39.4428V39.3711C250.21 39.3711 250.495 37.2808 250.671 33.6653C250.516 33.3825 250.43 33.0662 250.423 32.7435C250.423 29.7679 253.684 28.6678 254.534 28.6678C255.384 28.6678 255.739 29.0229 255.739 29.803C255.739 29.9797 255.42 30.7948 255.42 31.8583C255.42 36.324 259.143 37.2808 259.143 42.5966C259.142 43.1097 259.083 43.6209 258.964 44.1202C260.276 42.5281 260.556 40.2213 260.701 38.3092C260.736 37.9908 260.843 37.8826 261.02 37.8826" fill="#144A8F"/>
<path d="M12.082 42.5187L10.0235 47.368L9.67482 52.1441H14.4509L15.3807 51.6204L18.0728 51.7143L18.1142 52.9879H23.118L23.4778 51.7143H27.2573C27.2573 51.7143 26.1986 42.4024 24.3916 41.1575C17.5315 45.819 12.0804 42.5234 12.0804 42.5234" fill="white"/>
<path d="M24.484 47.9554L24.7626 51.5041H23.4364L24.484 47.9554Z" fill="#2494D1"/>
<path d="M11.3719 43.8559C11.3719 43.8559 15.524 46.3363 20.5023 43.8559C24.4824 41.877 12.082 42.5186 12.082 42.5186L11.3719 43.8559Z" fill="#2494D1"/>
<path d="M27.2876 53.6772H23.2295L23.4762 51.7079H27.2573C27.2573 51.7079 27.2971 53.0356 27.2908 53.6772" fill="#EB2126"/>
<path d="M27.2876 54.3124H23.2295C23.139 54.3131 23.0494 54.2944 22.9667 54.2578C22.884 54.2211 22.8101 54.1672 22.7498 54.0997C22.6896 54.0323 22.6444 53.9527 22.6173 53.8664C22.5902 53.7801 22.5818 53.689 22.5926 53.5992L22.8442 51.6362C22.8637 51.4815 22.9393 51.3392 23.0567 51.2365C23.174 51.1338 23.325 51.0778 23.481 51.079H27.2573C27.4227 51.0789 27.5816 51.1432 27.7004 51.2581C27.8193 51.3731 27.8888 51.5298 27.8941 51.6951C27.8941 51.6951 27.9339 53.0404 27.9276 53.6899C27.9238 53.8569 27.8546 54.0157 27.7349 54.1321C27.6152 54.2485 27.4546 54.3133 27.2876 54.3124ZM23.9443 53.0388H26.6507C26.6507 52.8016 26.6412 52.5612 26.6364 52.3415H24.0382L23.9443 53.0388Z" fill="#144A8F"/>
<path d="M25.9041 41.6398C25.9041 41.6398 28.714 37.9256 33.1224 38.9604C37.5307 39.9952 38.6818 37.3811 38.6818 37.3811C38.6818 37.3811 36.4911 45.3986 30.8808 43.1873C30.8808 43.1873 31.7421 43.91 32.5365 44.6058C30.8537 45.8141 29.327 46.5321 26.3069 44.714" fill="#2494D1"/>
<path d="M25.5236 42.2735C25.5236 42.2735 28.3717 38.1039 31.9809 38.9477C35.59 39.7915 37.7648 38.8999 37.7648 38.8999C37.7648 38.8999 35.2525 44.0454 31.2374 41.6669C30.5385 41.167 29.6024 41.2784 29.1455 41.9153C28.6886 42.5521 28.8844 43.4755 29.5833 43.9754C28.5262 44.4036 27.1188 43.8575 26.3642 43.3545" fill="white"/>
<path d="M13.2474 43.0567C13.2474 43.0567 13.6884 41.9216 12.0836 42.5186C10.4788 43.1156 9.44238 52.1648 9.44238 52.1648H10.162C10.5568 52.1648 11.3496 52.09 11.3226 51.6967C11.3226 51.6967 11.3719 49.0221 11.5582 47.5304C11.9307 46.1596 13.2474 43.0567 13.2474 43.0567Z" fill="#2494D1"/>
<path d="M32.5508 21.6708C32.5508 30.314 25.6621 43.8575 17.1654 43.8575C8.66866 43.8575 1.78468 30.314 1.78468 21.6708C1.78468 13.0276 8.67344 9.57129 17.1702 9.57129C25.6669 9.57129 32.5556 13.034 32.5556 21.6708" fill="white"/>
<path d="M17.1654 44.4928C8.32159 44.4928 1.14786 30.6834 1.14786 21.6709C1.14786 13.5738 6.98746 8.93457 17.1701 8.93457C27.3528 8.93457 33.1908 13.5801 33.1908 21.6709C33.1861 30.6834 26.0091 44.4928 17.1654 44.4928ZM17.1654 10.2002C12.7299 10.2002 2.41512 11.3147 2.41512 21.6709C2.41512 29.9845 9.16537 43.2223 17.1654 43.2223C25.1654 43.2223 31.9156 29.9845 31.9156 21.6709C31.9156 11.3179 21.5992 10.2002 17.1654 10.2002Z" fill="#144A8F"/>
<path d="M3.98488 20.2301C3.98488 20.2301 2.47244 20.4721 1.72896 20.1632C0.729161 19.7477 2.35304 18.4995 2.35304 18.4995L3.98488 20.2301Z" fill="#2494D1"/>
<path d="M20.8653 18.6173C20.8653 20.5437 19.5916 21.1869 17.2036 22.0943C14.4971 22.0943 9.03801 20.5437 9.03801 18.6173C9.03801 16.6909 14.9986 15.1276 17.7051 15.1276C20.4115 15.1276 20.8605 16.6894 20.8605 18.6173" fill="#2494D1"/>
<path d="M19.4882 35.9641C19.4882 35.9641 18.6476 32.4617 21.2808 31.2852C20.7825 32.632 19.7556 35.555 20.3988 36.5866C21.042 37.6183 19.4882 35.9641 19.4882 35.9641Z" fill="#2494D1"/>
<path d="M17.1654 44.4928C8.32159 44.4928 1.14786 30.6834 1.14786 21.6709C1.14786 13.5738 6.98746 8.93457 17.1701 8.93457C27.3528 8.93457 33.1908 13.5801 33.1908 21.6709C33.1861 30.6834 26.0091 44.4928 17.1654 44.4928ZM17.1654 10.2002C12.7299 10.2002 2.41512 11.3147 2.41512 21.6709C2.41512 29.9845 9.16537 43.2223 17.1654 43.2223C25.1654 43.2223 31.9156 29.9845 31.9156 21.6709C31.9156 11.3179 21.5992 10.2002 17.1654 10.2002Z" fill="#144A8F"/>
<path d="M12.2412 24.6957C12.2412 24.6957 13.1009 28.3574 18.8482 28.9067C19.2334 28.9433 19.4611 28.4704 19.2541 28.1441C18.9835 27.7158 18.1206 27.0217 18.1079 26.4533C19.3815 26.6014 21.4511 27.2191 22.5401 26.63C22.6148 26.5891 22.6766 26.5281 22.7186 26.4539C22.7606 26.3798 22.7811 26.2954 22.7778 26.2103C22.7744 26.1251 22.7475 26.0426 22.6999 25.9719C22.6523 25.9012 22.5859 25.8452 22.5083 25.8101C21.803 25.4917 21.838 24.3041 21.5116 23.6959" fill="#2494D1"/>
<path d="M12.4115 23.5319C12.4115 23.5319 12.9067 27.5677 20.0645 27.0471C19.6394 26.4963 19.1873 25.9057 19.1682 25.1033C20.5883 25.2625 22.3825 25.3055 23.2868 24.2467C22.443 24.0987 21.4973 23.4507 21.1057 22.7168" fill="white"/>
<path d="M18.8195 27.7302C12.3606 27.7302 11.8002 23.7867 11.7779 23.61C11.7682 23.4486 11.8202 23.2895 11.9235 23.1651C12.0267 23.0407 12.1734 22.9602 12.3338 22.9399C12.4942 22.9196 12.6563 22.9612 12.7873 23.056C12.9182 23.1509 13.0081 23.292 13.0388 23.4508C13.0595 23.5925 13.553 26.4597 18.8211 26.4597H18.8943C18.6681 26.0482 18.5431 25.5887 18.5298 25.1192C18.5287 25.0295 18.5465 24.9406 18.5822 24.8583C18.6179 24.776 18.6705 24.7022 18.7367 24.6416C18.8041 24.5809 18.8838 24.5353 18.9703 24.5078C19.0567 24.4804 19.1481 24.4717 19.2382 24.4824C20.3845 24.6162 21.2665 24.5859 21.9033 24.3901C21.339 24.0624 20.8698 23.5932 20.5421 23.0289C20.4824 22.8834 20.4786 22.721 20.5315 22.5729C20.5844 22.4248 20.6902 22.3015 20.8286 22.2267C20.967 22.152 21.1281 22.1311 21.281 22.1681C21.4339 22.2051 21.5676 22.2974 21.6565 22.4271C21.9495 22.9748 22.7264 23.5161 23.3871 23.6323C23.497 23.6522 23.5998 23.7007 23.6851 23.773C23.7704 23.8452 23.8351 23.9386 23.8729 24.0438C23.9106 24.149 23.92 24.2622 23.9002 24.3722C23.8803 24.4822 23.8318 24.585 23.7596 24.6703C22.8505 25.737 21.319 25.8946 19.9849 25.8245C20.1487 26.1238 20.3406 26.4069 20.558 26.6699C20.6277 26.7609 20.6716 26.8691 20.6849 26.983C20.6982 27.0969 20.6805 27.2122 20.6338 27.3169C20.587 27.4216 20.5128 27.5117 20.419 27.5777C20.3253 27.6437 20.2154 27.6832 20.1011 27.692C19.6543 27.7185 19.2271 27.7312 18.8195 27.7302Z" fill="#144A8F"/>
<path d="M21.9176 17.9089C21.9176 19.1666 19.7907 21.4798 17.1654 21.4798C14.5401 21.4798 12.4115 19.1666 12.4115 17.9089C12.4115 16.6512 14.314 0.636841 16.9409 0.636841C19.5678 0.636841 21.9176 16.6528 21.9176 17.9089Z" fill="white"/>
<path d="M17.1654 22.1166C14.2424 22.1166 11.7763 19.5327 11.7763 17.9089C11.7763 17.7258 13.3827 0 16.9409 0C20.5421 0 22.5544 17.7305 22.5544 17.9089C22.5544 19.5327 20.0931 22.1166 17.1654 22.1166ZM16.9409 1.27204C15.3091 1.27204 13.0484 15.4062 13.0484 17.9089C13.0484 18.7606 14.8299 20.8446 17.1654 20.8446C19.5009 20.8446 21.2824 18.7606 21.2824 17.9089C21.2824 17.3421 20.6965 13.0468 19.7922 8.9393C18.1493 1.48697 16.952 1.27204 16.9409 1.27204Z" fill="#144A8F"/>
<path d="M20.0215 40.4378C20.0884 40.7753 19.5343 40.4203 18.9612 40.5333C18.3881 40.6464 18.006 41.1861 17.9455 40.8517C17.885 40.5174 18.2225 39.8121 18.7956 39.6975C19.3688 39.5829 19.9546 40.1019 20.0215 40.441" fill="#144A8F"/>
<path d="M14.3618 40.4378C14.2949 40.7753 14.849 40.4203 15.4221 40.5333C15.9952 40.6464 16.3773 41.1861 16.4378 40.8517C16.4983 40.5174 16.1608 39.8121 15.5877 39.6975C15.0145 39.5829 14.4287 40.1019 14.3618 40.441" fill="#144A8F"/>
<path d="M8.31204 12.714C8.31204 12.714 4.55482 10.8545 1.08099 11.0774C-0.152839 14.6483 1.26089 18.2193 3.94666 19.6107" fill="white"/>
<path d="M3.9387 20.2475C3.83678 20.2471 3.7364 20.2225 3.64577 20.1759C0.561989 18.5727 -0.799204 14.5719 0.479203 10.8688C0.520284 10.7505 0.595365 10.6469 0.695046 10.571C0.794727 10.4951 0.914579 10.4503 1.0396 10.4422C4.65035 10.2034 8.43462 12.0645 8.59383 12.1441C8.73538 12.2243 8.84086 12.3556 8.88864 12.5111C8.93642 12.6666 8.92286 12.8345 8.85076 12.9804C8.77865 13.1262 8.65347 13.2389 8.50089 13.2954C8.34831 13.3518 8.17991 13.3477 8.03025 13.284C7.99681 13.268 4.68696 11.6601 1.55224 11.6919C0.705273 14.685 1.81492 17.791 4.23164 19.0471C4.35734 19.1133 4.45732 19.2195 4.5157 19.349C4.57407 19.4785 4.58749 19.6237 4.55382 19.7617C4.52015 19.8997 4.44132 20.0224 4.32987 20.1105C4.21841 20.1985 4.08073 20.2468 3.9387 20.2475Z" fill="#144A8F"/>
<path d="M2.30209 13.4607C2.21771 13.9924 2.32597 16.2181 4.30647 17.7767C4.32222 17.7935 4.34342 17.8041 4.36629 17.8067C4.38916 17.8093 4.4122 17.8037 4.43132 17.7909C4.45044 17.7781 4.46439 17.7589 4.47068 17.7368C4.47697 17.7147 4.4752 17.691 4.46567 17.6701C4.34086 17.3253 4.25905 16.9665 4.22209 16.6018C4.22052 16.5803 4.22501 16.5589 4.23505 16.5399C4.24509 16.5209 4.26028 16.5051 4.27887 16.4943C4.29747 16.4835 4.31873 16.4781 4.34022 16.4788C4.36171 16.4796 4.38256 16.4863 4.4004 16.4983C4.58189 16.6209 4.80478 16.7069 5.23622 16.6161C5.26842 16.6092 5.29853 16.5947 5.32413 16.574C5.34972 16.5532 5.37008 16.5268 5.38356 16.4967C5.39704 16.4666 5.40326 16.4338 5.40173 16.4009C5.4002 16.368 5.39095 16.3359 5.37473 16.3073C5.27749 16.1628 5.20986 16.0004 5.17572 15.8296C5.17148 15.8007 5.17368 15.7711 5.18218 15.7431C5.19067 15.7151 5.20525 15.6893 5.22486 15.6675C5.24448 15.6458 5.26865 15.6286 5.29566 15.6173C5.32266 15.606 5.35184 15.6007 5.3811 15.602C6.13572 15.6291 6.72478 15.723 7.19602 15.3855" fill="#2494D1"/>
<path d="M6.92378 14.9079C5.6209 14.2983 4.24454 13.86 2.82906 13.604L6.92378 14.9079Z" fill="white"/>
<path d="M6.92378 15.5431C6.82617 15.5425 6.72991 15.5202 6.64199 15.4778C5.39427 14.896 4.07694 14.4771 2.72239 14.2312C2.56167 14.197 2.42041 14.1019 2.32814 13.966C2.23587 13.83 2.19973 13.6636 2.22728 13.5016C2.25482 13.3396 2.34393 13.1945 2.47596 13.0967C2.60798 12.9989 2.77272 12.9559 2.93572 12.9767C4.41242 13.2417 5.84796 13.6993 7.20557 14.3379C7.33299 14.4023 7.43508 14.5076 7.49546 14.637C7.55583 14.7663 7.57098 14.9122 7.53847 15.0513C7.50597 15.1903 7.4277 15.3143 7.31622 15.4035C7.20475 15.4927 7.06654 15.5418 6.92378 15.5431Z" fill="#144A8F"/>
<path d="M26.0171 12.714C26.0171 12.714 29.7759 10.8545 33.2498 11.0774C34.4836 14.6483 33.0699 18.2193 30.3841 19.6107" fill="white"/>
<path d="M30.392 20.2476C30.2499 20.2472 30.112 20.1992 30.0002 20.1113C29.8885 20.0234 29.8094 19.9006 29.7755 19.7625C29.7417 19.6245 29.755 19.4791 29.8133 19.3494C29.8717 19.2198 29.9717 19.1134 30.0975 19.0472C32.511 17.7911 33.6255 14.685 32.7785 11.6952C29.6247 11.6442 26.3339 13.2681 26.3021 13.284C26.1524 13.3478 25.984 13.3519 25.8314 13.2954C25.6789 13.239 25.5537 13.1263 25.4816 12.9804C25.4095 12.8346 25.3959 12.6667 25.4437 12.5112C25.4915 12.3557 25.597 12.2243 25.7385 12.1441C25.8977 12.0661 29.6915 10.2114 33.2943 10.4422C33.4194 10.4503 33.5392 10.4951 33.6389 10.571C33.7386 10.6469 33.8136 10.7505 33.8547 10.8689C35.1284 14.572 33.7719 18.5728 30.6866 20.176C30.5956 20.2232 30.4946 20.2478 30.392 20.2476Z" fill="#144A8F"/>
<path d="M32.0334 13.4607C32.1178 13.9924 32.0095 16.2181 30.029 17.7767C30.0133 17.7935 29.9921 17.8041 29.9692 17.8067C29.9464 17.8093 29.9233 17.8037 29.9042 17.7909C29.8851 17.7781 29.8711 17.7589 29.8648 17.7368C29.8585 17.7147 29.8603 17.691 29.8698 17.6701C29.9939 17.3251 30.0757 16.9664 30.1134 16.6018C30.115 16.5803 30.1105 16.5589 30.1005 16.5399C30.0904 16.5209 30.0752 16.5051 30.0566 16.4943C30.038 16.4835 30.0168 16.4781 29.9953 16.4788C29.9738 16.4796 29.953 16.4863 29.9351 16.4983C29.7536 16.6209 29.5307 16.7069 29.0993 16.6161C29.0671 16.6092 29.037 16.5947 29.0114 16.574C28.9858 16.5532 28.9654 16.5268 28.952 16.4967C28.9385 16.4666 28.9323 16.4338 28.9338 16.4009C28.9353 16.368 28.9446 16.3359 28.9608 16.3073C29.0574 16.1624 29.125 16.0002 29.1598 15.8296C29.164 15.8007 29.1618 15.7711 29.1533 15.7431C29.1448 15.7151 29.1303 15.6893 29.1107 15.6675C29.091 15.6458 29.0669 15.6286 29.0399 15.6173C29.0129 15.606 28.9837 15.6007 28.9544 15.602C28.1998 15.6291 27.6107 15.723 27.1395 15.3855" fill="#2494D1"/>
<path d="M27.4054 14.9079C28.7088 14.2981 30.0857 13.8598 31.5017 13.604L27.4054 14.9079Z" fill="white"/>
<path d="M27.407 15.5431C27.2641 15.5422 27.1256 15.4933 27.0139 15.4042C26.9021 15.3152 26.8236 15.1911 26.7909 15.052C26.7582 14.9129 26.7732 14.7669 26.8335 14.6373C26.8939 14.5078 26.996 14.4023 27.1236 14.3379C28.4822 13.699 29.9188 13.2414 31.3966 12.9767C31.5596 12.9559 31.7243 12.9989 31.8564 13.0967C31.9884 13.1945 32.0775 13.3396 32.1051 13.5016C32.1326 13.6636 32.0965 13.83 32.0042 13.966C31.9119 14.1019 31.7707 14.197 31.6099 14.2312C30.2549 14.4772 28.9371 14.8962 27.6888 15.4778C27.6008 15.5202 27.5046 15.5425 27.407 15.5431Z" fill="#144A8F"/>
<path d="M29.752 34.802C28.1329 38.3045 24.9457 40.2754 22.6324 39.2072C20.3192 38.1389 19.7572 34.4311 21.3747 30.9286C22.9922 27.4261 26.1811 25.4535 28.4943 26.5234C30.8076 27.5932 31.3711 31.2995 29.752 34.802Z" fill="white"/>
<path d="M23.9888 40.1354C23.4289 40.1379 22.8752 40.0179 22.3666 39.7835C21.0468 39.1738 20.1711 37.8572 19.9005 36.0757C19.6442 34.3913 19.9642 32.4681 20.7984 30.6627C22.5624 26.8418 26.1365 24.734 28.7586 25.9471C31.3807 27.1603 32.0891 31.2534 30.3268 35.0679C29.4909 36.8733 28.2332 38.3619 26.7845 39.2582C25.8468 39.8409 24.8915 40.1354 23.9888 40.1354ZM27.157 26.8737C25.3309 26.8737 23.1498 28.6058 21.9526 31.1961C21.2219 32.7786 20.9385 34.4438 21.1566 35.8846C21.3604 37.2299 21.9797 38.2058 22.8983 38.6293C23.8169 39.0528 24.968 38.8936 26.1174 38.1772C27.356 37.4098 28.4418 36.1171 29.1725 34.5346C30.6165 31.411 30.1835 28.0072 28.2269 27.1014C27.8911 26.9485 27.5259 26.8708 27.157 26.8737Z" fill="#144A8F"/>
<path d="M4.57871 34.802C6.19622 38.3045 9.38349 40.2755 11.6967 39.2072C14.01 38.1389 14.5735 34.4311 12.9544 30.9286C11.3353 27.4261 8.15284 25.4551 5.83483 26.525C3.51682 27.5949 2.95961 31.3011 4.57871 34.8036" fill="white"/>
<path d="M10.3403 40.1353C9.43762 40.1353 8.48239 39.8408 7.54309 39.2581C6.09433 38.3618 4.83662 36.87 4.0008 35.0678C2.23841 31.2469 2.9405 27.1618 5.56896 25.947C8.19742 24.7323 11.7684 26.8481 13.5292 30.6627C14.3634 32.468 14.6818 34.3912 14.4255 36.0756C14.1548 37.8571 13.2792 39.1737 11.961 39.7835C11.4529 40.0175 10.8997 40.1376 10.3403 40.1353ZM7.17374 26.8736C6.80425 26.8703 6.43853 26.948 6.10229 27.1013C4.14568 28.0071 3.71423 31.4109 5.15503 34.5345C5.88578 36.117 6.97155 37.4097 8.21175 38.1771C9.36916 38.8999 10.5122 39.0591 11.4309 38.6292C12.3495 38.1994 12.9672 37.2298 13.1725 35.8845C13.3907 34.4437 13.1089 32.7785 12.3765 31.196C11.1777 28.6057 8.99981 26.8736 7.17374 26.8736Z" fill="#144A8F"/>
<path d="M4.57871 34.802C6.19622 38.3045 9.38349 40.2755 11.6967 39.2072C14.01 38.1389 14.5735 34.4311 12.9544 30.9286C11.3353 27.4261 8.15284 25.4551 5.83483 26.525C3.51682 27.5949 2.95961 31.3011 4.57871 34.8036" fill="white"/>
<path d="M10.3403 40.1353C9.43762 40.1353 8.48239 39.8408 7.54309 39.2581C6.09433 38.3618 4.83662 36.87 4.0008 35.0678C2.23841 31.2469 2.9405 27.1618 5.56896 25.947C8.19742 24.7323 11.7684 26.8481 13.5292 30.6627C14.3634 32.468 14.6818 34.3912 14.4255 36.0756C14.1548 37.8571 13.2792 39.1737 11.961 39.7835C11.4529 40.0175 10.8997 40.1376 10.3403 40.1353ZM7.17374 26.8736C6.80425 26.8703 6.43853 26.948 6.10229 27.1013C4.14568 28.0071 3.71423 31.4109 5.15503 34.5345C5.88578 36.117 6.97155 37.4097 8.21175 38.1771C9.36916 38.8999 10.5122 39.0591 11.4309 38.6292C12.3495 38.1994 12.9672 37.2298 13.1725 35.8845C13.3907 34.4437 13.1089 32.7785 12.3765 31.196C11.1777 28.6057 8.99981 26.8736 7.17374 26.8736Z" fill="#144A8F"/>
<path d="M13.1805 32.0541C13.0827 32.277 12.9352 32.4745 12.7492 32.6314C12.5632 32.7883 12.3437 32.9006 12.1076 32.9594C11.8714 33.0183 11.6249 33.0222 11.387 32.9709C11.1491 32.9196 10.9261 32.8145 10.7352 32.6636C10.5443 32.5126 10.3905 32.32 10.2857 32.1003C10.1809 31.8807 10.1278 31.6399 10.1306 31.3966C10.1333 31.1532 10.1919 30.9138 10.3016 30.6966C10.4114 30.4794 10.5695 30.2902 10.7638 30.1437C10.7001 30.1437 10.6396 30.1245 10.5743 30.1245C9.98347 30.1145 9.4047 30.2924 8.92146 30.6325C8.43822 30.9726 8.0755 31.4575 7.8856 32.0171C7.6957 32.5767 7.68843 33.1821 7.86485 33.7461C8.04127 34.3101 8.39226 34.8035 8.86719 35.1551C9.34213 35.5067 9.91647 35.6985 10.5074 35.7026C11.0983 35.7067 11.6753 35.5231 12.1551 35.1781C12.6349 34.8332 12.9928 34.3447 13.1771 33.7833C13.3613 33.2218 13.3625 32.6163 13.1805 32.0541Z" fill="#144A8F"/>
<path d="M13.8428 38.9652C13.4454 39.4584 13.2471 40.0826 13.2872 40.7147C13.3273 41.3468 13.6028 41.941 14.0593 42.3801C14.728 43.0169 16.191 43.3942 16.9409 43.4595C16.9409 43.4595 11.4738 43.0997 9.63342 40.4028C10.4294 39.5813 12.4991 38.4637 13.1168 37.6756C13.7345 36.8875 15.0448 35.356 15.9172 36.1234" fill="#2494D1"/>
<path d="M15.048 35.9197C15.048 35.9197 16.0923 29.9718 11.5566 28.2699C12.5341 30.4717 14.5576 35.2606 13.5881 37.0564C12.6185 38.8522 15.048 35.9197 15.048 35.9197Z" fill="#2494D1"/>
<path d="M17.1622 44.4927C14.1134 44.4927 11.0472 42.8609 8.29294 39.7755C8.24514 39.7204 8.20644 39.6581 8.17831 39.5908C6.54169 38.8044 4.99423 37.2028 4.0008 35.0694C2.23841 31.2485 2.94209 27.1618 5.56896 25.9471C6.88717 25.3373 8.45851 25.5236 9.99005 26.4724C11.4404 27.3687 12.6965 28.8605 13.5323 30.6627C14.3506 32.4346 14.6372 34.2671 14.4462 35.8432C15.2026 35.1398 16.2023 34.7569 17.2351 34.775C18.2679 34.7931 19.2535 35.2108 19.9849 35.9403L22.2488 38.1914C22.3558 38.3127 22.4127 38.4702 22.4079 38.6318C22.4031 38.7935 22.337 38.9474 22.2229 39.062C22.1088 39.1767 21.9554 39.2437 21.7937 39.2494C21.632 39.255 21.4743 39.199 21.3524 39.0925L19.087 36.8398C18.577 36.3314 17.8863 36.046 17.1662 36.046C16.4461 36.046 15.7554 36.3314 15.2454 36.8398L13.0308 39.0448C13.0108 39.0641 12.9895 39.0822 12.9672 39.0989C12.6731 39.3815 12.3341 39.6133 11.9642 39.7851C11.4768 40.0077 10.9477 40.1243 10.4119 40.1274C12.1298 41.7194 14.4573 43.2223 17.1622 43.2223C17.3311 43.2223 17.4931 43.2894 17.6125 43.4088C17.7319 43.5282 17.799 43.6902 17.799 43.8591C17.799 44.028 17.7319 44.19 17.6125 44.3094C17.4931 44.4288 17.3311 44.4959 17.1622 44.4959V44.4927ZM5.15503 34.5345C6.62448 37.7186 9.43602 39.551 11.4308 38.6292C13.3875 37.725 13.8189 34.3212 12.3861 31.196C11.6553 29.6151 10.5696 28.3208 9.32935 27.5534C8.17194 26.837 7.02886 26.6778 6.11025 27.1013C4.15363 28.0056 3.72219 31.4109 5.16299 34.5345H5.15503Z" fill="#144A8F"/>
<path d="M29.4225 46.2487C28.2826 46.2316 27.1609 45.9596 26.1397 45.4527C25.9965 45.3747 25.8887 45.2449 25.8384 45.0898C25.7882 44.9347 25.7993 44.7663 25.8695 44.6192C25.9397 44.472 26.0636 44.3574 26.2158 44.299C26.3679 44.2405 26.5367 44.2426 26.6874 44.3048C28.3972 45.1215 30.0625 45.1884 31.4635 44.515C30.9206 44.0501 30.4796 43.6776 30.478 43.6776C30.3651 43.5801 30.2899 43.446 30.2657 43.2987C30.2416 43.1515 30.2698 43.0004 30.3457 42.8719C30.4215 42.7434 30.54 42.6456 30.6806 42.5956C30.8212 42.5455 30.9749 42.5465 31.1148 42.5982C32.3073 43.0758 33.3707 43.0567 34.3642 42.5599C35.6203 41.9327 36.5309 40.64 37.1359 39.4825C36.1807 39.8567 34.8291 40.0175 32.9696 39.5828C29.0197 38.6547 26.0458 42.3387 26.0171 42.3753C25.9094 42.4976 25.7589 42.5739 25.5966 42.5886C25.4343 42.6033 25.2725 42.5552 25.1446 42.4542C25.0167 42.3532 24.9324 42.2071 24.909 42.0458C24.8856 41.8845 24.9249 41.7204 25.0189 41.5872C25.159 41.4089 28.5118 37.2298 33.2609 38.3442C37.0515 39.2326 38.0545 37.2059 38.0959 37.12C38.1632 36.9753 38.2823 36.8612 38.4297 36.8001C38.5772 36.7391 38.7421 36.7356 38.8919 36.7904C39.0407 36.8453 39.1636 36.9538 39.2366 37.0945C39.3096 37.2353 39.3275 37.3982 39.2868 37.5514C39.2358 37.7393 37.9972 42.1683 34.9341 43.6951C34.3399 43.9968 33.6892 44.1709 33.0237 44.2061C33.0785 44.2734 33.119 44.3511 33.1426 44.4346C33.1663 44.5181 33.1727 44.6055 33.1614 44.6915C33.15 44.7775 33.1212 44.8603 33.0768 44.9348C33.0323 45.0093 32.973 45.0739 32.9027 45.1247C31.8909 45.8584 30.6723 46.252 29.4225 46.2487Z" fill="#144A8F"/>
<path d="M14.8824 52.5994H9.67482V54.755H14.8824V52.5994Z" fill="#EB2126"/>
<path d="M22.9493 53.5658H17.7433V55.7214H22.9493V53.5658Z" fill="#EB2126"/>
<path d="M20.2603 56.0016C20.0914 56.0016 19.9294 55.9345 19.81 55.815C19.6906 55.6956 19.6235 55.5336 19.6235 55.3647V54.4859C19.6235 54.317 19.6906 54.1551 19.81 54.0356C19.9294 53.9162 20.0914 53.8491 20.2603 53.8491C20.4292 53.8491 20.5912 53.9162 20.7106 54.0356C20.83 54.1551 20.8971 54.317 20.8971 54.4859V55.3647C20.8971 55.5336 20.83 55.6956 20.7106 55.815C20.5912 55.9345 20.4292 56.0016 20.2603 56.0016Z" fill="#144A8F"/>
<path d="M9.76558 52.3654C9.76558 52.3654 10.4852 52.3654 11.0392 52.3336C11.2143 52.3256 11.3401 52.5612 11.2732 52.7778C11.0169 53.6152 11.2382 54.2918 11.044 54.5529C10.8116 54.8601 9.51404 54.3841 9.51404 54.3841L9.76558 52.3654Z" fill="#A62126"/>
<path d="M17.6685 53.4209C17.6685 53.4209 18.3817 53.327 18.9278 53.2299C19.0997 53.1996 19.2462 53.4177 19.2143 53.6406C19.0663 54.5035 19.3735 55.1467 19.2143 55.4301C19.0217 55.766 17.6748 55.4556 17.6748 55.4556L17.6685 53.4209Z" fill="#A62126"/>
<path d="M14.7885 17.1048C14.7885 17.1048 17.4535 19.3464 19.2764 18.8561C20.3781 18.5584 19.2143 20.9257 14.9429 20.3319C10.4979 19.711 12.8016 15.1785 12.8016 15.1785L14.7885 17.1048Z" fill="#EB2126"/>
<path d="M15.3727 12.4609C15.6784 13.1837 18.0012 14.2758 19.6171 14.1835C19.7239 14.1759 19.8302 14.2044 19.9188 14.2645C20.0074 14.3245 20.0733 14.4126 20.1059 14.5146C20.4928 15.766 20.5055 17.2068 20.1807 17.7863C19.8623 18.3403 12.7714 17.0348 12.7411 14.045C12.7109 11.0551 13.9081 10.9962 13.9081 10.9962L15.3727 12.4609Z" fill="#EB2126"/>
<path d="M15.4189 7.46344C15.6593 8.15279 17.4758 9.24811 18.6985 9.35796C18.8423 9.37154 18.9791 9.42663 19.0921 9.51651C19.2052 9.60639 19.2897 9.7272 19.3353 9.86423C19.6537 10.8004 19.7477 11.8113 19.8989 12.7156C19.9944 13.2823 13.2824 12.0374 13.2569 9.05388C13.2315 6.0704 14.2122 6.00513 14.2122 6.00513L15.4189 7.46344Z" fill="#EB2126"/>
<path d="M19.4086 18.3864C17.3787 18.3864 15.5574 17.5347 14.8904 17.1828C13.6533 16.5269 12.2921 15.4809 12.1536 14.5098C12.139 14.3465 12.1879 14.1838 12.2902 14.0557C12.3924 13.9276 12.5402 13.8438 12.7027 13.8218C12.8651 13.7999 13.0298 13.8414 13.1624 13.9379C13.295 14.0343 13.3853 14.1781 13.4145 14.3394C13.4575 14.5894 14.1803 15.4013 15.6545 16.1448C16.4601 16.5508 19.2669 17.7862 21.5705 16.6336C21.6457 16.5904 21.7289 16.5631 21.8149 16.5532C21.901 16.5433 21.9882 16.5511 22.0712 16.576C22.1542 16.601 22.2312 16.6427 22.2975 16.6984C22.3638 16.7542 22.4181 16.8229 22.4569 16.9004C22.4958 16.9779 22.5184 17.0624 22.5234 17.1489C22.5284 17.2354 22.5157 17.3221 22.4861 17.4035C22.4565 17.4849 22.4106 17.5595 22.3511 17.6225C22.2917 17.6856 22.22 17.7359 22.1405 17.7703C21.2906 18.1865 20.3549 18.3975 19.4086 18.3864ZM19.0376 13.6103C17.6901 13.5826 16.3693 13.2292 15.1881 12.5802C14.115 12.0119 12.929 11.0996 12.8127 10.2431C12.7962 10.0791 12.844 9.91505 12.946 9.78551C13.048 9.65597 13.1962 9.57103 13.3595 9.54855C13.5229 9.52607 13.6885 9.56781 13.8217 9.66499C13.9549 9.76216 14.0452 9.9072 14.0736 10.0696C14.1325 10.2829 14.8267 11.0407 16.2197 11.676C17.0364 12.0485 19.1236 12.8206 20.8605 11.9482C21.0098 11.8836 21.1782 11.8786 21.331 11.9342C21.4839 11.9898 21.6097 12.1018 21.6826 12.2472C21.7555 12.3927 21.77 12.5605 21.7231 12.7162C21.6762 12.872 21.5715 13.0039 21.4304 13.0849C20.6846 13.4439 19.8652 13.6238 19.0376 13.6103Z" fill="#144A8F"/>
<path d="M18.7033 6.56243C18.7348 6.69276 18.7148 6.83023 18.6475 6.94619C18.5802 7.06215 18.4707 7.14767 18.3419 7.18491C17.8474 7.35783 17.3292 7.45394 16.8056 7.46989C14.9986 7.51288 14.2615 5.31904 14.2615 5.31904C14.2615 5.31904 14.9668 1.1081 16.5525 1.15108C17.0906 1.16541 18.2957 4.8669 18.7033 6.56402" fill="#EB2126"/>
<path d="M17.1654 22.1166C14.2424 22.1166 11.7763 19.5327 11.7763 17.9089C11.7763 17.8006 12.3781 11.122 13.6581 5.95423C13.6644 5.89623 13.6789 5.83942 13.7011 5.78547C14.5099 2.5807 15.5829 0 16.9409 0C20.5421 0 22.5544 17.7305 22.5544 17.9089C22.5544 19.5327 20.0931 22.1166 17.1654 22.1166ZM14.6388 7.42368C13.7425 11.563 13.0468 16.5238 13.0468 17.9089C13.0468 18.7606 14.8283 20.8446 17.1638 20.8446C19.4993 20.8446 21.2808 18.7606 21.2808 17.9089C21.2808 17.3421 20.6949 13.0468 19.7906 8.9393C19.7715 8.84856 19.7508 8.7594 19.7317 8.67184C18.4899 8.99025 16.9855 8.76736 15.5542 8.00955C15.2339 7.83908 14.9278 7.64316 14.6388 7.42368ZM14.9652 5.99085C15.1483 6.2392 15.7787 6.78687 16.7897 7.1801C17.3819 7.41254 18.4486 7.71821 19.4436 7.43801C17.9837 1.45353 16.9504 1.27363 16.9409 1.27363C16.32 1.27204 15.6084 3.31781 14.9652 5.98925V5.99085Z" fill="#144A8F"/>
<path d="M26.3578 32.0318C26.2619 32.2562 26.1156 32.4555 25.9304 32.6144C25.7451 32.7733 25.5258 32.8874 25.2894 32.948C25.053 33.0087 24.8058 33.0141 24.567 32.964C24.3281 32.9139 24.104 32.8095 23.9119 32.659C23.7198 32.5084 23.5649 32.3158 23.4592 32.0958C23.3534 31.8759 23.2996 31.6346 23.302 31.3905C23.3044 31.1465 23.3628 30.9063 23.4728 30.6884C23.5828 30.4705 23.7414 30.2809 23.9363 30.1341C23.8758 30.1341 23.8185 30.1166 23.7564 30.1166C23.2138 30.1166 22.6834 30.2775 22.2323 30.579C21.7811 30.8805 21.4296 31.309 21.222 31.8103C21.0144 32.3116 20.9602 32.8632 21.0662 33.3954C21.1721 33.9275 21.4335 34.4163 21.8173 34.7999C22.2011 35.1834 22.69 35.4446 23.2222 35.5502C23.7545 35.6559 24.306 35.6013 24.8073 35.3935C25.3085 35.1856 25.7368 34.8338 26.038 34.3825C26.3392 33.9312 26.4998 33.4007 26.4995 32.8581C26.4958 32.5769 26.448 32.2981 26.3578 32.0318Z" fill="#144A8F"/>
<path d="M17.1909 46.0641L17.2466 45.9272C17.8054 45.8205 18.6237 46.1914 18.8482 46.7136L19.563 48.796C19.6594 49.0777 19.6721 49.3813 19.5996 49.67L18.7733 52.9863L18.4629 49.2068L17.1909 46.0641Z" fill="#2494D1"/>
<path d="M12.1568 55.298C11.9879 55.298 11.826 55.2309 11.7065 55.1115C11.5871 54.992 11.52 54.8301 11.52 54.6612V53.8795C11.52 53.7106 11.5871 53.5486 11.7065 53.4292C11.826 53.3097 11.9879 53.2426 12.1568 53.2426C12.3257 53.2426 12.4877 53.3097 12.6071 53.4292C12.7265 53.5486 12.7936 53.7106 12.7936 53.8795V54.6612C12.7936 54.8301 12.7265 54.992 12.6071 55.1115C12.4877 55.2309 12.3257 55.298 12.1568 55.298ZM14.4494 52.781H9.67324C9.50434 52.781 9.34237 52.7139 9.22294 52.5944C9.10352 52.475 9.03642 52.313 9.03642 52.1441C9.03642 51.9752 9.10352 51.8133 9.22294 51.6938C9.34237 51.5744 9.50434 51.5073 9.67324 51.5073H14.4494C14.6183 51.5073 14.7802 51.5744 14.8997 51.6938C15.0191 51.8133 15.0862 51.9752 15.0862 52.1441C15.0862 52.313 15.0191 52.475 14.8997 52.5944C14.7802 52.7139 14.6183 52.781 14.4494 52.781Z" fill="#144A8F"/>
<path d="M22.6404 53.6184H18.1126C17.9437 53.6184 17.7818 53.5513 17.6623 53.4318C17.5429 53.3124 17.4758 53.1504 17.4758 52.9815C17.4758 52.8126 17.5429 52.6507 17.6623 52.5312C17.7818 52.4118 17.9437 52.3447 18.1126 52.3447H22.6404C22.8093 52.3447 22.9713 52.4118 23.0907 52.5312C23.2101 52.6507 23.2772 52.8126 23.2772 52.9815C23.2772 53.1504 23.2101 53.3124 23.0907 53.4318C22.9713 53.5513 22.8093 53.6184 22.6404 53.6184Z" fill="#144A8F"/>
<path d="M17.5889 46.8727C18.1731 47.457 19.1904 49.0713 18.7701 49.49C18.3498 49.9087 17.0189 49.5314 16.4394 48.9472C15.8599 48.3629 15.6673 47.5748 16.0876 47.1561C16.9488 47.5111 17.0046 46.2885 17.5889 46.8727Z" fill="#2494D1"/>
<path d="M14.392 55.3902H9.53313C9.44605 55.3903 9.35986 55.3726 9.2799 55.3381C9.19994 55.3036 9.12791 55.2531 9.06826 55.1896C9.00867 55.1259 8.9628 55.0506 8.93349 54.9685C8.90419 54.8863 8.89208 54.799 8.89791 54.712L9.38826 47.3233C9.39276 47.2612 9.40616 47.2001 9.42806 47.1418L11.3592 41.9948C11.4241 41.8447 11.5443 41.7254 11.6948 41.6615C11.8453 41.5976 12.0146 41.594 12.1676 41.6515C12.3207 41.709 12.4457 41.8232 12.5169 41.9704C12.5881 42.1175 12.6 42.2865 12.55 42.4421L10.6523 47.4969L10.2129 54.1198H13.7695L13.8603 50.0123C13.8626 49.9282 13.8815 49.8454 13.916 49.7687L15.0304 47.2804C15.0617 47.2 15.1089 47.1268 15.1693 47.0653C15.2296 47.0037 15.3018 46.9551 15.3815 46.9223C15.4612 46.8895 15.5468 46.8732 15.633 46.8744C15.7192 46.8756 15.8042 46.8943 15.883 46.9294C15.9617 46.9644 16.0325 47.0151 16.0911 47.0783C16.1497 47.1416 16.1948 47.216 16.2238 47.2972C16.2527 47.3784 16.2649 47.4647 16.2596 47.5507C16.2542 47.6367 16.2314 47.7208 16.1926 47.7978L15.1371 50.1683L15.0352 54.7693C15.031 54.9365 14.9612 55.0954 14.8409 55.2116C14.7205 55.3278 14.5593 55.3919 14.392 55.3902Z" fill="#144A8F"/>
<path d="M18.0697 51.7079H14.7853V53.6756H18.0697V51.7079Z" fill="#EB2126"/>
<path d="M18.0713 54.3124H14.7869C14.618 54.3124 14.456 54.2453 14.3366 54.1259C14.2171 54.0065 14.1501 53.8445 14.1501 53.6756V51.7079C14.1501 51.539 14.2171 51.377 14.3366 51.2576C14.456 51.1381 14.618 51.071 14.7869 51.071H18.0713C18.2402 51.071 18.4021 51.1381 18.5216 51.2576C18.641 51.377 18.7081 51.539 18.7081 51.7079V53.6772C18.7077 53.8458 18.6404 54.0074 18.521 54.1265C18.4016 54.2456 18.2399 54.3124 18.0713 54.3124ZM15.4221 53.0388H17.4344V52.3415H15.4221V53.0388Z" fill="#144A8F"/>
<path d="M22.7503 56H17.8914C17.8027 56.0004 17.7149 55.9822 17.6337 55.9467C17.5524 55.9112 17.4795 55.8591 17.4195 55.7937C17.3596 55.7284 17.3139 55.6512 17.2855 55.5672C17.2571 55.4832 17.2466 55.3942 17.2545 55.3059L17.8102 49.3071L16.6957 46.7774C16.6359 46.624 16.6378 46.4534 16.701 46.3013C16.7643 46.1493 16.8839 46.0277 17.0349 45.962C17.1859 45.8963 17.3564 45.8916 17.5108 45.949C17.6651 46.0063 17.7912 46.1212 17.8627 46.2695L19.0329 48.9489C19.0773 49.0488 19.0943 49.1587 19.0822 49.2673L18.5775 54.736H22.1915L23.2406 47.8902C23.2499 47.8047 23.2763 47.7219 23.3184 47.6469C23.3605 47.5719 23.4173 47.5062 23.4855 47.4538C23.5537 47.4014 23.6318 47.3633 23.7151 47.3419C23.7984 47.3204 23.8851 47.3161 23.9702 47.3291C24.0552 47.3421 24.1367 47.3723 24.2097 47.4176C24.2828 47.463 24.3459 47.5227 24.3953 47.5931C24.4446 47.6636 24.4792 47.7433 24.4969 47.8274C24.5146 47.9116 24.5151 47.9985 24.4983 48.0828L23.7548 53.0468C23.7856 53.0452 23.8164 53.0452 23.8472 53.0468H24.6575C24.6978 52.917 24.7786 52.8035 24.888 52.7229C24.9975 52.6424 25.1298 52.5989 25.2657 52.5989C25.4016 52.5989 25.5339 52.6424 25.6433 52.7229C25.7528 52.8035 25.8335 52.917 25.8738 53.0468H26.654C26.5361 43.7286 23.844 41.2164 23.8153 41.1925C23.6895 41.0812 23.6128 40.9248 23.6017 40.7573C23.5907 40.5897 23.6463 40.4245 23.7564 40.2978C23.8657 40.1724 24.0195 40.0948 24.1852 40.0814C24.3509 40.068 24.5153 40.12 24.6432 40.2261C24.7769 40.3407 27.9292 43.1284 27.9292 53.682C27.9292 53.8509 27.8621 54.0129 27.7427 54.1323C27.6232 54.2518 27.4613 54.3188 27.2924 54.3188H23.8408C23.745 54.3189 23.6504 54.2977 23.5638 54.2568L23.3791 55.4667C23.3546 55.6157 23.2779 55.7512 23.1627 55.8489C23.0475 55.9466 22.9013 56.0002 22.7503 56ZM16.2627 54.0036C16.0938 54.0036 15.9318 53.9365 15.8124 53.8171C15.693 53.6977 15.6259 53.5357 15.6259 53.3668V53.2283C15.6259 53.0594 15.693 52.8974 15.8124 52.778C15.9318 52.6586 16.0938 52.5915 16.2627 52.5915C16.4316 52.5915 16.5936 52.6586 16.713 52.778C16.8324 52.8974 16.8995 53.0594 16.8995 53.2283V53.37C16.8987 53.5383 16.8312 53.6995 16.7119 53.8182C16.5925 53.937 16.431 54.0036 16.2627 54.0036Z" fill="#144A8F"/>
</g>
<defs>
<clipPath id="clip0_1754_15701">
<rect width="262.004" height="56" fill="white"/>
</clipPath>
</defs>
</svg>
