<svg width="145" height="64" viewBox="0 0 145 64" fill="none" xmlns="http://www.w3.org/2000/svg">
<g clip-path="url(#clip0_3121_17160)">
<path d="M13.8071 48.5911L11.4544 54.1328L11.0566 59.5856H16.5121L17.5745 58.9868L20.6515 59.0936L20.6987 60.5502H26.4166L26.8277 59.0936H31.1451C31.1451 59.0936 29.9367 48.4531 27.8768 47.0303C20.0358 52.3585 13.8071 48.5902 13.8071 48.5902" fill="white"/>
<path d="M27.982 54.8064L28.2996 58.8613H26.7852L27.982 54.8064Z" fill="#2494D1"/>
<path d="M12.9955 50.1207C12.9955 50.1207 17.74 52.9538 23.4295 50.1207C27.9729 47.8579 13.8061 48.5911 13.8061 48.5911L12.9946 50.1207H12.9955Z" fill="#2494D1"/>
<path d="M31.1842 61.3439H26.5474L26.8285 59.0945H31.1459C31.1459 59.0945 31.1922 60.6116 31.1842 61.3439Z" fill="#EB2126"/>
<path d="M31.1845 62.07H26.5476C26.3394 62.07 26.141 61.981 26.0031 61.8244C25.8652 61.6678 25.8011 61.4605 25.8269 61.254L26.1081 59.0046C26.1535 58.6406 26.4631 58.3684 26.8288 58.3684H31.1462C31.5386 58.3684 31.8607 58.6807 31.8723 59.0722C31.8723 59.0722 31.9186 60.6107 31.9115 61.3519C31.907 61.7497 31.5831 62.0709 31.1845 62.0709V62.07ZM27.3707 60.6178H30.4539C30.4495 60.3482 30.4441 60.067 30.4379 59.8205H27.4695L27.3698 60.6178H27.3707Z" fill="#144A8F"/>
<path d="M29.603 47.5882C29.603 47.5882 32.8153 43.3429 37.8525 44.5246C42.8898 45.7072 44.2058 42.7192 44.2058 42.7192C44.2058 42.7192 41.7036 51.8816 35.2996 49.3554C35.2996 49.3554 36.2829 50.1812 37.1914 50.9767C35.2676 52.3576 33.5236 53.1772 30.072 51.1012" fill="#2494D1"/>
<path d="M29.4771 47.8739C29.4771 47.8739 32.4161 43.5405 36.5475 44.5104C40.6798 45.4812 43.1589 44.4507 43.1589 44.4507C43.1589 44.4507 40.2892 50.3298 35.7067 47.6132C34.9085 47.0419 33.8398 47.1682 33.3175 47.897C32.7961 48.6258 33.0194 49.6793 33.8167 50.2515C32.6092 50.74 31.0013 50.1171 30.1382 49.5423" fill="white"/>
<path d="M15.1382 49.2068C15.1382 49.2068 15.6418 47.9095 13.8079 48.5911C11.9731 49.2718 10.7905 59.615 10.7905 59.615H11.6127C12.063 59.615 12.9688 59.5305 12.9377 59.0802C12.9377 59.0802 12.9955 56.0228 13.2073 54.3197C13.6335 52.7536 15.1373 49.2068 15.1373 49.2068" fill="#2494D1"/>
<path d="M37.1996 24.7662C37.1996 34.6441 29.3274 50.1207 19.616 50.1207C9.90451 50.1207 2.0332 34.6441 2.0332 24.7662C2.0332 14.8884 9.9054 10.9305 19.616 10.9305C29.3265 10.9305 37.1996 14.8893 37.1996 24.7662Z" fill="white"/>
<path d="M19.6159 50.8476C9.50847 50.8476 1.30615 35.0659 1.30615 24.7671C1.30615 15.5122 7.97977 10.2044 19.6159 10.2044C31.252 10.2044 37.9265 15.5122 37.9265 24.7671C37.9265 35.0668 29.7233 50.8476 19.6159 50.8476ZM19.6159 11.6575C14.5475 11.6575 2.75922 12.9353 2.75922 24.7671C2.75922 34.2677 10.473 49.3955 19.6159 49.3955C28.7587 49.3955 36.4734 34.2677 36.4734 24.7671C36.4734 12.9353 24.6843 11.6575 19.6159 11.6575Z" fill="#144A8F"/>
<path d="M4.55324 23.1192C4.55324 23.1192 2.82433 23.395 1.97544 23.0427C0.832921 22.5675 2.6873 21.1411 2.6873 21.1411L4.55235 23.1183L4.55324 23.1192Z" fill="#2494D1"/>
<path d="M23.8445 21.2755C23.8445 23.4778 22.3967 24.2128 19.6659 25.2503C16.5764 25.2503 10.3335 23.4778 10.3335 21.2755C10.3335 19.0732 17.1477 17.2873 20.238 17.2873C23.3284 17.2873 23.8445 19.0732 23.8445 21.2755Z" fill="#2494D1"/>
<path d="M22.2709 41.1015C22.2709 41.1015 21.3099 37.1026 24.3202 35.7537C23.7498 37.2931 22.5761 40.6325 23.3111 41.8124C24.0452 42.9923 22.2709 41.1024 22.2709 41.1024" fill="#2494D1"/>
<path d="M19.6159 50.8476C9.50847 50.8476 1.30615 35.0659 1.30615 24.7671C1.30615 15.5122 7.97977 10.2044 19.6159 10.2044C31.252 10.2044 37.9265 15.5122 37.9265 24.7671C37.9265 35.0668 29.7233 50.8476 19.6159 50.8476ZM19.6159 11.6575C14.5475 11.6575 2.75922 12.9353 2.75922 24.7671C2.75922 34.2677 10.473 49.3955 19.6159 49.3955C28.7587 49.3955 36.4734 34.2677 36.4734 24.7671C36.4734 12.9353 24.6843 11.6575 19.6159 11.6575Z" fill="#144A8F"/>
<path d="M13.9888 28.2223C13.9888 28.2223 14.9702 32.4142 21.5389 33.0353C21.9793 33.0771 22.2391 32.5361 22.0024 32.1633C21.6937 31.6748 20.7087 30.8811 20.6926 30.2324C22.1502 30.4014 24.5153 31.1071 25.7592 30.4344C26.1401 30.2288 26.117 29.6745 25.7228 29.4974C24.9157 29.1343 24.9566 27.7747 24.5847 27.0807" fill="#2494D1"/>
<path d="M14.1846 26.8929C14.1846 26.8929 14.7496 31.5057 22.9288 30.9095C22.4429 30.2795 21.9269 29.606 21.9046 28.6877C23.5276 28.8754 25.5787 28.9199 26.6108 27.7098C25.6463 27.5398 24.5669 26.7968 24.1176 25.9604" fill="white"/>
<path d="M21.5096 31.6899C14.1295 31.6899 13.4879 27.1839 13.463 26.981C13.4141 26.5824 13.6979 26.2202 14.0957 26.1713C14.489 26.1188 14.852 26.4026 14.9045 26.7968C14.9285 26.9596 15.4918 30.2368 21.5114 30.2368C21.539 30.2368 21.5666 30.2368 21.595 30.2368C21.3628 29.7973 21.1919 29.2945 21.1777 28.7055C21.1724 28.4955 21.2587 28.2935 21.4144 28.152C21.5701 28.0105 21.7757 27.9447 21.9874 27.9669C23.2972 28.1191 24.3063 28.0853 25.0333 27.8619C24.3721 27.4633 23.8 26.9054 23.477 26.3047C23.2875 25.9506 23.42 25.5101 23.7742 25.3206C24.1266 25.1311 24.5679 25.2636 24.7583 25.6178C25.0938 26.2442 25.9818 26.8618 26.7364 26.9952C26.9935 27.0406 27.2062 27.2195 27.2943 27.4651C27.3824 27.7106 27.3326 27.9838 27.1635 28.1831C26.1242 29.4013 24.373 29.5819 22.8497 29.501C23.0152 29.8346 23.2554 30.1461 23.5037 30.4682C23.6665 30.68 23.7003 30.9647 23.5909 31.2085C23.4823 31.4523 23.2474 31.6169 22.9805 31.6365C22.4626 31.6748 21.9714 31.6917 21.5087 31.6917L21.5096 31.6899Z" fill="#144A8F"/>
<path d="M25.0482 20.4675C25.0482 21.9037 22.6164 24.5482 19.6159 24.5482C16.6155 24.5482 14.1836 21.9028 14.1836 20.4675C14.1836 19.0323 16.3583 0.72698 19.3588 0.72698C22.3592 0.72698 25.0482 19.0314 25.0482 20.4675Z" fill="white"/>
<path d="M19.6159 25.2752C16.2756 25.2752 13.4575 22.3219 13.4575 20.4675C13.4575 20.2629 15.2932 0 19.3588 0C23.4243 0 25.7743 20.2629 25.7743 20.4675C25.7743 22.3219 22.9554 25.2752 19.6159 25.2752ZM19.3588 1.45396C17.4955 1.45396 14.9106 17.6068 14.9106 20.4675C14.9106 21.4401 16.9465 23.8221 19.6159 23.8221C22.2854 23.8221 24.3213 21.441 24.3213 20.4675C24.3213 19.8198 23.6521 14.9098 22.6182 10.2151C20.7416 1.69243 19.3721 1.45396 19.3588 1.45396Z" fill="#144A8F"/>
<path d="M22.8807 46.2135C22.9572 46.6005 22.3254 46.1939 21.6696 46.3229C21.0138 46.4528 20.584 47.0695 20.5075 46.6824C20.431 46.2953 20.8243 45.4945 21.4792 45.3646C22.135 45.2347 22.8041 45.8264 22.8798 46.2135" fill="#144A8F"/>
<path d="M16.4106 46.2135C16.3341 46.6005 16.9659 46.1939 17.6216 46.3229C18.2774 46.4528 18.7072 47.0695 18.7837 46.6824C18.8603 46.2953 18.467 45.4945 17.8121 45.3646C17.1563 45.2347 16.4871 45.8264 16.4115 46.2135" fill="#144A8F"/>
<path d="M9.49879 14.5298C9.49879 14.5298 5.20454 12.404 1.23329 12.6594C-0.176176 16.7401 1.43973 20.8226 4.50069 22.4127" fill="white"/>
<path d="M4.50063 23.1388C4.38762 23.1388 4.27284 23.1121 4.16606 23.0569C0.64061 21.2257 -0.914788 16.6529 0.547179 12.4218C0.64328 12.1451 0.895097 11.952 1.18785 11.9342C5.30947 11.6601 9.63932 13.7886 9.82173 13.8793C10.1812 14.0573 10.328 14.4924 10.1501 14.8519C9.97211 15.2114 9.53521 15.3573 9.17661 15.182C9.13746 15.1625 5.35841 13.3259 1.77335 13.3659C0.805226 16.7828 2.07232 20.3323 4.83609 21.7685C5.19202 21.9535 5.33083 22.3922 5.14575 22.7481C5.01672 22.9973 4.76313 23.1397 4.50063 23.1397V23.1388Z" fill="#144A8F"/>
<path d="M2.63041 15.3831C2.53343 15.99 2.65711 18.5349 4.91991 20.3154C5.00711 20.3839 5.12991 20.2976 5.0952 20.1926C4.91012 19.624 4.83983 19.2734 4.81669 18.9718C4.80779 18.8623 4.9297 18.7929 5.02046 18.8543C5.22779 18.994 5.48228 19.0919 5.97612 18.9887C6.13451 18.9566 6.2137 18.776 6.13362 18.6354C6.0482 18.4868 5.94053 18.3133 5.90583 18.0855C5.88358 17.9449 5.99926 17.8203 6.14163 17.8257C7.00386 17.8559 7.67745 17.9627 8.21579 17.5774" fill="#2494D1"/>
<path d="M7.91325 17.0355C7.91325 17.0355 5.77948 15.9793 3.23193 15.546L7.91325 17.0355Z" fill="white"/>
<path d="M7.91114 17.7625C7.80347 17.7625 7.69403 17.7385 7.58992 17.6869C7.56945 17.6762 5.51309 16.6716 3.1088 16.2632C2.71284 16.1955 2.44678 15.8209 2.51441 15.425C2.58203 15.029 2.96288 14.7683 3.35261 14.8306C5.97401 15.2764 8.14249 16.3397 8.23414 16.3851C8.59363 16.563 8.74045 16.9982 8.56337 17.3576C8.43702 17.6139 8.17898 17.7625 7.91114 17.7625Z" fill="#144A8F"/>
<path d="M29.7329 14.5298C29.7329 14.5298 34.0272 12.404 37.9984 12.6594C39.4079 16.7401 37.792 20.8226 34.731 22.4127" fill="white"/>
<path d="M34.7314 23.1388C34.4689 23.1388 34.2153 22.9964 34.0863 22.7473C33.9012 22.3913 34.04 21.9526 34.3959 21.7676C37.1597 20.3314 38.4268 16.7819 37.4587 13.365C33.8549 13.3072 30.0946 15.1616 30.0554 15.1811C29.6959 15.3582 29.2599 15.2114 29.0819 14.851C28.904 14.4915 29.0508 14.0555 29.4112 13.8785C29.5936 13.7886 33.9279 11.669 38.0451 11.9333C38.3369 11.952 38.5896 12.1442 38.6857 12.4209C40.1468 16.652 38.5905 21.2248 35.066 23.056C34.9592 23.1112 34.8444 23.1379 34.7314 23.1379V23.1388Z" fill="#144A8F"/>
<path d="M36.6015 15.3831C36.6985 15.99 36.5748 18.5349 34.312 20.3154C34.2248 20.3839 34.102 20.2976 34.1367 20.1926C34.3218 19.624 34.3921 19.2734 34.4152 18.9718C34.4241 18.8623 34.3022 18.7929 34.2114 18.8543C34.0041 18.994 33.7496 19.0919 33.2558 18.9887C33.0974 18.9566 33.0182 18.776 33.0983 18.6354C33.1837 18.4868 33.2914 18.3133 33.3261 18.0855C33.3483 17.9449 33.2326 17.8203 33.0903 17.8257C32.228 17.8559 31.5545 17.9627 31.0161 17.5774" fill="#2494D1"/>
<path d="M31.3198 17.0355C31.3198 17.0355 33.4536 15.9793 36.0011 15.546L31.3198 17.0355Z" fill="white"/>
<path d="M31.3206 17.7625C31.0528 17.7625 30.7947 17.6139 30.6684 17.3576C30.4904 16.9982 30.6372 16.5621 30.9976 16.3851C31.0884 16.3397 33.2568 15.2764 35.8791 14.8306C36.268 14.7656 36.6497 15.029 36.7173 15.425C36.7841 15.8209 36.518 16.1955 36.1229 16.2632C33.7187 16.6716 31.6623 17.6771 31.6418 17.6869C31.5386 17.7376 31.4292 17.7625 31.3206 17.7625Z" fill="#144A8F"/>
<path d="M34.0008 39.7721C32.1509 43.7745 28.5088 46.0284 25.8652 44.8067C23.2207 43.585 22.5782 39.3494 24.4273 35.347C26.2781 31.3447 29.9201 29.0907 32.5637 30.3125C35.2074 31.5351 35.8498 35.7697 34.0008 39.7721Z" fill="white"/>
<path d="M27.415 45.8682C26.7663 45.8682 26.1417 45.7348 25.5597 45.466C24.0524 44.7693 23.0522 43.2646 22.7426 41.2287C22.4498 39.3032 22.8146 37.1062 23.7676 35.0427C25.7831 30.6835 29.8682 28.2659 32.8687 29.6531C35.8718 31.0412 36.6753 35.7172 34.6608 40.0773C33.7069 42.1408 32.2698 43.8412 30.613 44.8663C29.5381 45.531 28.4472 45.8682 27.4159 45.8682H27.415ZM31.0348 30.712C28.9473 30.712 26.4558 32.6909 25.0863 35.6523C24.2508 37.4604 23.9278 39.3637 24.1787 41.0107C24.4128 42.5483 25.1193 43.6624 26.1693 44.1464C27.2192 44.6323 28.5255 44.449 29.8477 43.6303C31.2643 42.753 32.5047 41.2741 33.3412 39.4669C34.9909 35.897 34.4961 32.0067 32.2592 30.9727C31.8774 30.7965 31.4645 30.7129 31.0357 30.7129L31.0348 30.712Z" fill="#144A8F"/>
<path d="M30.283 37.5511C30.283 39.2818 28.8798 40.685 27.1491 40.685C25.4184 40.685 24.0151 39.2818 24.0151 37.5511C24.0151 35.8204 25.4184 34.4172 27.1491 34.4172C28.8798 34.4172 30.283 35.8204 30.283 37.5511Z" fill="#144A8F"/>
<path d="M5.23101 39.7721C7.08094 43.7745 10.723 46.0284 13.3666 44.8067C16.0111 43.585 16.6536 39.3494 14.8045 35.347C12.9537 31.3447 9.31171 29.0907 6.66807 30.3125C4.02442 31.5351 3.38198 35.7697 5.23101 39.7721Z" fill="white"/>
<path d="M11.8167 45.8682C10.7854 45.8682 9.69452 45.531 8.61962 44.8663C6.96367 43.8412 5.52573 42.1408 4.57274 40.0773C2.5573 35.719 3.36081 31.0421 6.36393 29.6531C9.36795 28.2668 13.4495 30.6835 15.465 35.0427C16.4189 37.1062 16.7828 39.3041 16.49 41.2287C16.1804 43.2646 15.1793 44.7693 13.672 45.466C13.0901 45.7348 12.4654 45.8682 11.8167 45.8682ZM8.19696 30.712C7.76717 30.712 7.35519 30.7956 6.97257 30.9718C4.73557 32.0058 4.23994 35.8961 5.89055 39.466C6.72609 41.2741 7.96649 42.7521 9.38308 43.6294C10.7062 44.4463 12.0116 44.6305 13.0616 44.1455C14.1116 43.6615 14.819 42.5465 15.0521 41.0098C15.3021 39.3628 14.98 37.4595 14.1445 35.6514C12.7759 32.6909 10.2827 30.7111 8.19607 30.7111L8.19696 30.712Z" fill="#144A8F"/>
<path d="M5.23101 39.7721C7.08094 43.7745 10.723 46.0284 13.3666 44.8067C16.0111 43.585 16.6536 39.3494 14.8045 35.347C12.9537 31.3447 9.31171 29.0907 6.66807 30.3125C4.02442 31.5351 3.38198 35.7697 5.23101 39.7721Z" fill="white"/>
<path d="M11.8167 45.8682C10.7854 45.8682 9.69452 45.531 8.61962 44.8663C6.96367 43.8412 5.52573 42.1408 4.57274 40.0773C2.5573 35.719 3.36081 31.0421 6.36393 29.6531C9.36795 28.2668 13.4495 30.6835 15.465 35.0427C16.4189 37.1062 16.7828 39.3041 16.49 41.2287C16.1804 43.2646 15.1793 44.7693 13.672 45.466C13.0901 45.7348 12.4654 45.8682 11.8167 45.8682ZM8.19696 30.712C7.76717 30.712 7.35519 30.7956 6.97257 30.9718C4.73557 32.0058 4.23994 35.8961 5.89055 39.466C6.72609 41.2741 7.96649 42.7521 9.38308 43.6294C10.7062 44.4463 12.0116 44.6305 13.0616 44.1455C14.1116 43.6615 14.819 42.5465 15.0521 41.0098C15.3021 39.3628 14.98 37.4595 14.1445 35.6514C12.7759 32.6909 10.2827 30.7111 8.19607 30.7111L8.19696 30.712Z" fill="#144A8F"/>
<path d="M8.94873 37.5511C8.94873 39.2818 10.352 40.685 12.0827 40.685C13.8134 40.685 15.2166 39.2818 15.2166 37.5511C15.2166 35.8204 13.8134 34.4172 12.0827 34.4172C10.352 34.4172 8.94873 35.8204 8.94873 37.5511Z" fill="#144A8F"/>
<path d="M15.2317 37.5511C15.2317 39.2818 13.8285 40.685 12.0978 40.685C10.3671 40.685 8.96387 39.2818 8.96387 37.5511C8.96387 35.8204 10.3671 34.4172 12.0978 34.4172C13.8285 34.4172 15.2317 35.8204 15.2317 37.5511Z" fill="#144A8F"/>
<path d="M15.2132 35.9005C15.2132 36.9096 14.3955 37.7264 13.3873 37.7264C12.3792 37.7264 11.5605 36.9096 11.5605 35.9005C11.5605 34.8915 12.3783 34.0746 13.3873 34.0746C14.3964 34.0746 15.2132 34.8915 15.2132 35.9005Z" fill="white"/>
<path d="M15.819 44.5308C14.8812 45.7009 14.9817 47.3969 16.0664 48.4327C16.8299 49.1614 18.5036 49.5921 19.3596 49.6668C19.3596 49.6668 13.1122 49.2549 11.0078 46.1743C11.9101 45.2356 14.277 43.9578 14.9897 43.0564C15.7034 42.1541 17.1929 40.4056 18.1886 41.2821" fill="#2494D1"/>
<path d="M17.1966 41.0499C17.1966 41.0499 18.3898 34.2517 13.2075 32.3065C14.3233 34.8238 16.636 40.2971 15.5282 42.349C14.4203 44.4018 17.1966 41.0508 17.1966 41.0508" fill="#2494D1"/>
<path d="M19.613 50.8476C16.1285 50.8476 12.6235 48.9835 9.47713 45.4562C9.42018 45.3922 9.37569 45.3201 9.34544 45.2454C7.47415 44.3484 5.69897 42.5172 4.57158 40.0782C2.55703 35.7181 3.36054 31.0412 6.36367 29.654C7.87101 28.9564 9.66666 29.1699 11.4169 30.2537C13.0738 31.2788 14.5108 32.9792 15.4647 35.0427C16.4008 37.0679 16.7282 39.1617 16.5102 40.9627C18.2934 39.2978 21.099 39.3343 22.8386 41.0739L25.4262 43.6464C25.7109 43.9293 25.7118 44.3894 25.4289 44.6741C25.1459 44.9588 24.6859 44.9597 24.4011 44.6768L21.8118 42.1025C20.5998 40.8906 18.6307 40.8924 17.4223 42.1007L14.8917 44.6225C14.8694 44.6447 14.8445 44.6661 14.8196 44.6848C14.4832 45.0051 14.0997 45.2694 13.6726 45.4678C13.112 45.7267 12.5141 45.8531 11.8983 45.8593C13.8613 47.6879 16.5218 49.3963 19.613 49.3963C20.0143 49.3963 20.34 49.7211 20.34 50.1224C20.34 50.5237 20.0143 50.8485 19.613 50.8485V50.8476ZM5.89028 39.4678C7.56937 43.0991 10.7834 45.2 13.0622 44.1473C15.2992 43.1125 15.7948 39.2222 14.1442 35.6523C13.3087 33.8441 12.0683 32.3653 10.6517 31.4888C9.32853 30.6702 8.02228 30.4886 6.9723 30.9727C4.7353 32.0058 4.24057 35.8969 5.89028 39.4678Z" fill="#144A8F"/>
<path d="M33.7684 52.9013C32.6757 52.9013 31.5305 52.6077 30.3025 52.0204C29.9404 51.8478 29.7864 51.4136 29.9599 51.0514C30.1326 50.6901 30.5677 50.5344 30.929 50.7097C33.2345 51.8113 34.7863 51.5239 35.976 50.8859C35.3478 50.3458 34.8326 49.9124 34.8308 49.9115C34.5576 49.6829 34.4918 49.2896 34.6742 48.9835C34.8557 48.6774 35.2321 48.5483 35.5649 48.6792C36.9281 49.2175 38.1427 49.2033 39.2781 48.6347C40.7134 47.9175 41.7553 46.4404 42.4458 45.1181C41.3487 45.5452 39.8093 45.7294 37.6853 45.232C33.1882 44.1767 30.3016 47.8694 30.1806 48.0278C29.9377 48.3464 29.4812 48.4086 29.1627 48.1657C28.8432 47.9228 28.7809 47.469 29.023 47.1496C29.1662 46.9609 32.5805 42.5421 38.0172 43.8172C42.3497 44.8316 43.4958 42.5163 43.543 42.4184C43.704 42.0776 44.1 41.9121 44.4542 42.042C44.8083 42.1728 45.0049 42.5474 44.9062 42.9114C44.8475 43.1258 43.4326 48.1809 39.933 49.9329C39.2354 50.2826 38.5075 50.4775 37.7529 50.5175C37.866 50.6554 37.9247 50.8307 37.9158 51.0122C37.9051 51.2338 37.7939 51.4376 37.6141 51.5675C36.3728 52.4591 35.1102 52.9022 33.7684 52.9022V52.9013Z" fill="#144A8F"/>
<path d="M17.0072 60.1124H11.0562V62.5754H17.0072V60.1124Z" fill="#EB2126"/>
<path d="M26.229 61.2175H20.2788V63.6806H26.229V61.2175Z" fill="#EB2126"/>
<path d="M23.1542 64C22.7529 64 22.4272 63.6752 22.4272 63.2739V62.2684C22.4272 61.8671 22.7529 61.5423 23.1542 61.5423C23.5555 61.5423 23.8812 61.8671 23.8812 62.2684V63.2739C23.8812 63.6752 23.5555 64 23.1542 64Z" fill="#144A8F"/>
<path d="M11.1593 59.8455C11.1593 59.8455 11.9824 59.841 12.6142 59.8099C12.8144 59.8001 12.9576 60.0688 12.882 60.3162C12.5892 61.2727 12.8419 62.046 12.6186 62.3441C12.3534 62.6964 10.8701 62.1527 10.8701 62.1527L11.1593 59.8455Z" fill="#A62126"/>
<path d="M20.1909 61.0511C20.1909 61.0511 21.0069 60.9435 21.6306 60.8331C21.8282 60.7984 22.0044 61.0467 21.9599 61.3012C21.789 62.2871 22.1378 63.023 21.9528 63.3469C21.7339 63.7304 20.1945 63.3762 20.1945 63.3762L20.1909 61.0503V61.0511Z" fill="#A62126"/>
<path d="M16.9014 19.5484C16.9014 19.5484 19.9464 22.1101 22.0285 21.5478C23.2876 21.207 21.9574 23.9156 17.0767 23.2349C11.9959 22.5266 14.6297 17.3416 14.6297 17.3416L16.9014 19.5484Z" fill="#EB2126"/>
<path d="M17.5679 14.2406C17.9167 15.0655 20.5728 16.3148 22.42 16.2098C22.6709 16.1955 22.9041 16.3468 22.977 16.5871C23.4202 18.0188 23.4335 19.6649 23.0625 20.327C22.7083 20.9605 14.595 19.4683 14.5612 16.0514C14.5274 12.6354 15.8941 12.5669 15.8941 12.5669L17.5679 14.2406Z" fill="#EB2126"/>
<path d="M17.6211 8.52888C17.8952 9.31637 19.9711 10.5683 21.369 10.6947C21.7063 10.7241 21.991 10.9527 22.0987 11.2731C22.4608 12.3435 22.5703 13.4985 22.7429 14.5325C22.8514 15.1803 15.1803 13.7566 15.1519 10.3397C15.1243 6.92366 16.2463 6.85514 16.2463 6.85514L17.622 8.52888H17.6211Z" fill="#EB2126"/>
<path d="M22.1807 21.0112C19.8609 21.0112 17.7796 20.0387 17.0179 19.6356C15.6031 18.8863 14.038 17.6904 13.8894 16.5808C13.836 16.1831 14.1154 15.8174 14.5131 15.764C14.9109 15.7097 15.2766 15.99 15.33 16.3877C15.3798 16.6725 16.2055 17.6014 17.8909 18.4512C18.8109 18.9148 22.0196 20.327 24.6517 19.0082C25.0112 18.8285 25.4472 18.9735 25.6269 19.3321C25.8067 19.6907 25.6616 20.1276 25.303 20.3074C24.2779 20.8208 23.2057 21.0112 22.1807 21.0112ZM21.7562 15.5531C20.3556 15.5531 18.8314 15.1562 17.3579 14.3768C16.1317 13.7281 14.7756 12.6852 14.6439 11.7011C14.5905 11.3033 14.8699 10.9376 15.2677 10.8842C15.669 10.8326 16.0267 11.1076 16.0836 11.5009C16.1504 11.7456 16.9441 12.6114 18.5369 13.3374C19.4703 13.7628 21.8559 14.6455 23.8402 13.6489C24.1996 13.47 24.6357 13.6142 24.8154 13.9728C24.9951 14.3314 24.8501 14.7683 24.4915 14.948C23.6836 15.3529 22.751 15.5522 21.7571 15.5522L21.7562 15.5531Z" fill="#144A8F"/>
<path d="M21.3734 7.49937C21.449 7.8108 21.2621 8.12669 20.9534 8.21033C20.6081 8.30376 20.1089 8.51465 19.1978 8.53689C17.1334 8.58583 16.2979 6.07922 16.2979 6.07922C16.2979 6.07922 17.104 1.2671 18.9157 1.31515C19.5306 1.33205 20.9071 5.56135 21.3725 7.49937" fill="#EB2126"/>
<path d="M19.6159 25.2752C16.2756 25.2752 13.4575 22.3219 13.4575 20.4675C13.4575 20.3421 14.1453 12.711 15.6091 6.80442C15.6162 6.73591 15.6331 6.67006 15.658 6.60866C16.5817 2.94885 17.8078 0 19.3588 0C23.4751 0 25.7743 20.2629 25.7743 20.4675C25.7743 22.3219 22.9554 25.2752 19.6159 25.2752ZM16.7276 8.48439C15.7034 13.2209 14.9106 18.8828 14.9106 20.4675C14.9106 21.4401 16.9465 23.8221 19.6159 23.8221C22.2854 23.8221 24.3213 21.441 24.3213 20.4675C24.3213 19.8198 23.6521 14.9098 22.6182 10.2151C22.5959 10.1128 22.5737 10.0104 22.5505 9.91077C21.1322 10.2809 19.4131 10.0193 17.7776 9.15353C17.5676 9.04231 17.1449 8.80384 16.7276 8.48439ZM17.1013 6.84446C17.3113 7.12831 18.0321 7.75119 19.1862 8.20321C19.8642 8.46927 21.0815 8.81807 22.2204 8.49774C20.5511 1.65862 19.3712 1.45396 19.3588 1.45396C18.6496 1.45396 17.8372 3.7915 17.1013 6.84446Z" fill="#144A8F"/>
<path d="M30.2645 35.9005C30.2645 36.9096 29.4468 37.7264 28.4386 37.7264C27.4304 37.7264 26.6118 36.9096 26.6118 35.9005C26.6118 34.8915 27.4296 34.0746 28.4386 34.0746C29.4477 34.0746 30.2645 34.8915 30.2645 35.9005Z" fill="white"/>
<path d="M19.6455 52.6388L19.7096 52.4831C20.3476 52.3603 21.2837 52.7848 21.5399 53.3818L22.3559 55.763C22.4662 56.0842 22.4814 56.4303 22.3986 56.7613L21.4536 60.552L21.0986 56.231L19.6455 52.6388Z" fill="#2494D1"/>
<path d="M13.8919 63.1894C13.4906 63.1894 13.1649 62.8646 13.1649 62.4633V61.5699C13.1649 61.1686 13.4906 60.8438 13.8919 60.8438C14.2932 60.8438 14.6189 61.1686 14.6189 61.5699V62.4633C14.6189 62.8646 14.2932 63.1894 13.8919 63.1894ZM16.5124 60.3126H11.0561C10.6548 60.3126 10.3291 59.9878 10.3291 59.5865C10.3291 59.1852 10.6548 58.8604 11.0561 58.8604H16.5124C16.9137 58.8604 17.2394 59.1852 17.2394 59.5865C17.2394 59.9878 16.9137 60.3126 16.5124 60.3126Z" fill="#144A8F"/>
<path d="M25.8801 61.2772H20.6996C20.2983 61.2772 19.9727 60.9524 19.9727 60.5511C19.9727 60.1498 20.2983 59.825 20.6996 59.825H25.8801C26.2814 59.825 26.6071 60.1498 26.6071 60.5511C26.6071 60.9524 26.2814 61.2772 25.8801 61.2772Z" fill="#144A8F"/>
<path d="M20.101 53.5678C20.7683 54.2352 21.9305 56.0806 21.4508 56.5594C20.9721 57.0381 19.455 56.6056 18.7867 55.9383C18.1194 55.27 17.9049 54.3704 18.3845 53.8917C19.3687 54.2974 19.4336 52.9004 20.101 53.5678Z" fill="#2494D1"/>
<path d="M16.4463 63.3024H10.8939C10.6928 63.3024 10.5006 63.2196 10.3636 63.0728C10.2265 62.926 10.1562 62.7284 10.1696 62.5282L10.7302 54.0848C10.7346 54.0136 10.7497 53.9442 10.7746 53.8774L12.9814 47.9949C13.122 47.6194 13.5438 47.429 13.9166 47.5704C14.293 47.711 14.4825 48.1301 14.3419 48.5065L12.1734 54.2876L11.6716 61.8502H15.7363L15.8413 57.1564C15.843 57.0594 15.8644 56.9651 15.9035 56.877L17.1698 54.0332C17.3326 53.6657 17.7615 53.5019 18.129 53.6648C18.4956 53.8276 18.6602 54.2574 18.4974 54.624L17.2908 57.3344L17.1733 62.5923C17.1644 62.9874 16.8423 63.3024 16.4472 63.3024H16.4463Z" fill="#144A8F"/>
<path d="M20.6516 59.0945H16.8975V61.3439H20.6516V59.0945Z" fill="#EB2126"/>
<path d="M20.651 62.07H16.8969C16.4956 62.07 16.1699 61.7452 16.1699 61.3439V59.0944C16.1699 58.6931 16.4956 58.3684 16.8969 58.3684H20.651C21.0523 58.3684 21.378 58.6931 21.378 59.0944V61.3439C21.378 61.7452 21.0523 62.07 20.651 62.07ZM17.6239 60.6178H19.9241V59.8205H17.6239V60.6178Z" fill="#144A8F"/>
<path d="M25.9997 63.9991H20.4473C20.2426 63.9991 20.0477 63.9137 19.9098 63.7624C19.7719 63.6112 19.7043 63.4092 19.723 63.2063L20.3574 56.3511L19.0948 53.4592C18.9337 53.0917 19.1019 52.6637 19.4703 52.5027C19.8377 52.3399 20.2666 52.5098 20.4277 52.8782L21.7651 55.9409C21.814 56.0531 21.8336 56.1758 21.8229 56.2978L21.2445 62.5469H25.376L26.5745 54.7219C26.6359 54.325 27.0043 54.0608 27.403 54.1133C27.7998 54.1747 28.0712 54.5457 28.0107 54.9417L27.1396 60.6249C27.1734 60.6205 27.2081 60.6178 27.2437 60.6178H28.17C28.2607 60.3197 28.5375 60.1035 28.8649 60.1035C29.1924 60.1035 29.4691 60.3197 29.5599 60.6178H30.4515C30.3171 49.9694 27.2401 47.0979 27.2081 47.0704C26.9118 46.8052 26.8789 46.3487 27.1405 46.048C27.4012 45.7472 27.8514 45.7107 28.1549 45.967C28.3079 46.0969 31.9099 49.2842 31.9099 61.3439C31.9099 61.7452 31.5842 62.07 31.1829 62.07H27.2437C27.1307 62.07 27.0239 62.0442 26.9287 61.9988L26.7169 63.3825C26.6626 63.7375 26.3574 63.9982 25.9988 63.9982L25.9997 63.9991ZM18.5849 61.7176C18.1836 61.7176 17.8579 61.3928 17.8579 60.9915V60.8305C17.8579 60.4292 18.1836 60.1044 18.5849 60.1044C18.9862 60.1044 19.3119 60.4292 19.3119 60.8305V60.9915C19.3119 61.3928 18.9862 61.7176 18.5849 61.7176Z" fill="#144A8F"/>
<path d="M13.8071 48.5911L11.4544 54.1328L11.0566 59.5856H16.5121L17.5745 58.9868L20.6515 59.0936L20.6987 60.5502H26.4166L26.8277 59.0936H31.1451C31.1451 59.0936 29.9367 48.4531 27.8768 47.0303C20.0358 52.3585 13.8071 48.5902 13.8071 48.5902" fill="white"/>
<path d="M27.982 54.8064L28.2996 58.8613H26.7852L27.982 54.8064Z" fill="#2494D1"/>
<path d="M12.9955 50.1207C12.9955 50.1207 17.74 52.9538 23.4295 50.1207C27.9729 47.8579 13.8061 48.5911 13.8061 48.5911L12.9946 50.1207H12.9955Z" fill="#2494D1"/>
<path d="M31.1842 61.3439H26.5474L26.8285 59.0945H31.1459C31.1459 59.0945 31.1922 60.6116 31.1842 61.3439Z" fill="#EB2126"/>
<path d="M31.1845 62.07H26.5476C26.3394 62.07 26.141 61.981 26.0031 61.8244C25.8652 61.6678 25.8011 61.4605 25.8269 61.254L26.1081 59.0046C26.1535 58.6406 26.4631 58.3684 26.8288 58.3684H31.1462C31.5386 58.3684 31.8607 58.6807 31.8723 59.0722C31.8723 59.0722 31.9186 60.6107 31.9115 61.3519C31.907 61.7497 31.5831 62.0709 31.1845 62.0709V62.07ZM27.3707 60.6178H30.4539C30.4495 60.3482 30.4441 60.067 30.4379 59.8205H27.4695L27.3698 60.6178H27.3707Z" fill="#144A8F"/>
<path d="M29.603 47.5882C29.603 47.5882 32.8153 43.3429 37.8525 44.5246C42.8898 45.7072 44.2058 42.7192 44.2058 42.7192C44.2058 42.7192 41.7036 51.8816 35.2996 49.3554C35.2996 49.3554 36.2829 50.1812 37.1914 50.9767C35.2676 52.3576 33.5236 53.1772 30.072 51.1012" fill="#2494D1"/>
<path d="M29.1689 48.3108C29.1689 48.3108 32.4159 43.5405 36.5473 44.5113C40.6796 45.482 43.1586 44.4516 43.1586 44.4516C43.1586 44.4516 40.289 50.3306 35.7064 47.614C34.9083 47.0428 33.8396 47.1691 33.3173 47.8979C32.7958 48.6266 33.0192 49.6802 33.8165 50.2523C32.609 50.7409 31.0011 50.118 30.138 49.5432" fill="white"/>
<path d="M15.1382 49.2068C15.1382 49.2068 15.6418 47.9095 13.8079 48.5911C11.9731 49.2718 10.7905 59.615 10.7905 59.615H11.6127C12.063 59.615 12.9688 59.5305 12.9377 59.0802C12.9377 59.0802 12.9955 56.0228 13.2073 54.3197C13.6335 52.7536 15.1373 49.2068 15.1373 49.2068" fill="#2494D1"/>
<path d="M37.1996 24.7662C37.1996 34.6441 29.3274 50.1207 19.616 50.1207C9.90451 50.1207 2.0332 34.6441 2.0332 24.7662C2.0332 14.8884 9.9054 10.9305 19.616 10.9305C29.3265 10.9305 37.1996 14.8893 37.1996 24.7662Z" fill="white"/>
<path d="M19.6159 50.8476C9.50847 50.8476 1.30615 35.0659 1.30615 24.7671C1.30615 15.5122 7.97977 10.2044 19.6159 10.2044C31.252 10.2044 37.9265 15.5122 37.9265 24.7671C37.9265 35.0668 29.7233 50.8476 19.6159 50.8476ZM19.6159 11.6575C14.5475 11.6575 2.75922 12.9353 2.75922 24.7671C2.75922 34.2677 10.473 49.3955 19.6159 49.3955C28.7587 49.3955 36.4734 34.2677 36.4734 24.7671C36.4734 12.9353 24.6843 11.6575 19.6159 11.6575Z" fill="#144A8F"/>
<path d="M4.55324 23.1192C4.55324 23.1192 2.82433 23.395 1.97544 23.0427C0.832921 22.5675 2.6873 21.1411 2.6873 21.1411L4.55235 23.1183L4.55324 23.1192Z" fill="#2494D1"/>
<path d="M23.8445 21.2755C23.8445 23.4778 22.3967 24.2128 19.6659 25.2503C16.5764 25.2503 10.3335 23.4778 10.3335 21.2755C10.3335 19.0732 17.1477 17.2873 20.238 17.2873C23.3284 17.2873 23.8445 19.0732 23.8445 21.2755Z" fill="#2494D1"/>
<path d="M22.2709 41.1015C22.2709 41.1015 21.3099 37.1026 24.3202 35.7537C23.7498 37.2931 22.5761 40.6325 23.3111 41.8124C24.0452 42.9923 22.2709 41.1024 22.2709 41.1024" fill="#2494D1"/>
<path d="M19.6159 50.8476C9.50847 50.8476 1.30615 35.0659 1.30615 24.7671C1.30615 15.5122 7.97977 10.2044 19.6159 10.2044C31.252 10.2044 37.9265 15.5122 37.9265 24.7671C37.9265 35.0668 29.7233 50.8476 19.6159 50.8476ZM19.6159 11.6575C14.5475 11.6575 2.75922 12.9353 2.75922 24.7671C2.75922 34.2677 10.473 49.3955 19.6159 49.3955C28.7587 49.3955 36.4734 34.2677 36.4734 24.7671C36.4734 12.9353 24.6843 11.6575 19.6159 11.6575Z" fill="#144A8F"/>
<path d="M13.9888 28.2223C13.9888 28.2223 14.9702 32.4142 21.5389 33.0353C21.9793 33.0771 22.2391 32.5361 22.0024 32.1633C21.6937 31.6748 20.7087 30.8811 20.6926 30.2324C22.1502 30.4014 24.5153 31.1071 25.7592 30.4344C26.1401 30.2288 26.117 29.6745 25.7228 29.4974C24.9157 29.1343 24.9566 27.7747 24.5847 27.0807" fill="#2494D1"/>
<path d="M14.1846 26.8929C14.1846 26.8929 14.7496 31.5057 22.9288 30.9095C22.4429 30.2795 21.9269 29.606 21.9046 28.6877C23.5276 28.8754 25.5787 28.9199 26.6108 27.7098C25.6463 27.5398 24.5669 26.7968 24.1176 25.9604" fill="white"/>
<path d="M21.5096 31.6899C14.1295 31.6899 13.4879 27.1839 13.463 26.981C13.4141 26.5824 13.6979 26.2202 14.0957 26.1713C14.489 26.1188 14.852 26.4026 14.9045 26.7968C14.9285 26.9596 15.4918 30.2368 21.5114 30.2368C21.539 30.2368 21.5666 30.2368 21.595 30.2368C21.3628 29.7973 21.1919 29.2945 21.1777 28.7055C21.1724 28.4955 21.2587 28.2935 21.4144 28.152C21.5701 28.0105 21.7757 27.9447 21.9874 27.9669C23.2972 28.1191 24.3063 28.0853 25.0333 27.8619C24.3721 27.4633 23.8 26.9054 23.477 26.3047C23.2875 25.9506 23.42 25.5101 23.7742 25.3206C24.1266 25.1311 24.5679 25.2636 24.7583 25.6178C25.0938 26.2442 25.9818 26.8618 26.7364 26.9952C26.9935 27.0406 27.2062 27.2195 27.2943 27.4651C27.3824 27.7106 27.3326 27.9838 27.1635 28.1831C26.1242 29.4013 24.373 29.5819 22.8497 29.501C23.0152 29.8346 23.2554 30.1461 23.5037 30.4682C23.6665 30.68 23.7003 30.9647 23.5909 31.2085C23.4823 31.4523 23.2474 31.6169 22.9805 31.6365C22.4626 31.6748 21.9714 31.6917 21.5087 31.6917L21.5096 31.6899Z" fill="#144A8F"/>
<path d="M25.0482 20.4675C25.0482 21.9037 22.6164 24.5482 19.6159 24.5482C16.6155 24.5482 14.1836 21.9028 14.1836 20.4675C14.1836 19.0323 16.3583 0.72698 19.3588 0.72698C22.3592 0.72698 25.0482 19.0314 25.0482 20.4675Z" fill="white"/>
<path d="M19.6159 25.2752C16.2756 25.2752 13.4575 22.3219 13.4575 20.4675C13.4575 20.2629 15.2932 0 19.3588 0C23.4243 0 25.7743 20.2629 25.7743 20.4675C25.7743 22.3219 22.9554 25.2752 19.6159 25.2752ZM19.3588 1.45396C17.4955 1.45396 14.9106 17.6068 14.9106 20.4675C14.9106 21.4401 16.9465 23.8221 19.6159 23.8221C22.2854 23.8221 24.3213 21.441 24.3213 20.4675C24.3213 19.8198 23.6521 14.9098 22.6182 10.2151C20.7416 1.69243 19.3721 1.45396 19.3588 1.45396Z" fill="#144A8F"/>
<path d="M22.8807 46.2135C22.9572 46.6005 22.3254 46.1939 21.6696 46.3229C21.0138 46.4528 20.584 47.0695 20.5075 46.6824C20.431 46.2953 20.8243 45.4945 21.4792 45.3646C22.135 45.2347 22.8041 45.8264 22.8798 46.2135" fill="#144A8F"/>
<path d="M16.4106 46.2135C16.3341 46.6005 16.9659 46.1939 17.6216 46.3229C18.2774 46.4528 18.7072 47.0695 18.7837 46.6824C18.8603 46.2953 18.467 45.4945 17.8121 45.3646C17.1563 45.2347 16.4871 45.8264 16.4115 46.2135" fill="#144A8F"/>
<path d="M9.49879 14.5298C9.49879 14.5298 5.20454 12.404 1.23329 12.6594C-0.176176 16.7401 1.43973 20.8226 4.50069 22.4127" fill="white"/>
<path d="M4.50063 23.1388C4.38762 23.1388 4.27284 23.1121 4.16606 23.0569C0.64061 21.2257 -0.914788 16.6529 0.547179 12.4218C0.64328 12.1451 0.895097 11.952 1.18785 11.9342C5.30947 11.6601 9.63932 13.7886 9.82173 13.8793C10.1812 14.0573 10.328 14.4924 10.1501 14.8519C9.97211 15.2114 9.53521 15.3573 9.17661 15.182C9.13746 15.1625 5.35841 13.3259 1.77335 13.3659C0.805226 16.7828 2.07232 20.3323 4.83609 21.7685C5.19202 21.9535 5.33083 22.3922 5.14575 22.7481C5.01672 22.9973 4.76313 23.1397 4.50063 23.1397V23.1388Z" fill="#144A8F"/>
<path d="M2.63041 15.3831C2.53343 15.99 2.65711 18.5349 4.91991 20.3154C5.00711 20.3839 5.12991 20.2976 5.0952 20.1926C4.91012 19.624 4.83983 19.2734 4.81669 18.9718C4.80779 18.8623 4.9297 18.7929 5.02046 18.8543C5.22779 18.994 5.48228 19.0919 5.97612 18.9887C6.13451 18.9566 6.2137 18.776 6.13362 18.6354C6.0482 18.4868 5.94053 18.3133 5.90583 18.0855C5.88358 17.9449 5.99926 17.8203 6.14163 17.8257C7.00386 17.8559 7.67745 17.9627 8.21579 17.5774" fill="#2494D1"/>
<path d="M7.91325 17.0355C7.91325 17.0355 5.77948 15.9793 3.23193 15.546L7.91325 17.0355Z" fill="white"/>
<path d="M7.91114 17.7625C7.80347 17.7625 7.69403 17.7385 7.58992 17.6869C7.56945 17.6762 5.51309 16.6716 3.1088 16.2632C2.71284 16.1955 2.44678 15.8209 2.51441 15.425C2.58203 15.029 2.96288 14.7683 3.35261 14.8306C5.97401 15.2764 8.14249 16.3397 8.23414 16.3851C8.59363 16.563 8.74045 16.9982 8.56337 17.3576C8.43702 17.6139 8.17898 17.7625 7.91114 17.7625Z" fill="#144A8F"/>
<path d="M29.7329 14.5298C29.7329 14.5298 34.0272 12.404 37.9984 12.6594C39.4079 16.7401 37.792 20.8226 34.731 22.4127" fill="white"/>
<path d="M34.7314 23.1388C34.4689 23.1388 34.2153 22.9964 34.0863 22.7473C33.9012 22.3913 34.04 21.9526 34.3959 21.7676C37.1597 20.3314 38.4268 16.7819 37.4587 13.365C33.8549 13.3072 30.0946 15.1616 30.0554 15.1811C29.6959 15.3582 29.2599 15.2114 29.0819 14.851C28.904 14.4915 29.0508 14.0555 29.4112 13.8785C29.5936 13.7886 33.9279 11.669 38.0451 11.9333C38.3369 11.952 38.5896 12.1442 38.6857 12.4209C40.1468 16.652 38.5905 21.2248 35.066 23.056C34.9592 23.1112 34.8444 23.1379 34.7314 23.1379V23.1388Z" fill="#144A8F"/>
<path d="M36.6015 15.3831C36.6985 15.99 36.5748 18.5349 34.312 20.3154C34.2248 20.3839 34.102 20.2976 34.1367 20.1926C34.3218 19.624 34.3921 19.2734 34.4152 18.9718C34.4241 18.8623 34.3022 18.7929 34.2114 18.8543C34.0041 18.994 33.7496 19.0919 33.2558 18.9887C33.0974 18.9566 33.0182 18.776 33.0983 18.6354C33.1837 18.4868 33.2914 18.3133 33.3261 18.0855C33.3483 17.9449 33.2326 17.8203 33.0903 17.8257C32.228 17.8559 31.5545 17.9627 31.0161 17.5774" fill="#2494D1"/>
<path d="M31.3198 17.0355C31.3198 17.0355 33.4536 15.9793 36.0011 15.546L31.3198 17.0355Z" fill="white"/>
<path d="M31.3206 17.7625C31.0528 17.7625 30.7947 17.6139 30.6684 17.3576C30.4904 16.9982 30.6372 16.5621 30.9976 16.3851C31.0884 16.3397 33.2568 15.2764 35.8791 14.8306C36.268 14.7656 36.6497 15.029 36.7173 15.425C36.7841 15.8209 36.518 16.1955 36.1229 16.2632C33.7187 16.6716 31.6623 17.6771 31.6418 17.6869C31.5386 17.7376 31.4292 17.7625 31.3206 17.7625Z" fill="#144A8F"/>
<path d="M34.0008 39.7721C32.1509 43.7745 28.5088 46.0284 25.8652 44.8067C23.2207 43.585 22.5782 39.3494 24.4273 35.347C26.2781 31.3447 29.9201 29.0907 32.5637 30.3125C35.2074 31.5351 35.8498 35.7697 34.0008 39.7721Z" fill="white"/>
<path d="M27.415 45.8682C26.7663 45.8682 26.1417 45.7348 25.5597 45.466C24.0524 44.7693 23.0522 43.2646 22.7426 41.2287C22.4498 39.3032 22.8146 37.1062 23.7676 35.0427C25.7831 30.6835 29.8682 28.2659 32.8687 29.6531C35.8718 31.0412 36.6753 35.7172 34.6608 40.0773C33.7069 42.1408 32.2698 43.8412 30.613 44.8663C29.5381 45.531 28.4472 45.8682 27.4159 45.8682H27.415ZM31.0348 30.712C28.9473 30.712 26.4558 32.6909 25.0863 35.6523C24.2508 37.4604 23.9278 39.3637 24.1787 41.0107C24.4128 42.5483 25.1193 43.6624 26.1693 44.1464C27.2192 44.6323 28.5255 44.449 29.8477 43.6303C31.2643 42.753 32.5047 41.2741 33.3412 39.4669C34.9909 35.897 34.4961 32.0067 32.2592 30.9727C31.8774 30.7965 31.4645 30.7129 31.0357 30.7129L31.0348 30.712Z" fill="#144A8F"/>
<path d="M5.23101 39.7721C7.08094 43.7745 10.723 46.0284 13.3666 44.8067C16.0111 43.585 16.6536 39.3494 14.8045 35.347C12.9537 31.3447 9.31171 29.0907 6.66807 30.3125C4.02442 31.5351 3.38198 35.7697 5.23101 39.7721Z" fill="white"/>
<path d="M11.8167 45.8682C10.7854 45.8682 9.69452 45.531 8.61962 44.8663C6.96367 43.8412 5.52573 42.1408 4.57274 40.0773C2.5573 35.719 3.36081 31.0421 6.36393 29.6531C9.36795 28.2668 13.4495 30.6835 15.465 35.0427C16.4189 37.1062 16.7828 39.3041 16.49 41.2287C16.1804 43.2646 15.1793 44.7693 13.672 45.466C13.0901 45.7348 12.4654 45.8682 11.8167 45.8682ZM8.19696 30.712C7.76717 30.712 7.35519 30.7956 6.97257 30.9718C4.73557 32.0058 4.23994 35.8961 5.89055 39.466C6.72609 41.2741 7.96649 42.7521 9.38308 43.6294C10.7062 44.4463 12.0116 44.6305 13.0616 44.1455C14.1116 43.6615 14.819 42.5465 15.0521 41.0098C15.3021 39.3628 14.98 37.4595 14.1445 35.6514C12.7759 32.6909 10.2827 30.7111 8.19607 30.7111L8.19696 30.712Z" fill="#144A8F"/>
<path d="M5.23101 39.7721C7.08094 43.7745 10.723 46.0284 13.3666 44.8067C16.0111 43.585 16.6536 39.3494 14.8045 35.347C12.9537 31.3447 9.31171 29.0907 6.66807 30.3125C4.02442 31.5351 3.38198 35.7697 5.23101 39.7721Z" fill="white"/>
<path d="M11.8167 45.8682C10.7854 45.8682 9.69452 45.531 8.61962 44.8663C6.96367 43.8412 5.52573 42.1408 4.57274 40.0773C2.5573 35.719 3.36081 31.0421 6.36393 29.6531C9.36795 28.2668 13.4495 30.6835 15.465 35.0427C16.4189 37.1062 16.7828 39.3041 16.49 41.2287C16.1804 43.2646 15.1793 44.7693 13.672 45.466C13.0901 45.7348 12.4654 45.8682 11.8167 45.8682ZM8.19696 30.712C7.76717 30.712 7.35519 30.7956 6.97257 30.9718C4.73557 32.0058 4.23994 35.8961 5.89055 39.466C6.72609 41.2741 7.96649 42.7521 9.38308 43.6294C10.7062 44.4463 12.0116 44.6305 13.0616 44.1455C14.1116 43.6615 14.819 42.5465 15.0521 41.0098C15.3021 39.3628 14.98 37.4595 14.1445 35.6514C12.7759 32.6909 10.2827 30.7111 8.19607 30.7111L8.19696 30.712Z" fill="#144A8F"/>
<path d="M15.0619 36.6221C14.7816 37.2708 14.1382 37.7255 13.3872 37.7255C12.3782 37.7255 11.5604 36.9087 11.5604 35.8996C11.5604 35.299 11.8541 34.7713 12.3016 34.4385C12.2287 34.4332 12.1584 34.4163 12.0836 34.4163C10.3529 34.4163 8.94971 35.8195 8.94971 37.5502C8.94971 39.2809 10.3529 40.6842 12.0836 40.6842C13.8143 40.6842 15.2176 39.2809 15.2176 37.5502C15.2176 37.2246 15.1535 36.9167 15.0619 36.6213V36.6221Z" fill="#144A8F"/>
<path d="M15.819 44.5308C14.8812 45.7009 14.9817 47.3969 16.0664 48.4327C16.8299 49.1614 18.5036 49.5921 19.3596 49.6668C19.3596 49.6668 13.1122 49.2549 11.0078 46.1743C11.9101 45.2356 14.277 43.9578 14.9897 43.0564C15.7034 42.1541 17.1929 40.4056 18.1886 41.2821" fill="#2494D1"/>
<path d="M17.1966 41.0499C17.1966 41.0499 18.3898 34.2517 13.2075 32.3065C14.3233 34.8238 16.636 40.2971 15.5282 42.349C14.4203 44.4018 17.1966 41.0508 17.1966 41.0508" fill="#2494D1"/>
<path d="M19.613 50.8476C16.1285 50.8476 12.6235 48.9835 9.47713 45.4562C9.42018 45.3922 9.37569 45.3201 9.34544 45.2454C7.47415 44.3484 5.69897 42.5172 4.57158 40.0782C2.55703 35.7181 3.36054 31.0412 6.36367 29.654C7.87101 28.9564 9.66666 29.1699 11.4169 30.2537C13.0738 31.2788 14.5108 32.9792 15.4647 35.0427C16.4008 37.0679 16.7282 39.1617 16.5102 40.9627C18.2934 39.2978 21.099 39.3343 22.8386 41.0739L25.4262 43.6464C25.7109 43.9293 25.7118 44.3894 25.4289 44.6741C25.1459 44.9588 24.6859 44.9597 24.4011 44.6768L21.8118 42.1025C20.5998 40.8906 18.6307 40.8924 17.4223 42.1007L14.8917 44.6225C14.8694 44.6447 14.8445 44.6661 14.8196 44.6848C14.4832 45.0051 14.0997 45.2694 13.6726 45.4678C13.112 45.7267 12.5141 45.8531 11.8983 45.8593C13.8613 47.6879 16.5218 49.3963 19.613 49.3963C20.0143 49.3963 20.34 49.7211 20.34 50.1224C20.34 50.5237 20.0143 50.8485 19.613 50.8485V50.8476ZM5.89028 39.4678C7.56937 43.0991 10.7834 45.2 13.0622 44.1473C15.2992 43.1125 15.7948 39.2222 14.1442 35.6523C13.3087 33.8441 12.0683 32.3653 10.6517 31.4888C9.32853 30.6702 8.02228 30.4886 6.9723 30.9727C4.7353 32.0058 4.24057 35.8969 5.89028 39.4678Z" fill="#144A8F"/>
<path d="M33.6249 52.8551C32.4165 52.8551 31.1494 52.5507 29.8726 51.9403C29.5104 51.7677 29.3565 51.3335 29.53 50.9713C29.7026 50.6092 30.1386 50.4552 30.499 50.6296C32.4521 51.5622 34.3555 51.6387 35.9562 50.869C35.3369 50.3378 34.8324 49.9124 34.8315 49.9115C34.5592 49.6829 34.4925 49.2896 34.6749 48.9835C34.8564 48.6774 35.2328 48.5483 35.5656 48.6792C36.9288 49.2175 38.1434 49.2033 39.2788 48.6347C40.7141 47.9175 41.756 46.4404 42.4465 45.1181C41.3494 45.5452 39.81 45.7294 37.686 45.232C33.1711 44.1705 29.7738 48.3811 29.74 48.4229C29.4917 48.737 29.0335 48.7904 28.7194 48.5421C28.4053 48.2939 28.351 47.8383 28.5992 47.5224C28.7603 47.3177 32.5918 42.5421 38.0188 43.8163C42.3513 44.8307 43.4974 42.5154 43.5446 42.4175C43.7056 42.0767 44.1016 41.9112 44.4557 42.0411C44.8099 42.1719 45.0065 42.5465 44.9078 42.9105C44.849 43.1249 43.4342 48.18 39.9346 49.932C39.237 50.2817 38.5091 50.4766 37.7545 50.5166C37.8676 50.6545 37.9263 50.8298 37.9174 51.0114C37.9067 51.2329 37.7955 51.4367 37.6157 51.5666C36.4225 52.4235 35.0655 52.8542 33.6258 52.8542L33.6249 52.8551Z" fill="#144A8F"/>
<path d="M17.0072 60.1124H11.0562V62.5754H17.0072V60.1124Z" fill="#EB2126"/>
<path d="M26.229 61.2175H20.2788V63.6806H26.229V61.2175Z" fill="#EB2126"/>
<path d="M23.1542 64C22.7529 64 22.4272 63.6752 22.4272 63.2739V62.2684C22.4272 61.8671 22.7529 61.5423 23.1542 61.5423C23.5555 61.5423 23.8812 61.8671 23.8812 62.2684V63.2739C23.8812 63.6752 23.5555 64 23.1542 64Z" fill="#144A8F"/>
<path d="M11.1593 59.8455C11.1593 59.8455 11.9824 59.841 12.6142 59.8099C12.8144 59.8001 12.9576 60.0688 12.882 60.3162C12.5892 61.2727 12.8419 62.046 12.6186 62.3441C12.3534 62.6964 10.8701 62.1527 10.8701 62.1527L11.1593 59.8455Z" fill="#A62126"/>
<path d="M20.1909 61.0511C20.1909 61.0511 21.0069 60.9435 21.6306 60.8331C21.8282 60.7984 22.0044 61.0467 21.9599 61.3012C21.789 62.2871 22.1378 63.023 21.9528 63.3469C21.7339 63.7304 20.1945 63.3762 20.1945 63.3762L20.1909 61.0503V61.0511Z" fill="#A62126"/>
<path d="M16.9014 19.5484C16.9014 19.5484 19.9464 22.1101 22.0285 21.5478C23.2876 21.207 21.9574 23.9156 17.0767 23.2349C11.9959 22.5266 14.6297 17.3416 14.6297 17.3416L16.9014 19.5484Z" fill="#EB2126"/>
<path d="M17.5679 14.2406C17.9167 15.0655 20.5728 16.3148 22.42 16.2098C22.6709 16.1955 22.9041 16.3468 22.977 16.5871C23.4202 18.0188 23.4335 19.6649 23.0625 20.327C22.7083 20.9605 14.595 19.4683 14.5612 16.0514C14.5274 12.6354 15.8941 12.5669 15.8941 12.5669L17.5679 14.2406Z" fill="#EB2126"/>
<path d="M17.6211 8.52888C17.8952 9.31637 19.9711 10.5683 21.369 10.6947C21.7063 10.7241 21.991 10.9527 22.0987 11.2731C22.4608 12.3435 22.5703 13.4985 22.7429 14.5325C22.8514 15.1803 15.1803 13.7566 15.1519 10.3397C15.1243 6.92366 16.2463 6.85514 16.2463 6.85514L17.622 8.52888H17.6211Z" fill="#EB2126"/>
<path d="M22.1807 21.0112C19.8609 21.0112 17.7796 20.0387 17.0179 19.6356C15.6031 18.8863 14.038 17.6904 13.8894 16.5808C13.836 16.1831 14.1154 15.8174 14.5131 15.764C14.9109 15.7097 15.2766 15.99 15.33 16.3877C15.3798 16.6725 16.2055 17.6014 17.8909 18.4512C18.8109 18.9148 22.0196 20.327 24.6517 19.0082C25.0112 18.8285 25.4472 18.9735 25.6269 19.3321C25.8067 19.6907 25.6616 20.1276 25.303 20.3074C24.2779 20.8208 23.2057 21.0112 22.1807 21.0112ZM21.7562 15.5531C20.3556 15.5531 18.8314 15.1562 17.3579 14.3768C16.1317 13.7281 14.7756 12.6852 14.6439 11.7011C14.5905 11.3033 14.8699 10.9376 15.2677 10.8842C15.669 10.8326 16.0267 11.1076 16.0836 11.5009C16.1504 11.7456 16.9441 12.6114 18.5369 13.3374C19.4703 13.7628 21.8559 14.6455 23.8402 13.6489C24.1996 13.47 24.6357 13.6142 24.8154 13.9728C24.9951 14.3314 24.8501 14.7683 24.4915 14.948C23.6836 15.3529 22.751 15.5522 21.7571 15.5522L21.7562 15.5531Z" fill="#144A8F"/>
<path d="M21.3734 7.49937C21.449 7.8108 21.2621 8.12669 20.9534 8.21033C20.6081 8.30376 20.1089 8.51465 19.1978 8.53689C17.1334 8.58583 16.2979 6.07922 16.2979 6.07922C16.2979 6.07922 17.104 1.2671 18.9157 1.31515C19.5306 1.33205 20.9071 5.56135 21.3725 7.49937" fill="#EB2126"/>
<path d="M19.6159 25.2752C16.2756 25.2752 13.4575 22.3219 13.4575 20.4675C13.4575 20.3421 14.1453 12.711 15.6091 6.80442C15.6162 6.73591 15.6331 6.67006 15.658 6.60866C16.5817 2.94885 17.8078 0 19.3588 0C23.4751 0 25.7743 20.2629 25.7743 20.4675C25.7743 22.3219 22.9554 25.2752 19.6159 25.2752ZM16.7276 8.48439C15.7034 13.2209 14.9106 18.8828 14.9106 20.4675C14.9106 21.4401 16.9465 23.8221 19.6159 23.8221C22.2854 23.8221 24.3213 21.441 24.3213 20.4675C24.3213 19.8198 23.6521 14.9098 22.6182 10.2151C22.5959 10.1128 22.5737 10.0104 22.5505 9.91077C21.1322 10.2809 19.4131 10.0193 17.7776 9.15353C17.5676 9.04231 17.1449 8.80384 16.7276 8.48439ZM17.1013 6.84446C17.3113 7.12831 18.0321 7.75119 19.1862 8.20321C19.8642 8.46927 21.0815 8.81807 22.2204 8.49774C20.5511 1.65862 19.3712 1.45396 19.3588 1.45396C18.6496 1.45396 17.8372 3.7915 17.1013 6.84446Z" fill="#144A8F"/>
<path d="M30.1219 36.6061C29.8452 37.2637 29.1956 37.7255 28.4384 37.7255C27.4294 37.7255 26.6116 36.9087 26.6116 35.8996C26.6116 35.2981 26.9061 34.7704 27.3537 34.4377C27.2852 34.4332 27.2194 34.4172 27.1491 34.4172C25.4184 34.4172 24.0151 35.8204 24.0151 37.5511C24.0151 39.2818 25.4184 40.685 27.1491 40.685C28.8798 40.685 30.283 39.2818 30.283 37.5511C30.283 37.2192 30.2172 36.906 30.1219 36.6061Z" fill="#144A8F"/>
<path d="M19.6455 52.6388L19.7096 52.4831C20.3476 52.3603 21.2837 52.7848 21.5399 53.3818L22.3559 55.763C22.4662 56.0842 22.4814 56.4303 22.3986 56.7613L21.4536 60.552L21.0986 56.231L19.6455 52.6388Z" fill="#2494D1"/>
<path d="M13.8919 63.1894C13.4906 63.1894 13.1649 62.8646 13.1649 62.4633V61.5699C13.1649 61.1686 13.4906 60.8438 13.8919 60.8438C14.2932 60.8438 14.6189 61.1686 14.6189 61.5699V62.4633C14.6189 62.8646 14.2932 63.1894 13.8919 63.1894ZM16.5124 60.3126H11.0561C10.6548 60.3126 10.3291 59.9878 10.3291 59.5865C10.3291 59.1852 10.6548 58.8604 11.0561 58.8604H16.5124C16.9137 58.8604 17.2394 59.1852 17.2394 59.5865C17.2394 59.9878 16.9137 60.3126 16.5124 60.3126Z" fill="#144A8F"/>
<path d="M25.8801 61.2772H20.6996C20.2983 61.2772 19.9727 60.9524 19.9727 60.5511C19.9727 60.1498 20.2983 59.825 20.6996 59.825H25.8801C26.2814 59.825 26.6071 60.1498 26.6071 60.5511C26.6071 60.9524 26.2814 61.2772 25.8801 61.2772Z" fill="#144A8F"/>
<path d="M20.101 53.5678C20.7683 54.2352 21.9305 56.0806 21.4508 56.5594C20.9721 57.0381 19.455 56.6056 18.7867 55.9383C18.1194 55.27 17.9049 54.3704 18.3845 53.8917C19.3687 54.2974 19.4336 52.9004 20.101 53.5678Z" fill="#2494D1"/>
<path d="M16.4463 63.3024H10.8939C10.6928 63.3024 10.5006 63.2196 10.3636 63.0728C10.2265 62.926 10.1562 62.7284 10.1696 62.5282L10.7302 54.0848C10.7346 54.0136 10.7497 53.9442 10.7746 53.8774L12.9814 47.9949C13.122 47.6194 13.5438 47.429 13.9166 47.5704C14.293 47.711 14.4825 48.1301 14.3419 48.5065L12.1734 54.2876L11.6716 61.8502H15.7363L15.8413 57.1564C15.843 57.0594 15.8644 56.9651 15.9035 56.877L17.1698 54.0332C17.3326 53.6657 17.7615 53.5019 18.129 53.6648C18.4956 53.8276 18.6602 54.2574 18.4974 54.624L17.2908 57.3344L17.1733 62.5923C17.1644 62.9874 16.8423 63.3024 16.4472 63.3024H16.4463Z" fill="#144A8F"/>
<path d="M20.6516 59.0945H16.8975V61.3439H20.6516V59.0945Z" fill="#EB2126"/>
<path d="M20.651 62.07H16.8969C16.4956 62.07 16.1699 61.7452 16.1699 61.3439V59.0944C16.1699 58.6931 16.4956 58.3684 16.8969 58.3684H20.651C21.0523 58.3684 21.378 58.6931 21.378 59.0944V61.3439C21.378 61.7452 21.0523 62.07 20.651 62.07ZM17.6239 60.6178H19.9241V59.8205H17.6239V60.6178Z" fill="#144A8F"/>
<path d="M25.9997 63.9991H20.4473C20.2426 63.9991 20.0477 63.9137 19.9098 63.7624C19.7719 63.6112 19.7043 63.4092 19.723 63.2063L20.3574 56.3511L19.0948 53.4592C18.9337 53.0917 19.1019 52.6637 19.4703 52.5027C19.8377 52.3399 20.2666 52.5098 20.4277 52.8782L21.7651 55.9409C21.814 56.0531 21.8336 56.1758 21.8229 56.2978L21.2445 62.5469H25.376L26.5745 54.7219C26.6359 54.325 27.0043 54.0608 27.403 54.1133C27.7998 54.1747 28.0712 54.5457 28.0107 54.9417L27.1396 60.6249C27.1734 60.6205 27.2081 60.6178 27.2437 60.6178H28.17C28.2607 60.3197 28.5375 60.1035 28.8649 60.1035C29.1924 60.1035 29.4691 60.3197 29.5599 60.6178H30.4515C30.3171 49.9694 27.2401 47.0979 27.2081 47.0704C26.9118 46.8052 26.8789 46.3487 27.1405 46.048C27.4012 45.7472 27.8514 45.7107 28.1549 45.967C28.3079 46.0969 31.9099 49.2842 31.9099 61.3439C31.9099 61.7452 31.5842 62.07 31.1829 62.07H27.2437C27.1307 62.07 27.0239 62.0442 26.9287 61.9988L26.7169 63.3825C26.6626 63.7375 26.3574 63.9982 25.9988 63.9982L25.9997 63.9991ZM18.5849 61.7176C18.1836 61.7176 17.8579 61.3928 17.8579 60.9915V60.8305C17.8579 60.4292 18.1836 60.1044 18.5849 60.1044C18.9862 60.1044 19.3119 60.4292 19.3119 60.8305V60.9915C19.3119 61.3928 18.9862 61.7176 18.5849 61.7176Z" fill="#144A8F"/>
<path d="M64.2848 30.3089C64.2848 31.1818 64.4139 31.7967 64.5758 32.2487H64.9958C66.1597 32.2487 71.6561 28.7571 71.6561 21.158C71.6561 13.9799 66.4507 10.2293 63.0231 10.2293C59.0136 10.2293 55.489 13.6569 55.489 19.7673C55.489 23.6798 57.2678 25.4256 58.1407 25.4256C59.0136 25.4256 58.9166 25.0376 59.1755 25.0376C59.8544 25.0376 59.2405 26.1366 58.3026 26.1366C55.4899 26.1366 50.8335 24.7458 50.8335 18.7965C50.8335 13.85 54.5841 8.54668 61.2452 8.54668C69.0373 8.54668 75.1806 14.5609 75.1806 22.0301C75.1806 29.4992 70.4602 35.8364 67.0646 35.8364C65.8687 35.8364 64.5749 35.1895 63.67 34.3487C62.8941 34.3166 61.9882 34.0577 61.4712 33.5407C60.6304 32.6678 60.5334 30.437 60.5334 29.0783C60.5334 24.5838 61.2123 17.0827 63.2171 17.0827C65.4808 17.0827 66.3537 18.1175 66.3537 18.4726C66.3537 19.3784 64.2839 20.2184 64.2839 30.3062L64.2848 30.3089Z" fill="white"/>
<path d="M86.991 25.7504C87.023 25.4594 87.1529 25.3304 87.314 25.3304C87.6699 25.3304 88.1869 25.9453 88.1869 26.6233C88.1869 29.6629 85.9561 33.8014 82.7225 33.8014C78.552 33.8014 76.7412 30.0509 76.7412 26.1063C76.7412 20.351 78.8109 17.9912 81.5587 17.9912C81.5587 17.2153 82.1406 17.0854 82.4636 17.0854C84.2744 17.0854 84.9213 18.3462 84.9213 20.868C84.9213 24.8454 82.2056 27.8842 80.2008 27.8842H79.9098C80.3628 29.436 81.3647 30.9558 83.3374 30.9558C85.6331 30.9558 86.7321 28.3371 86.991 25.7504ZM82.1086 19.2512C80.8477 19.5101 79.6509 21.8699 79.6509 25.8794C79.6509 26.1054 79.6829 26.3644 79.6829 26.5913C80.4589 26.4943 82.4316 24.5865 82.4316 21.0949C82.4316 20.189 82.2696 19.64 82.1086 19.2521V19.2512Z" fill="white"/>
<path d="M90.7027 18.4103C91.9635 12.7519 94.1943 10.3272 97.2659 10.3272C98.5588 10.3272 99.7236 11.0711 99.7236 11.847C99.7236 13.8518 96.038 17.5053 95.5531 17.5053C95.4881 17.5053 95.4561 17.4404 95.4561 17.3763C95.4561 16.9234 97.5258 14.5307 97.5258 12.2999C97.5258 12.009 97.3968 11.847 97.1378 11.847C96.3299 11.847 94.6161 13.1079 93.6133 18.4752C95.844 18.3783 98.4957 17.8283 98.6576 17.8283C98.9166 17.8283 99.1105 18.0873 99.1105 18.4423C99.1105 19.0892 96.4918 19.8972 93.3232 20.2531C93.0322 22.5809 92.8382 25.4914 92.8382 29.145C92.8382 34.7713 93.9371 35.1264 93.9371 35.8382C93.9371 36.1292 93.6141 36.3232 93.1292 36.3232C91.6094 36.3232 89.5726 35.2563 89.5726 32.0876C89.5726 27.3672 89.8315 23.5196 90.3165 20.448H89.9606C89.0877 20.448 88.2788 19.0581 88.2788 18.6372C88.2788 18.3142 88.7317 17.6673 89.0547 17.6673C89.1197 17.6673 89.1838 17.6993 89.2487 17.7643C89.4747 18.0232 89.1517 18.2813 90.7036 18.4112L90.7027 18.4103Z" fill="white"/>
<path d="M107.693 25.7504C107.725 25.4594 107.855 25.3304 108.016 25.3304C108.372 25.3304 108.889 25.9453 108.889 26.6233C108.889 29.6629 106.658 33.8014 103.424 33.8014C99.2537 33.8014 97.4429 30.0509 97.4429 26.1063C97.4429 20.351 99.5126 17.9912 102.26 17.9912C102.26 17.2153 102.842 17.0854 103.165 17.0854C104.976 17.0854 105.623 18.3462 105.623 20.868C105.623 24.8454 102.907 27.8842 100.902 27.8842H100.612C101.064 29.436 102.066 30.9558 104.039 30.9558C106.335 30.9558 107.434 28.3371 107.693 25.7504ZM102.81 19.2512C101.549 19.5101 100.353 21.8699 100.353 25.8794C100.353 26.1054 100.385 26.3644 100.385 26.5913C101.161 26.4943 103.133 24.5865 103.133 21.0949C103.133 20.189 102.971 19.64 102.81 19.2521V19.2512Z" fill="white"/>
<path d="M115.866 26.7203C115.866 23.8106 116.739 20.6419 116.739 19.6391C116.739 19.4451 116.707 19.3161 116.61 19.3161C116.028 19.3161 113.83 23.4226 112.86 27.8851C112.828 30.2457 112.666 32.0556 112.666 32.0556C112.763 32.1526 112.828 32.4115 112.828 32.6705C112.828 33.0905 112.666 33.5434 112.052 33.5434C110.823 33.5434 108.689 32.2505 108.689 30.6657C108.689 29.081 109.562 28.144 109.562 20.9009C109.562 19.1551 108.301 18.1852 108.301 17.7972C108.301 17.3772 108.754 16.9893 109.109 16.9893C109.432 16.9893 110.079 17.0213 110.823 17.7652C112.019 18.9611 112.537 21.5807 112.763 24.2644C114.121 21.0308 115.899 17.7331 116.966 17.7331C119.844 17.7331 120.685 19.22 120.685 19.8998C120.685 20.8697 120.006 25.1702 120.006 28.5008C120.006 30.7965 120.329 32.6393 121.429 32.6393C123.11 32.6393 123.918 26.1401 124.015 25.2023C124.047 24.9113 124.177 24.7823 124.338 24.7823C124.694 24.7823 125.211 25.4292 125.211 26.0431V26.1401C124.952 28.5978 124.403 34.8701 120.782 34.8701C117.807 34.8701 115.867 31.5724 115.867 26.7221L115.866 26.7203Z" fill="white"/>
<path d="M133.698 25.3624C134.054 25.3624 134.603 26.0093 134.603 26.6553V26.7203C134.441 29.8569 131.984 34.5773 127.91 34.6743H127.845C125.484 34.6743 124.029 32.8965 124.029 30.7947C124.029 30.2128 124.385 29.8569 124.579 29.8569C124.676 29.8569 124.741 29.9218 124.741 30.0829C124.741 30.9558 125.258 32.4756 126.326 32.4756C127.457 32.4756 128.265 31.3438 128.265 29.565C128.265 27.4633 126.843 25.4265 125.647 23.7127L125.453 23.4217C125.291 25.8794 125.065 27.4633 125.065 27.4633C125.065 27.4633 125.065 27.5923 124.903 27.5923C124.515 27.5273 123.836 27.2043 123.836 26.7843V26.7194C123.836 26.7194 124.095 24.8116 124.256 21.514C124.094 21.191 124.03 20.932 124.03 20.6731C124.03 17.9574 127.005 16.9545 127.78 16.9545C128.556 16.9545 128.879 17.2776 128.879 17.9894C128.879 18.1514 128.588 18.8943 128.588 19.8642C128.588 23.9387 131.983 24.8116 131.983 29.6611C131.983 30.179 131.918 30.631 131.821 31.0519C133.017 29.5971 133.276 27.4953 133.406 25.7495C133.438 25.4585 133.535 25.3615 133.697 25.3615L133.698 25.3624Z" fill="white"/>
<path d="M143.522 25.7504C143.554 25.4594 143.684 25.3304 143.845 25.3304C144.201 25.3304 144.718 25.9453 144.718 26.6233C144.718 29.6629 142.487 33.8014 139.254 33.8014C135.083 33.8014 133.272 30.0509 133.272 26.1063C133.272 20.351 135.342 17.9912 138.09 17.9912C138.09 17.2153 138.672 17.0854 138.995 17.0854C140.806 17.0854 141.453 18.3462 141.453 20.868C141.453 24.8454 138.737 27.8842 136.732 27.8842H136.441C136.894 29.436 137.896 30.9558 139.869 30.9558C142.164 30.9558 143.263 28.3371 143.522 25.7504ZM138.64 19.2512C137.379 19.5101 136.182 21.8699 136.182 25.8794C136.182 26.1054 136.214 26.3644 136.214 26.5913C136.99 26.4943 138.963 24.5865 138.963 21.0949C138.963 20.189 138.801 19.64 138.64 19.2521V19.2512Z" fill="white"/>
<path d="M72.212 40.2668C72.212 42.3882 71.3916 44.3689 70.5996 46.2642C70.2321 47.8481 69.9492 49.6873 69.9492 51.6956C69.9492 60.6347 71.8445 61.5966 72.8064 61.5966C73.1454 61.5966 73.3723 61.5121 73.6837 61.3982C73.7122 61.3982 73.7683 61.4827 73.7683 61.5112C73.7683 61.7657 73.3723 62.2746 72.7779 62.2746C69.8362 62.2746 67.318 59.7004 67.0065 53.5616C64.7998 57.5221 62.537 60.7753 61.6881 60.7753C60.4433 60.7753 57.1616 58.2295 57.1616 55.3439C57.1616 51.8077 59.0854 40.4074 59.7928 39.7C60.0758 39.4171 60.3587 39.3041 60.6977 39.3041C61.8572 39.3041 63.1875 40.7464 63.1875 41.5108C63.1875 41.6523 63.159 41.7368 63.0744 41.8222C62.028 42.8411 60.0188 51.5248 60.0188 55.7683C60.0188 57.1546 60.2448 58.0596 60.7823 58.0596C62.2247 58.0596 64.8843 53.4201 67.1187 48.8091C67.4586 43.9151 68.4765 37.9462 69.5229 37.9462C70.4279 37.9462 71.9842 38.5121 72.2102 40.2659L72.212 40.2668Z" fill="white"/>
<path d="M79.7765 52.7794C79.7765 50.2337 80.5399 47.461 80.5399 46.5845C80.5399 46.4146 80.5115 46.3016 80.4269 46.3016C79.918 46.3016 77.9942 49.8946 77.1453 53.7983C77.1168 55.8635 76.9753 57.4474 76.9753 57.4474C77.0599 57.5319 77.1168 57.7588 77.1168 57.9848C77.1168 58.3523 76.9753 58.7483 76.4379 58.7483C75.363 58.7483 73.4962 57.6165 73.4962 56.231C73.4962 54.8456 74.2596 54.0243 74.2596 47.6879C74.2596 46.1601 73.1562 45.3121 73.1562 44.9722C73.1562 44.6047 73.5522 44.2648 73.8636 44.2648C74.1466 44.2648 74.7125 44.2933 75.363 44.9437C76.4094 45.9901 76.8623 48.2814 77.0608 50.6296C78.2487 47.8009 79.8049 44.9152 80.7384 44.9152C83.2557 44.9152 83.9915 46.2161 83.9915 46.8105C83.9915 47.6594 83.3971 51.4216 83.3971 54.3357C83.3971 56.344 83.6801 57.9564 84.642 57.9564C86.1129 57.9564 86.8203 52.2705 86.9048 51.45C86.9333 51.1956 87.0463 51.0825 87.1878 51.0825C87.4992 51.0825 87.9512 51.6485 87.9512 52.1859V52.2705C87.7252 54.4202 87.2438 59.9086 84.0761 59.9086C81.4734 59.9086 79.7765 57.023 79.7765 52.7794Z" fill="white"/>
<path d="M90.1526 58.7768C89.6997 58.7768 88.5972 58.2109 87.8044 57.4189C87.1539 56.7685 86.8994 54.4202 86.8994 52.016C86.8994 49.2433 87.2393 46.3861 87.6629 45.9901C87.8613 45.8202 88.1434 45.7356 88.4263 45.7356C88.9638 45.7356 89.6142 45.9901 90.0102 46.3861C90.2647 46.6406 90.4062 46.9805 90.4062 47.5455C90.4062 47.9415 90.2078 48.0545 90.2078 48.0545C90.2078 48.0545 89.7273 52.0151 89.7273 54.5893C89.7273 55.8342 89.8403 56.7676 90.1802 56.7676C91.7925 56.7676 92.217 53.8534 92.3584 52.7785C92.3584 52.694 92.4714 52.637 92.6129 52.637C92.9244 52.637 93.4333 52.8631 93.4333 53.203C93.4333 53.5705 93.3764 54.5324 93.0658 55.5788C92.5569 57.3041 91.3681 58.775 90.1517 58.775L90.1526 58.7768ZM88.7378 38.8618C89.0777 38.5219 89.9257 38.2114 90.3501 38.2114C91.3405 38.2114 91.9064 38.9748 91.9064 39.8807C91.9064 40.0506 91.8219 40.1921 91.7365 40.2766C91.312 40.7011 91.1705 42.5964 89.9257 42.5964C89.3882 42.5964 88.2564 41.8329 88.2564 40.475C88.2564 39.5416 88.3979 39.2017 88.7369 38.8627L88.7378 38.8618Z" fill="white"/>
<path d="M92.328 52.2989C92.328 47.0659 94.8453 44.9722 97.505 44.9722C99.1173 44.9722 100.249 45.7926 100.249 47.0659C100.249 48.8482 99.1458 51.0825 98.2969 51.0825C98.0985 51.0825 98.014 50.9411 98.014 50.7996C98.014 50.7426 98.014 50.6581 98.0709 50.6296C98.3539 50.3182 98.8629 49.1588 98.8629 47.4334C98.8629 46.6415 98.5238 45.991 98.0994 45.991C97.1944 45.991 95.0438 47.6318 95.0438 52.6958C95.0438 55.4115 96.4586 57.3068 98.2684 57.3068C100.9 57.3068 101.522 53.0918 101.635 52.1299C101.663 51.8754 101.748 51.7624 101.889 51.7624C102.201 51.7624 102.681 52.3283 102.681 52.8942V52.9512C102.483 55.0449 101.522 59.4575 98.0131 59.4575C94.5045 59.4575 92.3271 56.3173 92.3271 52.3007L92.328 52.2989Z" fill="white"/>
<path d="M116.691 56.514C116.691 57.9003 117.229 58.0694 117.568 58.0694C118.727 58.0694 119.689 53.5153 119.774 52.6379C119.803 52.3835 119.916 52.2704 120.057 52.2704C120.369 52.2704 120.821 52.7509 120.821 53.2893V53.4308C120.595 55.5245 119.802 59.7111 117.143 59.7111C114.286 59.7111 113.664 57.2783 113.664 55.0431C113.664 52.8079 114.597 49.1027 114.597 48.3668C114.597 47.8579 114.145 47.4895 113.58 47.1789C113.014 50.9411 111.118 52.9218 109.506 53.1763C108.94 56.5994 107.498 59.3151 105.687 59.3151C104.075 59.3151 101.613 57.2499 101.613 53.4032C101.613 49.5565 103.027 45.0576 106.394 45.0576C108.148 45.0576 109.251 45.991 109.251 47.0099C109.251 47.6888 109.138 48.0287 108.969 48.2262C109.563 48.5092 109.76 49.2727 109.76 50.037C109.76 50.6875 109.732 51.3103 109.676 51.9323C110.835 51.7063 112.335 49.8955 112.562 46.6424C111.798 46.2464 111.091 45.7935 111.091 45.143C111.091 44.4926 112.081 44.0396 112.845 44.0396C113.354 44.0396 113.749 44.2381 113.749 44.7471C113.749 45.1145 113.749 45.4545 113.721 45.765C115.22 46.3309 117.71 47.3773 117.71 49.1596C117.71 50.1215 116.692 54.9871 116.692 56.5149L116.691 56.514ZM108.29 48.1408C108.261 47.6034 108.12 46.6415 107.412 46.6415C105.8 46.6415 104.753 50.6305 104.753 53.6283C104.753 55.4391 105.121 56.8815 105.998 56.8815C106.79 56.8815 107.639 54.8162 108.064 52.8924C107.442 52.4395 106.989 51.5915 106.989 50.2897C106.989 49.2433 107.583 48.2529 108.29 48.1399V48.1408ZM108.347 49.7247C108.347 49.7247 108.318 50.0646 108.318 50.3467C108.318 50.4881 108.318 50.5727 108.347 50.6866V49.7247Z" fill="white"/>
<path d="M127.193 52.7794C127.193 50.2337 127.957 47.461 127.957 46.5845C127.957 46.4146 127.928 46.3016 127.844 46.3016C127.335 46.3016 125.411 49.8946 124.562 53.7983C124.534 55.8635 124.392 57.4474 124.392 57.4474C124.477 57.5319 124.534 57.7588 124.534 57.9848C124.534 58.3523 124.392 58.7483 123.855 58.7483C122.78 58.7483 120.913 57.6165 120.913 56.231C120.913 54.8456 121.677 54.0243 121.677 47.6879C121.677 46.1601 120.573 45.3121 120.573 44.9722C120.573 44.6047 120.969 44.2648 121.281 44.2648C121.564 44.2648 122.13 44.2933 122.78 44.9437C123.826 45.9901 124.279 48.2814 124.478 50.6296C125.666 47.8009 127.222 44.9152 128.155 44.9152C130.674 44.9152 131.409 46.2161 131.409 46.8105C131.409 47.6594 130.814 51.4216 130.814 54.3357C130.814 56.344 131.097 57.9564 132.059 57.9564C133.53 57.9564 134.237 52.2705 134.322 51.45C134.35 51.1956 134.463 51.0825 134.605 51.0825C134.916 51.0825 135.368 51.6485 135.368 52.1859V52.2705C135.142 54.4202 134.661 59.9086 131.493 59.9086C128.89 59.9086 127.193 57.023 127.193 52.7794Z" fill="white"/>
<path d="M142.797 51.5915C143.108 51.5915 143.588 52.1574 143.588 52.7234V52.7803C143.447 55.5245 141.297 59.6541 137.733 59.7396H137.676C135.61 59.7396 134.338 58.1842 134.338 56.3449C134.338 55.8359 134.649 55.5245 134.818 55.5245C134.903 55.5245 134.96 55.5806 134.96 55.7229C134.96 56.4864 135.413 57.8167 136.346 57.8167C137.337 57.8167 138.044 56.8263 138.044 55.2709C138.044 53.4326 136.799 51.6502 135.753 50.1509L135.583 49.8964C135.441 52.0462 135.243 53.4325 135.243 53.4325C135.243 53.4325 135.243 53.5456 135.101 53.5456C134.761 53.4886 134.168 53.2056 134.168 52.8382V52.7812C134.168 52.7812 134.394 51.1119 134.535 48.2271C134.394 47.9442 134.337 47.7181 134.337 47.4912C134.337 45.1154 136.94 44.2381 137.619 44.2381C138.298 44.2381 138.581 44.521 138.581 45.143C138.581 45.2845 138.326 45.935 138.326 46.7838C138.326 50.3484 141.296 51.1119 141.296 55.3554C141.296 55.8084 141.24 56.2043 141.155 56.5718C142.201 55.2985 142.428 53.4601 142.541 51.9323C142.57 51.6778 142.654 51.5924 142.796 51.5924L142.797 51.5915Z" fill="white"/>
</g>
<defs>
<clipPath id="clip0_3121_17160">
<rect width="144.718" height="64" fill="white"/>
</clipPath>
</defs>
</svg>
